<svg width="169" height="186" viewBox="0 0 169 186" fill="none" xmlns="http://www.w3.org/2000/svg">
<path d="M0.307617 0.394348H119.392L168.577 40.7505V185.431H0.307617L0.307617 0.394348Z" fill="url(#paint0_linear_1_4483)"/>
<path d="M0.307617 0.394348H119.392L168.577 40.7505V185.431H0.307617L0.307617 0.394348Z" fill="url(#paint1_linear_1_4483)"/>
<path d="M119.33 40.7519L119.328 0.0978394L168.644 40.7519H119.33Z" fill="#000822"/>
<path d="M109.342 99.7526L76.6347 114.577V134.344L73.3777 131.055L63.137 120.713L57.4866 115.006L76.6355 106.317L90.1791 100.182L118.099 87.5143C125.19 84.2863 126.901 74.8925 121.402 69.3392L96.526 44.2164C89.1936 36.8114 76.6347 42.0589 76.6347 52.524V68.3432L42.2454 83.9483V98.926L55.789 92.7908L86.4515 78.8993L90.2691 77.1708V62.1625L90.247 57.1829L109.342 76.4971L100.843 80.3525L100.859 80.3831L64.6063 96.8603L64.576 96.7991L48.7299 103.99C48.4573 104.112 48.1995 104.235 47.9572 104.373C44.6544 106.178 42.6702 109.391 42.2462 112.818C41.8369 116.092 42.8216 119.549 45.4123 122.165L70.3025 147.286C77.635 154.691 90.1783 149.444 90.1783 138.964V123.42L109.342 114.73L124.658 107.8V92.7915L109.342 99.7526Z" fill="#000822"/>
<defs>
<linearGradient id="paint0_linear_1_4483" x1="-57.5806" y1="162.094" x2="109.541" y2="77.6069" gradientUnits="userSpaceOnUse">
<stop stop-color="white" stop-opacity="0.3"/>
<stop offset="1" stop-color="#0388FF"/>
</linearGradient>
<linearGradient id="paint1_linear_1_4483" x1="-57.5806" y1="162.094" x2="109.541" y2="77.6069" gradientUnits="userSpaceOnUse">
<stop stop-color="white" stop-opacity="0.3"/>
<stop offset="1" stop-color="#0388FF"/>
</linearGradient>
</defs>
</svg>
