<svg width="495" height="337" viewBox="0 0 495 337" fill="none" xmlns="http://www.w3.org/2000/svg">
<path d="M381.836 30.5247L344.628 47.8412C332.086 53.6778 324.066 66.2561 324.066 80.0891V129.933C324.066 141.049 329.263 151.526 338.113 158.252L373.69 185.29C386.094 194.717 403.189 194.975 415.871 185.926L454.711 158.215C464.067 151.539 469.621 140.754 469.621 129.26V80.0891C469.621 66.2561 461.601 53.6778 449.06 47.8411L411.852 30.5247C402.337 26.0963 391.351 26.0963 381.836 30.5247Z" fill="url(#paint0_linear_1_4957)"/>
<path d="M381.836 30.5247L344.628 47.8412C332.086 53.6778 324.066 66.2561 324.066 80.0891V129.933C324.066 141.049 329.263 151.526 338.113 158.252L373.69 185.29C386.094 194.717 403.189 194.975 415.871 185.926L454.711 158.215C464.067 151.539 469.621 140.754 469.621 129.26V80.0891C469.621 66.2561 461.601 53.6778 449.06 47.8411L411.852 30.5247C402.337 26.0963 391.351 26.0963 381.836 30.5247Z" fill="url(#paint1_linear_1_4957)"/>
<path d="M372.901 104.408L386.473 122.98C389.707 127.406 396.343 127.312 399.452 122.797L428.419 80.7271" stroke="#000822" stroke-width="7.53555" stroke-linecap="round"/>
<rect y="59.9175" width="165.196" height="278.371" fill="url(#paint2_linear_1_4957)" fill-opacity="0.48"/>
<path d="M0 0.62207H116.47L164.575 40.0923V165.197H0V0.62207Z" fill="#000822"/>
<path d="M116.417 40.0648L116.415 0.303223L164.648 40.0648H116.417Z" fill="#0388FF"/>
<path d="M21.1821 48.9917H77.2852" stroke="#0388FF" stroke-width="7.53555" stroke-linecap="round"/>
<path d="M21.1821 73.1689H111.41" stroke="#0388FF" stroke-width="7.53555" stroke-linecap="round"/>
<path d="M23.6382 247.885V284.169C23.6382 290.392 28.6831 295.437 34.9064 295.437H483.198C489.421 295.437 494.466 290.392 494.466 284.169V236.531C494.466 227.192 487.915 219.134 478.773 217.227L423.092 205.614C419.027 204.766 415.416 202.451 412.949 199.111L374.765 147.429C371.578 143.115 366.533 140.57 361.171 140.57H191.095C186.394 140.57 181.905 142.528 178.707 145.973L127.779 200.832C125.675 203.099 122.989 204.745 120.014 205.59L37.9649 228.918C29.4871 231.328 23.6382 239.071 23.6382 247.885Z" fill="#000822"/>
<ellipse cx="151.907" cy="295.435" rx="41.7737" ry="44.324" fill="#000822"/>
<ellipse cx="387.248" cy="295.435" rx="41.7737" ry="44.324" fill="#000822"/>
<defs>
<linearGradient id="paint0_linear_1_4957" x1="273.992" y1="176.51" x2="428.908" y2="112.325" gradientUnits="userSpaceOnUse">
<stop stop-color="white" stop-opacity="0.3"/>
<stop offset="1" stop-color="#0388FF"/>
</linearGradient>
<linearGradient id="paint1_linear_1_4957" x1="273.992" y1="176.51" x2="428.908" y2="112.325" gradientUnits="userSpaceOnUse">
<stop stop-color="white" stop-opacity="0.3"/>
<stop offset="1" stop-color="#0388FF"/>
</linearGradient>
<linearGradient id="paint2_linear_1_4957" x1="82.5978" y1="59.9175" x2="82.5978" y2="338.288" gradientUnits="userSpaceOnUse">
<stop stop-color="#0388FF" stop-opacity="0"/>
<stop offset="1" stop-color="#0168FF"/>
</linearGradient>
</defs>
</svg>
