<svg width="56" height="56" viewBox="0 0 56 56" fill="none" xmlns="http://www.w3.org/2000/svg">
<path d="M8.02539 7.31482L20.132 0.325073L29.5114 27.7615L48.0527 48.6852L35.9461 55.6749L27.0955 29.1563L8.02539 7.31482Z" fill="white"/>
<path d="M8.02539 7.31482L20.132 0.325073L29.5114 27.7615L48.0527 48.6852L35.9461 55.6749L27.0955 29.1563L8.02539 7.31482Z" fill="url(#paint0_linear_1_4528)"/>
<path d="M0.119141 34.9897L0.11914 21.0103L28.5695 26.6056L55.9606 21.0103L55.9606 34.9897L28.5695 29.3953L0.119141 34.9897Z" fill="white"/>
<path d="M0.119141 34.9897L0.11914 21.0103L28.5695 26.6056L55.9606 21.0103L55.9606 34.9897L28.5695 29.3953L0.119141 34.9897Z" fill="url(#paint1_linear_1_4528)"/>
<path d="M20.1328 55.6749L8.02622 48.6852L27.0971 26.8441L35.9469 0.325083L48.0535 7.31483L29.5131 28.239L20.1328 55.6749Z" fill="white"/>
<path d="M20.1328 55.6749L8.02622 48.6852L27.0971 26.8441L35.9469 0.325083L48.0535 7.31483L29.5131 28.239L20.1328 55.6749Z" fill="url(#paint2_linear_1_4528)"/>
<defs>
<linearGradient id="paint0_linear_1_4528" x1="39.5125" y1="91.5542" x2="25.3312" y2="3.15001" gradientUnits="userSpaceOnUse">
<stop stop-color="white" stop-opacity="0"/>
<stop offset="1" stop-color="#0388FF"/>
</linearGradient>
<linearGradient id="paint1_linear_1_4528" x1="88.8162" y1="49.8408" x2="5.16521" y2="17.9201" gradientUnits="userSpaceOnUse">
<stop stop-color="white" stop-opacity="0"/>
<stop offset="1" stop-color="#0388FF"/>
</linearGradient>
<linearGradient id="paint2_linear_1_4528" x1="77.3427" y1="-13.7134" x2="7.87308" y2="42.7701" gradientUnits="userSpaceOnUse">
<stop stop-color="white" stop-opacity="0"/>
<stop offset="1" stop-color="#0388FF"/>
</linearGradient>
</defs>
</svg>
