<svg width="51" height="51" viewBox="0 0 51 51" fill="none" xmlns="http://www.w3.org/2000/svg">
<path d="M50.875 51C44.2446 51 37.8857 48.3424 33.1973 43.6117C28.5089 38.8811 25.875 32.4649 25.875 25.7748C25.875 19.0846 28.5089 12.6685 33.1973 7.93786C37.8857 3.20721 44.2446 0.549562 50.875 0.549562L50.875 51Z" fill="white"/>
<path d="M50.875 51C44.2446 51 37.8857 48.3424 33.1973 43.6117C28.5089 38.8811 25.875 32.4649 25.875 25.7748C25.875 19.0846 28.5089 12.6685 33.1973 7.93786C37.8857 3.20721 44.2446 0.549562 50.875 0.549562L50.875 51Z" fill="url(#paint0_linear_1_4537)"/>
<path d="M0.874998 51C7.50541 51 13.8643 48.3424 18.5527 43.6117C23.2411 38.8811 25.875 32.4649 25.875 25.7748C25.875 19.0846 23.2411 12.6685 18.5527 7.93786C13.8643 3.20721 7.50542 0.549561 0.875006 0.549559L0.874998 51Z" fill="white"/>
<path d="M0.874998 51C7.50541 51 13.8643 48.3424 18.5527 43.6117C23.2411 38.8811 25.875 32.4649 25.875 25.7748C25.875 19.0846 23.2411 12.6685 18.5527 7.93786C13.8643 3.20721 7.50542 0.549561 0.875006 0.549559L0.874998 51Z" fill="url(#paint1_linear_1_4537)"/>
<defs>
<linearGradient id="paint0_linear_1_4537" x1="41.2838" y1="-42.29" x2="41.6352" y2="35.5246" gradientUnits="userSpaceOnUse">
<stop stop-color="white" stop-opacity="0"/>
<stop offset="1" stop-color="#0388FF"/>
</linearGradient>
<linearGradient id="paint1_linear_1_4537" x1="10.4662" y1="-42.29" x2="10.1148" y2="35.5246" gradientUnits="userSpaceOnUse">
<stop stop-color="white" stop-opacity="0"/>
<stop offset="1" stop-color="#0388FF"/>
</linearGradient>
</defs>
</svg>
