<svg width="414" height="254" viewBox="0 0 414 254" fill="none" xmlns="http://www.w3.org/2000/svg">
<rect x="2.43896" y="143.479" width="92.6056" height="110.521" rx="20.496" fill="#000822"/>
<rect x="318.884" y="143.479" width="92.6056" height="110.521" rx="20.496" fill="#000822"/>
<path d="M90.8181 66.0068L51.9176 66.0067L37.6085 79.565C13.768 102.155 0.26416 133.553 0.26416 166.396V207.286C0.26416 214.833 6.38173 220.95 13.9282 220.95L399.706 220.95C407.253 220.95 413.37 214.833 413.37 207.286V166.312C413.37 133.518 399.906 102.162 376.128 79.5783L361.838 66.0068L332.013 66.0068H90.8181Z" fill="#000822"/>
<path d="M112.285 150.651C92.7134 126.143 52.8386 122.377 35.6208 122.921C29.5687 127.303 25.9999 132.407 23.8997 137.032C20.5602 144.386 26.8938 151.15 34.9312 151.95C69.3304 155.373 117.505 161.052 112.285 150.651Z" fill="#0388FF"/>
<path d="M294.266 150.651C313.838 126.143 353.713 122.377 370.931 122.921C376.983 127.303 380.551 132.407 382.652 137.032C385.991 144.386 379.657 151.15 371.62 151.95C337.221 155.373 289.046 161.052 294.266 150.651Z" fill="#0388FF"/>
<path d="M84.9472 14.1768C90.5975 5.34398 100.36 0 110.845 0L301.277 0C311.54 0 321.126 5.12091 326.832 13.6514L362.069 66.3339H51.582L84.9472 14.1768Z" fill="#000822"/>
<path d="M139.69 185.437H273.945" stroke="#0388FF" stroke-width="10.248" stroke-linecap="round"/>
</svg>
