<svg width="207" height="114" viewBox="0 0 207 114" fill="none" xmlns="http://www.w3.org/2000/svg">
<rect x="0.5" y="0.5" width="206" height="113" rx="17.5" fill="white"/>
<rect x="0.5" y="0.5" width="206" height="113" rx="17.5" stroke="#CAD0DF"/>
<g clip-path="url(#clip0_661_9981)">
<path d="M145.662 89.7572H61.4759C59.7584 89.7572 58.1112 89.0749 56.8967 87.8605C55.6823 86.646 55 84.9988 55 83.2813V56.0395H59.6653L60.7177 53.4923H63.0733L64.1229 56.0287H73.3024V54.0995L74.1227 56.0422H78.8879L79.7081 54.0671V56.0368H102.517V51.8707H102.948C103.256 51.8815 103.345 51.9084 103.345 52.4211V56.0422H115.145V55.0735C116.351 55.686 117.773 56.0449 119.281 56.0449L119.537 56.0422H119.524H124.489L125.552 53.5058H127.907L128.946 56.0422H138.514V53.6299L139.961 56.0422H147.613V40.1116H140.039V41.9923L138.979 40.1116H131.191V41.9923L130.217 40.1116H119.702C118.109 40.0346 116.523 40.3623 115.091 41.0641L115.147 41.0398V40.1116H107.894V41.0398C107.016 40.3486 105.908 40.0176 104.794 40.1143H104.81H78.305L76.5269 44.2291L74.7001 40.1143H66.3517V41.995L65.4315 40.1143H58.3081L55.0081 47.6695V31.4798C55.0081 29.7623 55.6904 28.1151 56.9048 26.9006C58.1193 25.6862 59.7665 25.0039 61.484 25.0039H145.67C147.388 25.0039 149.035 25.6862 150.249 26.9006C151.464 28.1151 152.146 29.7623 152.146 31.4798V59.7577H147.092C147.008 59.7541 146.917 59.7523 146.82 59.7523C145.649 59.7523 144.561 60.1031 143.655 60.7048L143.676 60.6913V59.7577H136.202C135.034 59.6926 133.879 60.0245 132.924 60.6994L132.94 60.6886V59.755H119.594V60.6886C118.501 60.0745 117.267 59.7529 116.013 59.755H115.908H115.914H107.109V60.6886C105.959 59.9512 104.594 59.6232 103.234 59.7577L103.259 59.755H93.4073L91.1515 62.1943L89.0415 59.755H74.3251V75.6965H88.7663L91.0895 73.2195L93.2778 75.6965H102.179V71.9648H103.421C104.614 72.0136 105.805 71.8142 106.918 71.3792L106.858 71.4008V75.7019H114.198V71.5492H114.551C114.999 71.5492 115.045 71.5654 115.045 72.0187V75.7046H137.349L137.621 75.71C138.9 75.71 140.093 75.3268 141.086 74.6711L141.062 74.6846V75.7046H148.136L148.474 75.71C149.799 75.71 151.059 75.4374 152.203 74.9437L152.141 74.9679V83.284C152.141 85.0015 151.458 86.6487 150.244 87.8632C149.03 89.0776 147.382 89.7599 145.665 89.7599L145.662 89.7572ZM111.947 73.4623H109.2V62.0351H115.504C116.642 61.9296 117.788 62.1211 118.83 62.5909L118.787 62.5747C119.632 63.0388 120.196 63.9239 120.196 64.9384L120.19 65.1192V65.1111L120.193 65.2137C120.193 66.525 119.403 67.6529 118.269 68.144L118.248 68.1521C118.79 68.3464 119.243 68.6782 119.581 69.1073L119.586 69.1127C119.966 69.7436 120.126 70.4831 120.039 71.2146L120.042 71.1984V73.4596H117.301V72.0295C117.433 71.2509 117.277 70.4505 116.861 69.7791L116.869 69.7926C116.584 69.5764 116.258 69.4203 115.911 69.3335C115.564 69.2468 115.204 69.2313 114.851 69.2881L114.867 69.2854H111.947V73.4596V73.4623ZM111.947 64.3961V66.9621H115.266C115.735 67.0054 116.206 66.9215 116.631 66.7193L116.615 66.7274C116.789 66.6151 116.931 66.4613 117.03 66.2799C117.129 66.0984 117.181 65.8952 117.182 65.6886L117.179 65.6265C117.194 65.42 117.15 65.2163 117.05 65.0345C116.951 64.8527 116.802 64.7032 116.621 64.6039L116.615 64.6012C116.205 64.4219 115.756 64.3477 115.309 64.3853H115.32L111.947 64.3961ZM87.5952 73.4596H76.7832V62.0351H87.7652L91.1246 65.7803L94.5972 62.0351H103.321C106.418 62.0351 107.924 63.2682 107.924 65.7992C107.924 68.376 106.367 69.628 103.175 69.628H99.7617V73.4569H94.4542L91.0922 69.682L87.5952 73.4596ZM97.0419 63.2601L92.8488 67.7662L97.0419 72.4181V63.2601ZM79.5058 68.8051V71.077H86.2191L89.3221 67.7258L86.3378 64.3961H79.5031V66.4738H85.4986V68.8024L79.5058 68.8051ZM99.7617 64.3988V67.3075H103.288C104.368 67.3075 104.988 66.7571 104.988 65.7965C104.988 64.8791 104.411 64.3961 103.318 64.3961L99.7617 64.3988ZM148.433 73.465H143.161V71.0096H148.412C148.805 71.0634 149.203 70.9607 149.521 70.7235L149.518 70.7262C149.62 70.6324 149.701 70.5185 149.756 70.3917C149.811 70.2649 149.84 70.1279 149.839 69.9896V69.9464C149.839 69.8099 149.809 69.6751 149.752 69.5512C149.695 69.4273 149.611 69.3172 149.507 69.2287C149.23 69.0237 148.884 68.9329 148.541 68.9751H148.547L148.042 68.9589C145.576 68.8941 142.783 68.8186 142.783 65.4376C142.783 63.7917 143.814 62.0351 146.698 62.0351H152.141V64.4689H147.162C146.778 64.4271 146.39 64.5044 146.051 64.6902L146.062 64.6848C145.929 64.7727 145.822 64.8947 145.752 65.038C145.682 65.1813 145.652 65.3408 145.665 65.4997V65.497V65.5267C145.665 65.7085 145.722 65.8857 145.829 66.0329C145.935 66.1802 146.086 66.2901 146.258 66.3469L146.264 66.3496C146.606 66.4563 146.964 66.5001 147.322 66.4792H147.314L148.795 66.5169C149.912 66.4046 151.028 66.7372 151.901 67.4424L151.893 67.437C151.973 67.5018 152.044 67.5729 152.106 67.6502L152.108 67.6529L152.141 72.0025C151.687 72.5322 151.109 72.9423 150.46 73.1968C149.81 73.4513 149.108 73.5425 148.414 73.4623L148.433 73.465ZM137.778 73.465H132.457V71.0096H137.751C138.147 71.0606 138.548 70.9583 138.871 70.7235L138.865 70.7262C138.966 70.6322 139.047 70.5181 139.102 70.3913C139.156 70.2645 139.184 70.1277 139.184 69.9896V69.9626C139.184 69.8237 139.155 69.6863 139.097 69.5596C139.04 69.433 138.956 69.3202 138.852 69.2287C138.567 69.0276 138.219 68.9374 137.872 68.9751H137.878L137.376 68.9589C134.918 68.8941 132.128 68.8186 132.128 65.4376C132.128 63.7917 133.153 62.0351 136.032 62.0351H141.504V64.4689H136.496C136.114 64.4288 135.729 64.506 135.393 64.6902L135.403 64.6848C135.262 64.7823 135.149 64.9164 135.077 65.0727C135.005 65.229 134.977 65.4019 134.995 65.5729C135.013 65.744 135.077 65.907 135.181 66.0447C135.284 66.1823 135.422 66.2896 135.581 66.355L135.587 66.3577C135.933 66.466 136.296 66.5099 136.658 66.4873H136.65L138.12 66.525C139.243 66.4143 140.365 66.7474 141.245 67.4532L141.237 67.4451C141.534 67.7718 141.76 68.1565 141.9 68.5751C142.04 68.9936 142.092 69.4367 142.052 69.8763V69.8628C142.06 72.2454 140.616 73.4596 137.77 73.4596L137.778 73.465ZM130.822 73.465H121.701V62.0324H130.814V64.3934H124.427V66.4711H130.665V68.7997H124.427V71.0716L130.822 71.0824V73.4569V73.465ZM136.137 53.8053H130.576L129.513 51.2582H123.841L122.81 53.8053H119.616C118.181 53.881 116.768 53.4289 115.644 52.5344L115.657 52.5425C115.123 51.9532 114.717 51.2588 114.466 50.5039C114.215 49.7489 114.125 48.9498 114.2 48.1578L114.198 48.1794C114.126 47.3727 114.22 46.5599 114.475 45.791C114.729 45.0221 115.138 44.3133 115.676 43.7084L115.671 43.7138C116.237 43.2179 116.9 42.8441 117.617 42.6157C118.334 42.3873 119.091 42.3092 119.84 42.3862L119.818 42.3835H122.462V44.8201H119.872C119.493 44.7707 119.108 44.8058 118.744 44.9229C118.38 45.04 118.046 45.2361 117.767 45.4973L117.77 45.4946C117.195 46.2343 116.915 47.1614 116.985 48.0958V48.0823C116.9 49.0424 117.169 50.0005 117.743 50.7752L117.735 50.7644C118.271 51.2035 118.958 51.4148 119.648 51.3526H119.637H120.862L124.724 42.3673H128.825L133.447 53.1604V42.3673H137.605L142.403 50.3219V42.3673H145.209V53.7864H141.313L136.132 45.2113V53.7864L136.137 53.8053ZM126.696 44.3128L124.815 48.8675H128.585L126.696 44.3128ZM100.256 53.7999H97.5249V42.3754H103.806C104.953 42.2569 106.11 42.4518 107.155 42.9394L107.115 42.9232C107.534 43.1563 107.883 43.4969 108.127 43.91C108.371 44.3231 108.5 44.7937 108.501 45.2734L108.496 45.4623V45.4542V45.5378C108.496 46.161 108.317 46.771 107.979 47.2946C107.641 47.8182 107.159 48.2332 106.591 48.4897L106.57 48.4978C107.112 48.7029 107.568 49.0321 107.916 49.453L107.921 49.4584C108.309 50.0903 108.468 50.8361 108.372 51.5712L108.375 51.555V53.7972H105.62L105.609 52.3564V52.1405C105.709 51.4359 105.553 50.7186 105.169 50.1195L105.177 50.133C104.891 49.9237 104.566 49.7728 104.222 49.689C103.878 49.6052 103.52 49.5901 103.17 49.6446L103.186 49.6419H100.258V53.7972L100.256 53.7999ZM100.256 44.7526V47.289H103.569C104.037 47.3419 104.511 47.2576 104.932 47.0461L104.918 47.0515C105.09 46.9459 105.233 46.798 105.332 46.6219C105.431 46.4457 105.484 46.2472 105.485 46.0451L105.482 45.9695C105.496 45.7645 105.449 45.5626 105.348 45.3838C105.247 45.2049 105.096 45.0596 104.913 44.9658L104.907 44.9631C104.498 44.7843 104.05 44.7101 103.604 44.7472H103.612L100.256 44.7526ZM71.3408 53.7999H65.7931L64.7435 51.2528H59.0555L57.9978 53.7999H55.0297L59.9217 42.3754H63.9772L68.6209 53.1874V42.3754H73.0758L76.6483 50.1222L79.9321 42.3754H84.4787V53.7945H81.6725L81.6671 44.8578L77.7087 53.7972H75.3126L71.3435 44.8444V53.7972L71.3408 53.7999ZM61.886 44.3128L60.0269 48.8675H63.7559L61.886 44.3128ZM112.851 53.7972H110.066V42.3754H112.854V53.7945L112.851 53.7972ZM95.6199 53.7972H86.5159V42.3754H95.6361V44.7499H89.2466V46.8087H95.4823V49.1535H89.2412V51.4363H95.6307V53.7945L95.6199 53.7972Z" fill="#A8ABB4"/>
</g>
<defs>
<clipPath id="clip0_661_9981">
<rect width="97.138" height="64.7587" fill="white" transform="translate(55 25)"/>
</clipPath>
</defs>
</svg>
