<svg width="98" height="65" viewBox="0 0 98 65" fill="none" xmlns="http://www.w3.org/2000/svg">
<g clip-path="url(#clip0_1_1296)">
<path d="M90.6629 64.7582H6.4766C4.75909 64.7582 3.11193 64.0759 1.89747 62.8614C0.68301 61.647 0.000732422 59.9998 0.000732422 58.2823L0.000732422 31.0405H4.66606L5.71839 28.4933H8.07398L9.12361 31.0297H18.3032V29.1004L19.1234 31.0432H23.8886L24.7089 29.068V31.0378H47.5174V26.8716H47.9492C48.2568 26.8824 48.3458 26.9094 48.3458 27.4221V31.0432H60.1454V30.0745C61.3515 30.687 62.7735 31.0459 64.2818 31.0459L64.5382 31.0432H64.5247H69.4895L70.5526 28.5068H72.9082L73.9471 31.0432H83.5152V28.6309L84.9614 31.0432H92.6138V15.1125H85.0397V16.9932L83.9793 15.1125H76.192V16.9932L75.218 15.1125H64.7028C63.1099 15.0356 61.5234 15.3633 60.0914 16.065L60.1481 16.0408V15.1125H52.8951V16.0408C52.0168 15.3495 50.9083 15.0186 49.7948 15.1152H49.811H23.3058L21.5276 19.2301L19.7009 15.1152H11.3524V16.9959L10.4323 15.1152H3.30882L0.00882726 22.6704V6.48075C0.00882726 4.76325 0.691104 3.11608 1.90557 1.90162C3.12003 0.68716 4.76719 0.00488281 6.4847 0.00488281H90.671C92.3885 0.00488281 94.0357 0.68716 95.2501 1.90162C96.4646 3.11608 97.1469 4.76325 97.1469 6.48075V34.7587H92.093C92.0084 34.7551 91.9176 34.7533 91.8205 34.7533C90.6494 34.7533 89.562 35.1041 88.6554 35.7058L88.677 35.6923V34.7587H81.2027C80.035 34.6936 78.8795 35.0255 77.9243 35.7004L77.9405 35.6896V34.756H64.5948V35.6896C63.5015 35.0755 62.2682 34.7539 61.0142 34.756H60.909H60.9144H52.1099V35.6896C50.9598 34.9522 49.5947 34.6242 48.2352 34.7587L48.2595 34.756H38.408L36.1523 37.1953L34.0422 34.756H19.3258V50.6974H33.767L36.0902 48.2204L38.2785 50.6974H47.1801V46.9657H48.4213C49.615 47.0146 50.8057 46.8152 51.9183 46.3802L51.859 46.4018V50.7028H59.1983V46.5502H59.5517C59.9997 46.5502 60.0455 46.5664 60.0455 47.0197V50.7055H82.3495L82.622 50.7109C83.901 50.7109 85.0937 50.3278 86.0866 49.6721L86.0623 49.6856V50.7055H93.1372L93.4745 50.7109C94.7994 50.7109 96.0595 50.4384 97.2035 49.9446L97.1415 49.9689V58.285C97.1415 60.0025 96.4592 61.6497 95.2447 62.8641C94.0303 64.0786 92.3831 64.7609 90.6656 64.7609L90.6629 64.7582ZM56.9479 48.4633H54.2011V37.0361H60.5042C61.6426 36.9305 62.7889 37.1221 63.8312 37.5919L63.788 37.5757C64.6326 38.0398 65.1965 38.9249 65.1965 39.9394L65.1911 40.1202V40.1121L65.1938 40.2146C65.1938 41.526 64.4033 42.6539 63.27 43.145L63.2484 43.1531C63.7907 43.3473 64.2441 43.6792 64.5813 44.1083L64.5867 44.1137C64.9669 44.7446 65.1264 45.4841 65.04 46.2156L65.0427 46.1994V48.4606H62.3013V47.0305C62.4341 46.2518 62.2777 45.4515 61.8615 44.7801L61.8696 44.7936C61.5847 44.5774 61.259 44.4212 60.9121 44.3345C60.5652 44.2478 60.2043 44.2323 59.8513 44.289L59.8674 44.2863H56.9479V48.4606V48.4633ZM56.9479 39.3971V41.9631H60.2668C60.7355 42.0064 61.2071 41.9225 61.6321 41.7203L61.6159 41.7284C61.7894 41.6161 61.9321 41.4622 62.031 41.2808C62.13 41.0994 62.1821 40.8962 62.1826 40.6895L62.1799 40.6275C62.1949 40.421 62.1503 40.2173 62.0512 40.0355C61.9522 39.8537 61.803 39.7042 61.6213 39.6048L61.6159 39.6021C61.2053 39.4229 60.7565 39.3487 60.31 39.3863H60.3208L56.9479 39.3971ZM32.5959 48.4606H21.7839V37.0361H32.7659L36.1253 40.7813L39.598 37.0361H48.3215C51.4191 37.0361 52.9248 38.2692 52.9248 40.8002C52.9248 43.377 51.3679 44.629 48.1758 44.629H44.7625V48.4579H39.455L36.0929 44.683L32.5959 48.4606ZM42.0426 38.2611L37.8495 42.7672L42.0426 47.419V38.2611ZM24.5065 43.806V46.078H31.2198L34.3228 42.7267L31.3385 39.3971H24.5038V41.4747H30.4994V43.8033L24.5065 43.806ZM44.7625 39.3998V42.3085H48.2891C49.3684 42.3085 49.989 41.7581 49.989 40.7975C49.989 39.8801 49.4116 39.3971 48.3188 39.3971L44.7625 39.3998ZM93.434 48.466H88.1616V46.0105H93.4124C93.8053 46.0644 94.2036 45.9617 94.5214 45.7245L94.5187 45.7272C94.6204 45.6334 94.7014 45.5194 94.7567 45.3926C94.812 45.2658 94.8403 45.1289 94.8398 44.9906V44.9474C94.8397 44.8109 94.8099 44.676 94.7526 44.5521C94.6953 44.4282 94.6119 44.3182 94.508 44.2297C94.2303 44.0247 93.8846 43.9339 93.542 43.976H93.5474L93.0428 43.9598C90.5766 43.8951 87.7838 43.8195 87.7838 40.4386C87.7838 38.7926 88.8146 37.0361 91.699 37.0361H97.1415V39.4699H92.1631C91.7787 39.4281 91.3906 39.5053 91.0515 39.6912L91.0622 39.6858C90.9292 39.7737 90.8223 39.8956 90.7525 40.039C90.6827 40.1823 90.6527 40.3418 90.6656 40.5007V40.498V40.5276C90.6656 40.7095 90.723 40.8866 90.8296 41.0339C90.9361 41.1812 91.0865 41.2911 91.2592 41.3479L91.2646 41.3506C91.6065 41.4572 91.9648 41.5011 92.3223 41.4801H92.3143L93.7956 41.5179C94.9123 41.4056 96.0283 41.7381 96.9013 42.4434L96.8932 42.438C96.9742 42.5028 97.0452 42.5738 97.1064 42.6512L97.1091 42.6539L97.1415 47.0035C96.6872 47.5332 96.1099 47.9433 95.4602 48.1978C94.8105 48.4523 94.1083 48.5435 93.4151 48.4633L93.434 48.466ZM82.7785 48.466H77.4575V46.0105H82.7515C83.1476 46.0616 83.5482 45.9592 83.8713 45.7245L83.8659 45.7272C83.9671 45.6331 84.0476 45.5191 84.1024 45.3923C84.1572 45.2655 84.1851 45.1287 84.1843 44.9906V44.9636C84.1847 44.8247 84.1553 44.6872 84.0981 44.5606C84.0408 44.434 83.957 44.3212 83.8524 44.2297C83.5678 44.0286 83.2195 43.9384 82.873 43.976H82.8784L82.3765 43.9598C79.9184 43.8951 77.1283 43.8195 77.1283 40.4386C77.1283 38.7926 78.1537 37.0361 81.0327 37.0361H86.5049V39.4699H81.4968C81.115 39.4298 80.7301 39.507 80.3933 39.6912L80.404 39.6858C80.2623 39.7833 80.1495 39.9173 80.0777 40.0737C80.0058 40.23 79.9775 40.4028 79.9957 40.5739C80.014 40.745 80.0781 40.908 80.1813 41.0457C80.2845 41.1833 80.423 41.2906 80.5821 41.356L80.5875 41.3587C80.9337 41.467 81.2968 41.5109 81.6587 41.4882H81.6507L83.1212 41.526C84.244 41.4152 85.3656 41.7484 86.2458 42.4542L86.2377 42.4461C86.5347 42.7727 86.7604 43.1575 86.9007 43.576C87.041 43.9946 87.0927 44.4377 87.0526 44.8773V44.8638C87.0607 47.2464 85.6171 48.4606 82.7704 48.4606L82.7785 48.466ZM75.8224 48.466H66.7022V37.0334H75.8143V39.3944H69.4274V41.472H75.6659V43.8006H69.4274V46.0726L75.8224 46.0834V48.4579V48.466ZM81.138 28.8063H75.5768L74.5137 26.2591H68.8419L67.8112 28.8063H64.6164C63.1817 28.882 61.7689 28.4299 60.6446 27.5354L60.658 27.5435C60.1236 26.9542 59.718 26.2598 59.4671 25.5048C59.2162 24.7498 59.1256 23.9508 59.201 23.1588L59.1983 23.1804C59.1267 22.3737 59.221 21.5609 59.4753 20.792C59.7296 20.0231 60.1385 19.3143 60.6769 18.7094L60.6715 18.7148C61.2379 18.2189 61.9004 17.8451 62.6177 17.6167C63.3349 17.3883 64.0916 17.3101 64.8404 17.3872L64.8188 17.3845H67.4631V19.821H64.8728C64.4937 19.7717 64.1084 19.8068 63.7445 19.9239C63.3807 20.0409 63.0472 20.2371 62.7681 20.4983L62.7708 20.4956C62.1955 21.2353 61.9157 22.1623 61.9856 23.0968V23.0833C61.9004 24.0434 62.1701 25.0015 62.7438 25.7761L62.7357 25.7654C63.2717 26.2045 63.9587 26.4157 64.6488 26.3536H64.638H65.863L69.7243 17.3683H73.8256L78.4478 28.1614V17.3683H82.6058L87.4034 25.3228V17.3683H90.2096V28.7874H86.3133L81.1326 20.2123V28.7874L81.138 28.8063ZM71.6967 19.3138L69.816 23.8685H73.5855L71.6967 19.3138ZM45.2563 28.8009H42.5256V17.3764H48.8072C49.9539 17.2578 51.1112 17.4527 52.1558 17.9403L52.1153 17.9242C52.5345 18.1573 52.884 18.4979 53.1278 18.911C53.3715 19.3241 53.5008 19.7947 53.5022 20.2744L53.4968 20.4632V20.4551V20.5388C53.497 21.162 53.3174 21.772 52.9795 22.2956C52.6416 22.8192 52.1598 23.2342 51.5918 23.4907L51.5702 23.4988C52.1126 23.7039 52.5686 24.0331 52.9167 24.454L52.9221 24.4594C53.3097 25.0913 53.4688 25.8371 53.3727 26.5721L53.3754 26.556V28.7982H50.6204L50.6097 27.3573V27.1415C50.7101 26.4369 50.554 25.7196 50.1698 25.1205L50.1779 25.134C49.8918 24.9247 49.5672 24.7738 49.2228 24.69C48.8783 24.6062 48.5207 24.5911 48.1704 24.6456L48.1866 24.6429H45.259V28.7982L45.2563 28.8009ZM45.2563 19.7536V22.29H48.5698C49.0379 22.3429 49.5113 22.2585 49.9324 22.0471L49.9189 22.0525C50.0912 21.9469 50.2337 21.799 50.3329 21.6228C50.432 21.4467 50.4846 21.2482 50.4855 21.0461L50.4828 20.9705C50.4966 20.7655 50.45 20.5636 50.3488 20.3848C50.2476 20.2059 50.0963 20.0606 49.9135 19.9668L49.9081 19.9641C49.4983 19.7852 49.0504 19.711 48.6048 19.7482H48.6129L45.2563 19.7536ZM16.3415 28.8009H10.7938L9.74422 26.2537H4.05625L2.99852 28.8009H0.0304135L4.92239 17.3764H8.97791L13.6216 28.1884V17.3764H18.0765L21.649 25.1232L24.9328 17.3764H29.4794V28.7955H26.6732L26.6678 19.8588L22.7094 28.7982H20.3134L16.3442 19.8453V28.7982L16.3415 28.8009ZM6.88674 19.3138L5.02763 23.8685H8.75665L6.88674 19.3138ZM57.8518 28.7982H55.0672V17.3764H57.8545V28.7955L57.8518 28.7982ZM40.6206 28.7982H31.5166V17.3764H40.6368V19.7509H34.2473V21.8097H40.483V24.1545H34.2419V26.4372H40.6314V28.7955L40.6206 28.7982Z" fill="#A8ABB4"/>
</g>
<defs>
<clipPath id="clip0_1_1296">
<rect width="97.138" height="64.7587" fill="white"/>
</clipPath>
</defs>
</svg>
