<svg width="54" height="37" viewBox="0 0 54 37" fill="none" xmlns="http://www.w3.org/2000/svg">
<g clip-path="url(#clip0_350_177)">
<path d="M50.4118 36.5925H3.91551C2.96692 36.5925 2.05719 36.2157 1.38644 35.5449C0.715691 34.8742 0.338867 33.9645 0.338867 33.0159L0.338867 17.9701H2.91554L3.49674 16.5633H4.79774L5.37746 17.9642H10.4473V16.8986L10.9004 17.9716H13.5322L13.9852 16.8808V17.9687H26.5825V15.6677H26.8209C26.9908 15.6736 27.04 15.6885 27.04 15.9717V17.9716H33.5569V17.4366C34.223 17.7749 35.0084 17.9731 35.8415 17.9731L35.983 17.9716H35.9756H38.7177L39.3049 16.5708H40.6059L41.1796 17.9716H46.4641V16.6393L47.2629 17.9716H51.4893V9.1731H47.3061V10.2118L46.7204 9.1731H42.4195V10.2118L41.8815 9.1731H36.074C35.1942 9.13061 34.318 9.31159 33.5271 9.69917L33.5584 9.68575V9.1731H29.5526V9.68575C29.0675 9.30399 28.4552 9.12122 27.8402 9.17459H27.8492H13.2103L12.2282 11.4472L11.2193 9.17459H6.60842V10.2133L6.10024 9.17459H2.16593L0.343338 13.3473V4.40574C0.343338 3.45716 0.720161 2.54742 1.39091 1.87667C2.06166 1.20592 2.97139 0.829102 3.91998 0.829102H50.4163C51.3649 0.829102 52.2746 1.20592 52.9453 1.87667C53.6161 2.54742 53.9929 3.45716 53.9929 4.40574V20.0237H51.2016C51.155 20.0217 51.1048 20.0207 51.0511 20.0207C50.4044 20.0207 49.8038 20.2145 49.303 20.5468L49.315 20.5394V20.0237H45.1869C44.542 19.9877 43.9038 20.171 43.3763 20.5438L43.3852 20.5379V20.0222H36.0143V20.5379C35.4105 20.1987 34.7293 20.0211 34.0368 20.0222H33.9786H33.9816H29.1189V20.5379C28.4837 20.1306 27.7297 19.9494 26.9789 20.0237L26.9923 20.0222H21.5513L20.3055 21.3694L19.1401 20.0222H11.0122V28.8267H18.9881L20.2712 27.4587L21.4798 28.8267H26.3962V26.7657H27.0817C27.7409 26.7927 28.3986 26.6825 29.0131 26.4423L28.9803 26.4542V28.8297H33.0338V26.5362H33.229C33.4764 26.5362 33.5018 26.5451 33.5018 26.7955V28.8312H45.8203L45.9708 28.8342C46.6772 28.8342 47.3359 28.6226 47.8843 28.2604L47.8709 28.2679V28.8312H51.7784L51.9647 28.8342C52.6964 28.8342 53.3923 28.6837 54.0242 28.4109L53.9899 28.4244V33.0174C53.9899 33.9659 53.6131 34.8757 52.9424 35.5464C52.2716 36.2172 51.3619 36.594 50.4133 36.594L50.4118 36.5925ZM31.7909 27.5928H30.2738V21.2815H33.7551C34.3838 21.2232 35.017 21.329 35.5926 21.5885L35.5688 21.5796C36.0352 21.8359 36.3467 22.3247 36.3467 22.885L36.3437 22.9849V22.9804L36.3452 23.037C36.3452 23.7613 35.9085 24.3842 35.2826 24.6555L35.2707 24.6599C35.5702 24.7672 35.8206 24.9505 36.0069 25.1875L36.0099 25.1905C36.2198 25.5389 36.3079 25.9474 36.2602 26.3514L36.2617 26.3425V27.5913H34.7476V26.8015C34.821 26.3714 34.7346 25.9294 34.5047 25.5586L34.5092 25.566C34.3519 25.4466 34.172 25.3604 33.9804 25.3125C33.7888 25.2646 33.5895 25.256 33.3945 25.2873L33.4034 25.2859H31.7909V27.5913V27.5928ZM31.7909 22.5855V24.0027H33.624C33.8828 24.0266 34.1433 23.9803 34.378 23.8686L34.3691 23.8731C34.4649 23.8111 34.5437 23.7261 34.5983 23.6259C34.653 23.5257 34.6818 23.4135 34.682 23.2993L34.6806 23.2651C34.6889 23.151 34.6642 23.0385 34.6095 22.9381C34.5548 22.8377 34.4724 22.7551 34.3721 22.7002L34.3691 22.6988C34.1423 22.5997 33.8944 22.5588 33.6478 22.5795H33.6538L31.7909 22.5855ZM18.3413 27.5913H12.3698V21.2815H18.4352L20.2905 23.35L22.2085 21.2815H27.0266C28.7374 21.2815 29.5689 21.9626 29.5689 23.3604C29.5689 24.7836 28.7091 25.4751 26.9461 25.4751H25.0609V27.5898H22.1295L20.2727 25.5049L18.3413 27.5913ZM23.5587 21.9581L21.2428 24.4468L23.5587 27.0161V21.9581ZM13.8735 25.0206V26.2754H17.5812L19.2951 24.4245L17.6468 22.5855H13.872V23.733H17.1833V25.0191L13.8735 25.0206ZM25.0609 22.587V24.1935H27.0087C27.6048 24.1935 27.9475 23.8895 27.9475 23.3589C27.9475 22.8523 27.6286 22.5855 27.0251 22.5855L25.0609 22.587ZM51.9423 27.5943H49.0303V26.2381H51.9304C52.1474 26.2679 52.3674 26.2112 52.5429 26.0802L52.5414 26.0817C52.5975 26.0298 52.6423 25.9669 52.6728 25.8969C52.7033 25.8268 52.719 25.7512 52.7187 25.6748V25.651C52.7186 25.5756 52.7022 25.5011 52.6706 25.4327C52.6389 25.3642 52.5928 25.3035 52.5354 25.2546C52.3821 25.1413 52.1911 25.0912 52.0019 25.1145H52.0049L51.7262 25.1055C50.3641 25.0698 48.8217 25.028 48.8217 23.1607C48.8217 22.2517 49.391 21.2815 50.9841 21.2815H53.9899V22.6257H51.2404C51.028 22.6026 50.8137 22.6453 50.6264 22.7479L50.6324 22.745C50.5589 22.7935 50.4998 22.8609 50.4613 22.94C50.4228 23.0192 50.4062 23.1073 50.4133 23.195V23.1935V23.2099C50.4133 23.3103 50.445 23.4082 50.5038 23.4895C50.5627 23.5709 50.6458 23.6316 50.7412 23.663L50.7441 23.6644C50.933 23.7233 51.1309 23.7476 51.3283 23.736H51.3238L52.142 23.7568C52.7588 23.6948 53.3751 23.8785 53.8573 24.268L53.8528 24.265C53.8975 24.3008 53.9368 24.34 53.9706 24.3828L53.972 24.3842L53.9899 26.7866C53.7391 27.0791 53.4202 27.3056 53.0614 27.4462C52.7026 27.5867 52.3147 27.6371 51.9319 27.5928L51.9423 27.5943ZM46.0572 27.5943H43.1184V26.2381H46.0423C46.2611 26.2663 46.4824 26.2098 46.6608 26.0802L46.6578 26.0817C46.7137 26.0297 46.7582 25.9667 46.7884 25.8967C46.8187 25.8267 46.8341 25.7511 46.8337 25.6748V25.6599C46.8339 25.5832 46.8176 25.5073 46.786 25.4373C46.7544 25.3674 46.7081 25.3051 46.6504 25.2546C46.4931 25.1435 46.3008 25.0937 46.1094 25.1145H46.1124L45.8352 25.1055C44.4776 25.0698 42.9366 25.028 42.9366 23.1607C42.9366 22.2517 43.5029 21.2815 45.093 21.2815H48.1153V22.6257H45.3494C45.1385 22.6036 44.9259 22.6462 44.7399 22.7479L44.7458 22.745C44.6675 22.7988 44.6052 22.8728 44.5656 22.9592C44.5259 23.0455 44.5102 23.141 44.5203 23.2355C44.5304 23.33 44.5658 23.42 44.6228 23.496C44.6798 23.5721 44.7563 23.6313 44.8442 23.6674L44.8471 23.6689C45.0383 23.7287 45.2389 23.753 45.4388 23.7405H45.4343L46.2465 23.7613C46.8666 23.7001 47.4861 23.8841 47.9722 24.274L47.9678 24.2695C48.1318 24.4499 48.2565 24.6624 48.3339 24.8936C48.4114 25.1247 48.44 25.3694 48.4178 25.6122V25.6048C48.4223 26.9207 47.625 27.5913 46.0528 27.5913L46.0572 27.5943ZM42.2153 27.5943H37.1782V21.28H42.2109V22.584H38.6834V23.7315H42.1289V25.0176H38.6834V26.2724L42.2153 26.2784V27.5898V27.5943ZM45.1512 16.7362H42.0797L41.4926 15.3294H38.36L37.7907 16.7362H36.0263C35.2339 16.778 34.4536 16.5283 33.8326 16.0343L33.84 16.0388C33.5449 15.7133 33.3209 15.3298 33.1823 14.9128C33.0437 14.4958 32.9937 14.0545 33.0353 13.6171L33.0338 13.629C32.9943 13.1835 33.0464 12.7345 33.1868 12.3099C33.3272 11.8852 33.5531 11.4938 33.8505 11.1596L33.8475 11.1626C34.1603 10.8887 34.5262 10.6823 34.9223 10.5561C35.3185 10.43 35.7364 10.3868 36.15 10.4294L36.138 10.4279H37.5985V11.7736H36.1678C35.9585 11.7463 35.7457 11.7657 35.5447 11.8304C35.3438 11.8951 35.1596 12.0034 35.0054 12.1477L35.0069 12.1462C34.6892 12.5547 34.5346 13.0667 34.5733 13.5828V13.5753C34.5262 14.1056 34.6752 14.6348 34.992 15.0626L34.9876 15.0567C35.2836 15.2992 35.663 15.4159 36.0441 15.3816H36.0382H36.7148L38.8473 10.419H41.1125L43.6654 16.38V10.419H45.9619L48.6116 14.8123V10.419H50.1614V16.7258H48.0095L45.1482 11.9897V16.7258L45.1512 16.7362ZM39.9367 11.4934L38.898 14.009H40.9799L39.9367 11.4934ZM25.3336 16.7332H23.8255V10.4234H27.2948C27.9281 10.3579 28.5673 10.4656 29.1442 10.7349L29.1219 10.726C29.3534 10.8547 29.5464 11.0428 29.6811 11.271C29.8157 11.4991 29.8871 11.7591 29.8879 12.024L29.8849 12.1283V12.1238V12.17C29.885 12.5142 29.7858 12.8511 29.5992 13.1403C29.4125 13.4295 29.1464 13.6587 28.8328 13.8004L28.8208 13.8048C29.1204 13.9181 29.3722 14.0999 29.5645 14.3324L29.5675 14.3354C29.7815 14.6844 29.8694 15.0963 29.8163 15.5023L29.8178 15.4933V16.7317H28.2963L28.2903 15.9359V15.8167C28.3458 15.4275 28.2596 15.0314 28.0474 14.7005L28.0519 14.7079C27.8938 14.5924 27.7146 14.509 27.5243 14.4628C27.3341 14.4165 27.1366 14.4081 26.9431 14.4382L26.952 14.4367H25.3351V16.7317L25.3336 16.7332ZM25.3336 11.7364V13.1372H27.1637C27.4222 13.1665 27.6837 13.1198 27.9162 13.0031L27.9088 13.0061C28.004 12.9477 28.0827 12.866 28.1374 12.7688C28.1922 12.6715 28.2212 12.5618 28.2217 12.4502L28.2203 12.4085C28.2278 12.2952 28.2021 12.1837 28.1462 12.085C28.0903 11.9862 28.0068 11.9059 27.9058 11.8541L27.9028 11.8526C27.6765 11.7538 27.4291 11.7129 27.183 11.7334H27.1875L25.3336 11.7364ZM9.36392 16.7332H6.29993L5.72022 15.3264H2.57874L1.99455 16.7332H0.35526L3.05711 10.4234H5.29698L7.86173 16.3949V10.4234H10.3222L12.2953 14.702L14.1089 10.4234H16.62V16.7302H15.0701L15.0672 11.7945L12.8809 16.7317H11.5576L9.36541 11.787V16.7317L9.36392 16.7332ZM4.14203 11.4934L3.11523 14.009H5.17478L4.14203 11.4934ZM32.2902 16.7317H30.7522V10.4234H32.2917V16.7302L32.2902 16.7317ZM22.7733 16.7317H17.7452V10.4234H22.7823V11.7349H19.2533V12.8719H22.6973V14.167H19.2503V15.4277H22.7793V16.7302L22.7733 16.7317Z" fill="#A8ABB4"/>
</g>
<defs>
<clipPath id="clip0_350_177">
<rect width="53.6496" height="35.7664" fill="white" transform="translate(0.338379 0.826172)"/>
</clipPath>
</defs>
</svg>
