<svg width="161" height="54" viewBox="0 0 161 54" fill="none" xmlns="http://www.w3.org/2000/svg">
<rect width="161" height="54" rx="7.8031" fill="white"/>
<path d="M34.0042 28.1061C34.0207 26.8605 34.3596 25.6391 34.9894 24.5557C35.6192 23.4723 36.5196 22.562 37.6066 21.9095C36.916 20.9467 36.005 20.1543 34.9459 19.5953C33.8869 19.0363 32.7088 18.7261 31.5055 18.6894C28.9385 18.4263 26.4499 20.189 25.1418 20.189C23.8084 20.189 21.7944 18.7155 19.6257 18.759C18.2229 18.8033 16.8557 19.2015 15.6575 19.915C14.4592 20.6285 13.4706 21.6328 12.7881 22.8302C9.8318 27.8274 12.037 35.1717 14.869 39.2111C16.2859 41.1891 17.9418 43.3985 20.1086 43.3202C22.2289 43.2343 23.0208 42.0002 25.5803 42.0002C28.1159 42.0002 28.8589 43.3202 31.0697 43.2704C33.3449 43.2343 34.7784 41.2836 36.1456 39.2869C37.1636 37.8775 37.947 36.3198 38.4667 34.6716C37.1449 34.1258 36.0169 33.2121 35.2233 32.0446C34.4297 30.8771 34.0057 29.5073 34.0042 28.1061Z" fill="#000822"/>
<path d="M29.825 16.0327C31.0656 14.5788 31.6767 12.71 31.5288 10.8232C29.6335 11.0176 27.8828 11.9019 26.6255 13.3001C26.0107 13.9831 25.5399 14.7777 25.2399 15.6385C24.9399 16.4993 24.8167 17.4094 24.8771 18.3167C25.8251 18.3262 26.7629 18.1256 27.62 17.73C28.4771 17.3344 29.231 16.754 29.825 16.0327Z" fill="#000822"/>
<path d="M51.4796 13.4426H54.0024C56.1824 13.4426 57.243 14.7388 57.243 17.0902C57.243 19.4416 56.1717 20.7539 54.0024 20.7539H51.4796V13.4426ZM52.6955 14.4656V19.7309H53.8685C55.3147 19.7309 55.995 18.8578 55.995 17.1063C55.995 15.3441 55.3094 14.4656 53.8685 14.4656H52.6955ZM61.0888 14.9959C62.5671 14.9959 63.6009 15.9547 63.6009 17.5455V18.2793C63.6009 19.9237 62.5671 20.8503 61.0888 20.8503C59.589 20.8503 58.566 19.9344 58.566 18.2847V17.5508C58.566 16.0029 59.6051 14.9959 61.0888 14.9959ZM61.0942 15.9547C60.2479 15.9547 59.7658 16.6617 59.7658 17.6098V18.2418C59.7658 19.1899 60.2157 19.8915 61.0942 19.8915C61.9619 19.8915 62.4065 19.1952 62.4065 18.2418V17.6098C62.4065 16.6617 61.9405 15.9547 61.0942 15.9547ZM72.3316 15.0923L70.8426 20.7539H69.6321L68.4483 16.576H68.4162L67.2539 20.7539H66.038L64.4847 15.0923H65.7648L66.6754 19.4095H66.729L67.8699 15.0923H68.9893L70.1623 19.4095H70.2159L71.1425 15.0923H72.3316ZM73.51 20.7539V15.0923H74.6777V16.11H74.7366C74.8812 15.6654 75.2937 15.0066 76.4399 15.0066C77.5808 15.0066 78.3467 15.6387 78.3467 16.9295V20.7539H77.1577V17.2777C77.1577 16.4153 76.7077 16.019 76.0382 16.019C75.1598 16.019 74.6991 16.6938 74.6991 17.6098V20.7539H73.51ZM80.1465 20.7539V13.0569H81.3356V20.7539H80.1465ZM85.417 14.9959C86.8954 14.9959 87.9291 15.9547 87.9291 17.5455V18.2793C87.9291 19.9237 86.8954 20.8503 85.417 20.8503C83.9173 20.8503 82.8942 19.9344 82.8942 18.2847V17.5508C82.8942 16.0029 83.9333 14.9959 85.417 14.9959ZM85.4224 15.9547C84.5761 15.9547 84.094 16.6617 84.094 17.6098V18.2418C84.094 19.1899 84.544 19.8915 85.4224 19.8915C86.2901 19.8915 86.7347 19.1952 86.7347 18.2418V17.6098C86.7347 16.6617 86.2687 15.9547 85.4224 15.9547ZM91.009 20.8396C89.911 20.8396 89.1557 20.1647 89.1557 19.1095C89.1557 18.1079 89.852 17.433 91.159 17.433H92.5891V16.9027C92.5891 16.2546 92.1767 15.9493 91.5232 15.9493C90.8804 15.9493 90.5912 16.2171 90.5002 16.5921H89.37C89.4396 15.644 90.152 15.0066 91.5607 15.0066C92.7712 15.0066 93.7728 15.5101 93.7728 16.9188V20.7539H92.6427V20.0201H92.5891C92.3374 20.454 91.8446 20.8396 91.009 20.8396ZM91.3786 19.9183C92.0535 19.9183 92.5891 19.4577 92.5891 18.8417V18.2311H91.3464C90.6555 18.2311 90.3502 18.5793 90.3502 19.0506C90.3502 19.6398 90.843 19.9183 91.3786 19.9183ZM97.4365 15.0173C98.2346 15.0173 98.8452 15.3708 99.0648 15.944H99.1238V13.0569H100.313V20.7539H99.1559V19.8487H99.097C98.9256 20.4218 98.2453 20.8289 97.4205 20.8289C96.1189 20.8289 95.2726 19.9023 95.2726 18.4079V17.4384C95.2726 15.944 96.135 15.0173 97.4365 15.0173ZM97.7686 15.9922C96.9759 15.9922 96.4831 16.5814 96.4831 17.6098V18.2311C96.4831 19.2649 96.9812 19.8541 97.7954 19.8541C98.5988 19.8541 99.1238 19.2702 99.1238 18.3061V17.4491C99.1238 16.576 98.5506 15.9922 97.7686 15.9922ZM106.842 14.9959C108.321 14.9959 109.354 15.9547 109.354 17.5455V18.2793C109.354 19.9237 108.321 20.8503 106.842 20.8503C105.342 20.8503 104.319 19.9344 104.319 18.2847V17.5508C104.319 16.0029 105.358 14.9959 106.842 14.9959ZM106.848 15.9547C106.001 15.9547 105.519 16.6617 105.519 17.6098V18.2418C105.519 19.1899 105.969 19.8915 106.848 19.8915C107.715 19.8915 108.16 19.1952 108.16 18.2418V17.6098C108.16 16.6617 107.694 15.9547 106.848 15.9547ZM110.886 20.7539V15.0923H112.054V16.11H112.113C112.257 15.6654 112.67 15.0066 113.816 15.0066C114.957 15.0066 115.723 15.6387 115.723 16.9295V20.7539H114.534V17.2777C114.534 16.4153 114.084 16.019 113.414 16.019C112.536 16.019 112.075 16.6938 112.075 17.6098V20.7539H110.886ZM120.324 15.1298V13.7158H121.486V15.1298H122.756V16.0618H121.486V19.0667C121.486 19.6826 121.717 19.8541 122.354 19.8541C122.515 19.8541 122.729 19.8433 122.82 19.8326V20.7432C122.724 20.7593 122.327 20.7914 122.059 20.7914C120.683 20.7914 120.308 20.2986 120.308 19.1631V16.0618H119.446V15.1298H120.324ZM124.255 20.7539V13.0569H125.439V16.11H125.498C125.621 15.7083 126.082 15.0066 127.217 15.0066C128.321 15.0066 129.108 15.644 129.108 16.9349V20.7539H127.925V17.283C127.925 16.4207 127.448 16.019 126.773 16.019C125.921 16.019 125.439 16.6885 125.439 17.6098V20.7539H124.255ZM133.099 20.8503C131.556 20.8503 130.597 19.9023 130.597 18.3061V17.5401C130.597 15.9333 131.647 14.9959 133.029 14.9959C134.448 14.9959 135.45 15.9815 135.45 17.5401V18.2043H131.776V18.4828C131.776 19.297 132.258 19.8969 133.093 19.8969C133.715 19.8969 134.143 19.6023 134.223 19.2488H135.386C135.316 19.9023 134.625 20.8503 133.099 20.8503ZM131.776 17.4277H134.288V17.3527C134.288 16.501 133.79 15.9333 133.034 15.9333C132.279 15.9333 131.776 16.501 131.776 17.3527V17.4277Z" fill="#000822"/>
<path d="M53.2044 40.6855H50.7298L55.7647 26.0629H58.4857L63.5098 40.6855H60.9388L59.6426 36.6362H54.5113L53.2044 40.6855ZM57.1359 28.5911H57.0395L55.0576 34.7722H59.0963L57.1359 28.5911ZM70.3394 40.8462C68.8717 40.8462 67.7576 40.1499 67.1577 39.1108H67.072V44.4457H64.6938V29.3624H67.0078V31.0228H67.0935C67.7148 29.9408 68.8717 29.2124 70.3929 29.2124C72.9318 29.2124 74.7422 31.1299 74.7422 34.5151V35.5221C74.7422 38.8858 72.9532 40.8462 70.3394 40.8462ZM69.793 38.8858C71.3035 38.8858 72.3319 37.6753 72.3319 35.3935V34.6008C72.3319 32.4047 71.3678 31.1514 69.7502 31.1514C68.0897 31.1514 67.0506 32.5011 67.0506 34.5901V35.3935C67.0506 37.5361 68.1004 38.8858 69.793 38.8858ZM82.4288 40.8462C80.9611 40.8462 79.847 40.1499 79.2471 39.1108H79.1614V44.4457H76.7832V29.3624H79.0972V31.0228H79.1829C79.8042 29.9408 80.9611 29.2124 82.4823 29.2124C85.0212 29.2124 86.8316 31.1299 86.8316 34.5151V35.5221C86.8316 38.8858 85.0426 40.8462 82.4288 40.8462ZM81.8824 38.8858C83.3929 38.8858 84.4213 37.6753 84.4213 35.3935V34.6008C84.4213 32.4047 83.4572 31.1514 81.8396 31.1514C80.1791 31.1514 79.14 32.5011 79.14 34.5901V35.3935C79.14 37.5361 80.1898 38.8858 81.8824 38.8858ZM91.7599 36.6255H94.1381C94.2452 37.8896 95.3594 38.9715 97.4269 38.9715C99.323 38.9715 100.448 38.0824 100.448 36.7005C100.448 35.5864 99.6979 34.9865 98.1339 34.6115L95.7343 34.0116C93.8489 33.5724 92.1563 32.4476 92.1563 30.0694C92.1563 27.2734 94.5988 25.7415 97.4376 25.7415C100.276 25.7415 102.644 27.2734 102.697 30.0051H100.362C100.255 28.7625 99.3016 27.7341 97.4055 27.7341C95.7343 27.7341 94.5988 28.5268 94.5988 29.8873C94.5988 30.8407 95.2629 31.5263 96.6234 31.837L99.0123 32.4262C101.208 32.9618 102.88 34.0009 102.88 36.4862C102.88 39.3572 100.555 40.9748 97.2448 40.9748C93.174 40.9748 91.8135 38.5966 91.7599 36.6255ZM105.778 29.3624V26.6092H108.113V29.3624H110.32V31.2692H108.113V37.3111C108.113 38.543 108.574 38.8858 109.848 38.8858C110.052 38.8858 110.245 38.8858 110.384 38.8644V40.6855C110.191 40.7177 109.741 40.7605 109.259 40.7605C106.506 40.7605 105.745 39.775 105.745 37.5039V31.2692H104.181V29.3624H105.778ZM116.742 29.1695C119.999 29.1695 121.766 31.462 121.766 34.5472V35.4578C121.766 38.6502 120.009 40.8784 116.742 40.8784C113.475 40.8784 111.697 38.6502 111.697 35.4578V34.5472C111.697 31.4727 113.486 29.1695 116.742 29.1695ZM116.742 31.0764C114.975 31.0764 114.096 32.5226 114.096 34.5794V35.4471C114.096 37.4718 114.964 38.9608 116.742 38.9608C118.52 38.9608 119.377 37.4825 119.377 35.4471V34.5794C119.377 32.5119 118.51 31.0764 116.742 31.0764ZM123.775 40.6855V29.3624H126.153V30.8514H126.239C126.528 30.1444 127.375 29.2017 128.949 29.2017C129.26 29.2017 129.528 29.2231 129.753 29.266V31.3656C129.549 31.3121 129.131 31.2799 128.735 31.2799C126.828 31.2799 126.186 32.4583 126.186 33.9795V40.6855H123.775ZM135.522 40.8784C132.49 40.8784 130.562 38.8751 130.562 35.5221V34.3758C130.562 31.2156 132.447 29.1695 135.425 29.1695C138.446 29.1695 140.267 31.2906 140.267 34.483V35.5649H132.908V35.8328C132.908 37.7396 133.936 39.0037 135.554 39.0037C136.764 39.0037 137.589 38.4038 137.879 37.4289H140.139C139.796 39.2608 138.318 40.8784 135.522 40.8784ZM132.908 33.9045H137.943V33.8831C137.943 32.2762 136.947 31.0121 135.436 31.0121C133.904 31.0121 132.908 32.2762 132.908 33.8831V33.9045Z" fill="#000822"/>
</svg>
