<svg width="38" height="47" viewBox="0 0 38 47" fill="none" xmlns="http://www.w3.org/2000/svg">
<path d="M12.0659 31.0176L7.23711 31.0176L5.35423 34.0509C5.14567 34.3869 5.03516 34.7744 5.03516 35.1699V41.1867C5.03516 41.7727 5.51013 42.2476 6.09605 42.2476L36.0485 42.2476C36.6344 42.2476 37.1094 41.7726 37.1094 41.1867V35.1655C37.1094 34.7728 37.0004 34.3878 36.7945 34.0534L34.9261 31.0176L30.7926 31.0176H12.0659Z" fill="#000822"/>
<rect x="6.63281" y="38.2422" width="7.19005" height="8.01042" rx="1.59134" fill="#000822"/>
<rect x="28.3555" y="38.2422" width="7.19005" height="8.01042" rx="1.59134" fill="#000822"/>
<path d="M10.2956 24.1293C10.6794 23.269 11.5334 22.7148 12.4755 22.7148H29.546C30.4736 22.7148 31.3171 23.2522 31.7092 24.0928L34.9393 31.0173H7.22266L10.2956 24.1293Z" fill="#000822"/>
<path d="M16 39H26" stroke="#0388FF" stroke-width="0.795671" stroke-linecap="round"/>
<path d="M17 37H25" stroke="#0388FF" stroke-width="0.795671" stroke-linecap="round"/>
<path d="M8.17969 34.4209C8.17969 34.2154 8.38283 34.0717 8.57657 34.1401L13.8013 35.984C13.9204 36.026 14 36.1385 14 36.2648V37.7957C14 37.9602 13.8667 38.0935 13.7022 38.0935H8.47747C8.31301 38.0935 8.17969 37.9602 8.17969 37.7957V34.4209Z" fill="#0388FF"/>
<path d="M33.8203 34.4209C33.8203 34.2154 33.6172 34.0717 33.4234 34.1401L28.1987 35.984C28.0796 36.026 28 36.1385 28 36.2648V37.7957C28 37.9602 28.1333 38.0935 28.2978 38.0935H33.5225C33.687 38.0935 33.8203 37.9602 33.8203 37.7957V34.4209Z" fill="#0388FF"/>
<rect width="24" height="46" fill="url(#paint0_linear_218_359)" fill-opacity="0.74"/>
<defs>
<linearGradient id="paint0_linear_218_359" x1="12" y1="0" x2="12" y2="46" gradientUnits="userSpaceOnUse">
<stop stop-color="#0388FF" stop-opacity="0"/>
<stop offset="1" stop-color="#0388FF"/>
</linearGradient>
</defs>
</svg>
