<svg width="162" height="99" viewBox="0 0 162 99" fill="none" xmlns="http://www.w3.org/2000/svg">
<rect y="16.9531" width="66.8323" height="69.0512" fill="url(#paint0_linear_1_1966)" fill-opacity="0.48"/>
<path d="M17.0664 72.0539V82.7058C17.0664 84.5275 18.5432 86.0043 20.365 86.0043H151.572C153.393 86.0043 154.87 84.5275 154.87 82.7058V68.7249C154.87 65.9918 152.953 63.6334 150.278 63.0744L133.982 59.6695C132.791 59.4207 131.734 58.742 131.012 57.7631L119.836 42.6101C118.903 41.3455 117.425 40.5991 115.854 40.5991H66.0811C64.7035 40.5991 63.3883 41.1734 62.452 42.1838L47.5469 58.2672C46.931 58.9318 46.1445 59.4144 45.2731 59.6626L21.2578 66.5021C18.7773 67.2086 17.0664 69.4747 17.0664 72.0539Z" fill="#049CFF"/>
<ellipse cx="54.6071" cy="86.0046" rx="12.2265" ry="12.9953" fill="#049CFF"/>
<ellipse cx="123.49" cy="86.0046" rx="12.2265" ry="12.9953" fill="#049CFF"/>
<path d="M122.544 3.09468L106.115 10.7538C100.58 13.3338 97.0425 18.8867 97.0425 24.9927V47.0857C97.0425 51.9908 99.3335 56.6144 103.236 59.5857L118.945 71.545C124.428 75.719 131.991 75.8331 137.597 71.8263L154.746 59.5696C158.872 56.6204 161.321 51.8604 161.321 46.7883V24.9927C161.321 18.8867 157.783 13.3338 152.249 10.7538L135.82 3.09469C131.612 1.13292 126.752 1.13292 122.544 3.09468Z" fill="url(#paint1_linear_1_1966)"/>
<path d="M122.544 3.09468L106.115 10.7538C100.58 13.3338 97.0425 18.8867 97.0425 24.9927V47.0857C97.0425 51.9908 99.3335 56.6144 103.236 59.5857L118.945 71.545C124.428 75.719 131.991 75.8331 137.597 71.8263L154.746 59.5696C158.872 56.6204 161.321 51.8604 161.321 46.7883V24.9927C161.321 18.8867 157.783 13.3338 152.249 10.7538L135.82 3.09469C131.612 1.13292 126.752 1.13292 122.544 3.09468Z" fill="url(#paint2_linear_1_1966)"/>
<path d="M118.609 35.7747L124.6 43.9872C126.028 45.9451 128.963 45.904 130.336 43.9067L143.126 25.2988" stroke="#000822" stroke-width="5.77247" stroke-linecap="round"/>
<defs>
<linearGradient id="paint0_linear_1_1966" x1="33.4161" y1="16.9531" x2="33.4161" y2="86.0043" gradientUnits="userSpaceOnUse">
<stop stop-color="#0388FF" stop-opacity="0"/>
<stop offset="1" stop-color="#0168FF"/>
</linearGradient>
<linearGradient id="paint1_linear_1_1966" x1="74.9293" y1="67.6697" x2="143.376" y2="39.3595" gradientUnits="userSpaceOnUse">
<stop stop-color="white" stop-opacity="0.3"/>
<stop offset="1" stop-color="#0388FF"/>
</linearGradient>
<linearGradient id="paint2_linear_1_1966" x1="74.9293" y1="67.6697" x2="143.376" y2="39.3595" gradientUnits="userSpaceOnUse">
<stop stop-color="white" stop-opacity="0.3"/>
<stop offset="1" stop-color="#0388FF"/>
</linearGradient>
</defs>
</svg>
