<svg width="178" height="125" viewBox="0 0 178 125" fill="none" xmlns="http://www.w3.org/2000/svg">
<ellipse cx="22.2228" cy="32.3167" rx="22.2228" ry="22.2068" fill="url(#paint0_linear_1_1263)"/>
<ellipse cx="22.2228" cy="32.3167" rx="22.2228" ry="22.2068" fill="url(#paint1_linear_1_1263)"/>
<path d="M13.5762 33.0334L17.3616 38.2128C18.2785 39.4674 20.1598 39.441 21.0412 38.1611L29.1448 26.3936" stroke="#000822" stroke-width="3.70532" stroke-linecap="round"/>
<rect x="59.4634" width="77.9246" height="124.54" fill="url(#paint2_linear_1_1263)" fill-opacity="0.48"/>
<path d="M32.7839 67.6226L17.6132 67.6226L11.6977 77.1523C11.0425 78.2078 10.6953 79.4255 10.6953 80.6679V99.5711C10.6953 101.412 12.1875 102.904 14.0283 102.904L108.13 102.904C109.971 102.904 111.463 101.412 111.463 99.571V80.6541C111.463 79.4204 111.121 78.2108 110.474 77.1601L104.604 67.6226L91.6177 67.6226H32.7839Z" fill="#000822"/>
<rect x="15.7185" y="90.3208" width="22.589" height="25.1664" rx="4.99952" fill="#000822"/>
<rect x="83.9651" y="90.3208" width="22.589" height="25.1664" rx="4.99952" fill="#000822"/>
<path d="M27.2184 45.9825C28.4243 43.2795 31.1073 41.5386 34.0671 41.5386H87.6976C90.6117 41.5386 93.2619 43.2267 94.4938 45.8676L104.642 67.6225H17.5642L27.2184 45.9825Z" fill="#000822"/>
<path d="M44.7043 92.9331H77.4527" stroke="#0388FF" stroke-width="2.49976" stroke-linecap="round"/>
<rect x="20.5674" y="80.3032" width="12.8918" height="6.40737" rx="0.935552" fill="#0388FF"/>
<rect x="88.814" y="80.3032" width="12.8918" height="6.40737" rx="0.935552" fill="#0388FF"/>
<rect width="89.0567" height="25.916" transform="translate(88.6846 20.4321)" fill="url(#paint3_linear_1_1263)"/>
<path d="M130.91 35.9136V35.0616H131.012C131.165 35.0616 131.296 35.0051 131.404 34.892C131.515 34.7789 131.57 34.6482 131.57 34.5V31.8236C131.57 31.5471 131.638 31.2996 131.774 31.081C131.912 30.8598 132.097 30.6864 132.328 30.5607C132.561 30.4351 132.822 30.3723 133.108 30.3723C133.369 30.3723 133.597 30.4313 133.79 30.5494C133.984 30.665 134.15 30.8271 134.288 31.0357C134.426 31.2418 134.542 31.4793 134.635 31.7482L133.821 32.0158C133.748 31.7695 133.656 31.5773 133.545 31.4391C133.435 31.2983 133.288 31.228 133.104 31.228C132.921 31.228 132.773 31.2883 132.659 31.4089C132.549 31.527 132.494 31.6803 132.494 31.8688L132.49 35.0616H134.28V35.9136H130.91ZM130.91 33.6179V32.7622H133.636V33.6179H130.91ZM137.31 36.0154C137.038 36.0154 136.782 35.9626 136.541 35.857C136.299 35.7515 136.089 35.602 135.911 35.4084C135.735 35.2149 135.608 34.9863 135.53 34.7224L136.409 34.4849C136.471 34.701 136.586 34.8681 136.752 34.9863C136.92 35.1019 137.105 35.1584 137.306 35.1559C137.484 35.1559 137.644 35.1144 137.785 35.0315C137.925 34.9486 138.036 34.8367 138.116 34.696C138.197 34.5528 138.237 34.3932 138.237 34.2173C138.237 33.9484 138.15 33.7234 137.977 33.5425C137.803 33.3616 137.58 33.2711 137.306 33.2711C137.223 33.2711 137.141 33.2824 137.061 33.305C136.983 33.3276 136.907 33.359 136.835 33.3993L136.42 32.683L138.244 31.1224L138.324 31.3411H135.741V30.4854H139.07V31.3448L137.604 32.7547L137.596 32.487C137.925 32.5096 138.205 32.6014 138.437 32.7622C138.67 32.923 138.849 33.1304 138.972 33.3842C139.098 33.638 139.16 33.9157 139.16 34.2173C139.16 34.559 139.076 34.8656 138.908 35.137C138.742 35.4084 138.518 35.6233 138.237 35.7816C137.958 35.9374 137.649 36.0154 137.31 36.0154ZM142.391 36.0267C142.007 36.0267 141.668 35.945 141.374 35.7816C141.08 35.6158 140.85 35.3858 140.684 35.0918C140.52 34.7978 140.439 34.4585 140.439 34.074V32.3249C140.439 31.9404 140.52 31.6012 140.684 31.3071C140.85 31.0131 141.08 30.7844 141.374 30.6211C141.668 30.4552 142.007 30.3723 142.391 30.3723C142.776 30.3723 143.114 30.4552 143.405 30.6211C143.699 30.7844 143.929 31.0131 144.095 31.3071C144.261 31.6012 144.344 31.9404 144.344 32.3249V34.074C144.344 34.4585 144.261 34.7978 144.095 35.0918C143.929 35.3858 143.699 35.6158 143.405 35.7816C143.114 35.945 142.776 36.0267 142.391 36.0267ZM142.391 35.1634C142.582 35.1634 142.756 35.1182 142.912 35.0277C143.067 34.9347 143.191 34.8116 143.281 34.6583C143.371 34.5025 143.417 34.3291 143.417 34.1381V32.2571C143.417 32.0636 143.371 31.8902 143.281 31.7369C143.191 31.5811 143.067 31.4579 142.912 31.3674C142.756 31.2745 142.582 31.228 142.391 31.228C142.2 31.228 142.027 31.2745 141.871 31.3674C141.715 31.4579 141.592 31.5811 141.502 31.7369C141.411 31.8902 141.366 32.0636 141.366 32.2571V34.1381C141.366 34.3291 141.411 34.5025 141.502 34.6583C141.592 34.8116 141.715 34.9347 141.871 35.0277C142.027 35.1182 142.2 35.1634 142.391 35.1634ZM147.655 36.0267C147.271 36.0267 146.932 35.945 146.637 35.7816C146.343 35.6158 146.114 35.3858 145.948 35.0918C145.784 34.7978 145.703 34.4585 145.703 34.074V32.3249C145.703 31.9404 145.784 31.6012 145.948 31.3071C146.114 31.0131 146.343 30.7844 146.637 30.6211C146.932 30.4552 147.271 30.3723 147.655 30.3723C148.04 30.3723 148.378 30.4552 148.669 30.6211C148.963 30.7844 149.193 31.0131 149.359 31.3071C149.525 31.6012 149.608 31.9404 149.608 32.3249V34.074C149.608 34.4585 149.525 34.7978 149.359 35.0918C149.193 35.3858 148.963 35.6158 148.669 35.7816C148.378 35.945 148.04 36.0267 147.655 36.0267ZM147.655 35.1634C147.846 35.1634 148.02 35.1182 148.175 35.0277C148.331 34.9347 148.454 34.8116 148.545 34.6583C148.635 34.5025 148.681 34.3291 148.681 34.1381V32.2571C148.681 32.0636 148.635 31.8902 148.545 31.7369C148.454 31.5811 148.331 31.4579 148.175 31.3674C148.02 31.2745 147.846 31.228 147.655 31.228C147.464 31.228 147.291 31.2745 147.135 31.3674C146.979 31.4579 146.856 31.5811 146.766 31.7369C146.675 31.8902 146.63 32.0636 146.63 32.2571V34.1381C146.63 34.3291 146.675 34.5025 146.766 34.6583C146.856 34.8116 146.979 34.9347 147.135 35.0277C147.291 35.1182 147.464 35.1634 147.655 35.1634ZM150.891 36.8748L150.944 36.4828C151.059 36.4928 151.151 36.4727 151.219 36.4225C151.287 36.3747 151.332 36.3056 151.355 36.2151C151.38 36.1272 151.386 36.0267 151.374 35.9136H150.891V34.9448H151.822V35.9513C151.822 36.2805 151.744 36.5293 151.588 36.6977C151.433 36.866 151.2 36.9251 150.891 36.8748ZM155.51 36.0267C155.126 36.0267 154.787 35.945 154.493 35.7816C154.199 35.6158 153.969 35.3858 153.803 35.0918C153.639 34.7978 153.558 34.4585 153.558 34.074V32.3249C153.558 31.9404 153.639 31.6012 153.803 31.3071C153.969 31.0131 154.199 30.7844 154.493 30.6211C154.787 30.4552 155.126 30.3723 155.51 30.3723C155.895 30.3723 156.233 30.4552 156.524 30.6211C156.819 30.7844 157.048 31.0131 157.214 31.3071C157.38 31.6012 157.463 31.9404 157.463 32.3249V34.074C157.463 34.4585 157.38 34.7978 157.214 35.0918C157.048 35.3858 156.819 35.6158 156.524 35.7816C156.233 35.945 155.895 36.0267 155.51 36.0267ZM155.51 35.1634C155.701 35.1634 155.875 35.1182 156.031 35.0277C156.186 34.9347 156.31 34.8116 156.4 34.6583C156.491 34.5025 156.536 34.3291 156.536 34.1381V32.2571C156.536 32.0636 156.491 31.8902 156.4 31.7369C156.31 31.5811 156.186 31.4579 156.031 31.3674C155.875 31.2745 155.701 31.228 155.51 31.228C155.319 31.228 155.146 31.2745 154.99 31.3674C154.834 31.4579 154.711 31.5811 154.621 31.7369C154.53 31.8902 154.485 32.0636 154.485 32.2571V34.1381C154.485 34.3291 154.53 34.5025 154.621 34.6583C154.711 34.8116 154.834 34.9347 154.99 35.0277C155.146 35.1182 155.319 35.1634 155.51 35.1634ZM160.774 36.0267C160.39 36.0267 160.051 35.945 159.757 35.7816C159.463 35.6158 159.233 35.3858 159.067 35.0918C158.903 34.7978 158.822 34.4585 158.822 34.074V32.3249C158.822 31.9404 158.903 31.6012 159.067 31.3071C159.233 31.0131 159.463 30.7844 159.757 30.6211C160.051 30.4552 160.39 30.3723 160.774 30.3723C161.159 30.3723 161.497 30.4552 161.788 30.6211C162.082 30.7844 162.312 31.0131 162.478 31.3071C162.644 31.6012 162.727 31.9404 162.727 32.3249V34.074C162.727 34.4585 162.644 34.7978 162.478 35.0918C162.312 35.3858 162.082 35.6158 161.788 35.7816C161.497 35.945 161.159 36.0267 160.774 36.0267ZM160.774 35.1634C160.965 35.1634 161.139 35.1182 161.295 35.0277C161.45 34.9347 161.574 34.8116 161.664 34.6583C161.754 34.5025 161.8 34.3291 161.8 34.1381V32.2571C161.8 32.0636 161.754 31.8902 161.664 31.7369C161.574 31.5811 161.45 31.4579 161.295 31.3674C161.139 31.2745 160.965 31.228 160.774 31.228C160.583 31.228 160.41 31.2745 160.254 31.3674C160.098 31.4579 159.975 31.5811 159.885 31.7369C159.794 31.8902 159.749 32.0636 159.749 32.2571V34.1381C159.749 34.3291 159.794 34.5025 159.885 34.6583C159.975 34.8116 160.098 34.9347 160.254 35.0277C160.41 35.1182 160.583 35.1634 160.774 35.1634ZM166.038 36.0267C165.654 36.0267 165.314 35.945 165.02 35.7816C164.726 35.6158 164.496 35.3858 164.331 35.0918C164.167 34.7978 164.086 34.4585 164.086 34.074V32.3249C164.086 31.9404 164.167 31.6012 164.331 31.3071C164.496 31.0131 164.726 30.7844 165.02 30.6211C165.314 30.4552 165.654 30.3723 166.038 30.3723C166.423 30.3723 166.761 30.4552 167.052 30.6211C167.346 30.7844 167.576 31.0131 167.742 31.3071C167.908 31.6012 167.991 31.9404 167.991 32.3249V34.074C167.991 34.4585 167.908 34.7978 167.742 35.0918C167.576 35.3858 167.346 35.6158 167.052 35.7816C166.761 35.945 166.423 36.0267 166.038 36.0267ZM166.038 35.1634C166.229 35.1634 166.403 35.1182 166.558 35.0277C166.714 34.9347 166.837 34.8116 166.928 34.6583C167.018 34.5025 167.064 34.3291 167.064 34.1381V32.2571C167.064 32.0636 167.018 31.8902 166.928 31.7369C166.837 31.5811 166.714 31.4579 166.558 31.3674C166.403 31.2745 166.229 31.228 166.038 31.228C165.847 31.228 165.674 31.2745 165.518 31.3674C165.362 31.4579 165.239 31.5811 165.149 31.7369C165.058 31.8902 165.013 32.0636 165.013 32.2571V34.1381C165.013 34.3291 165.058 34.5025 165.149 34.6583C165.239 34.8116 165.362 34.9347 165.518 35.0277C165.674 35.1182 165.847 35.1634 166.038 35.1634Z" fill="#000822"/>
<circle cx="101.876" cy="33.6251" r="6.12559" fill="#000822"/>
<path d="M99.5232 33.626H104.235" stroke="#0388FF" stroke-width="1.4136" stroke-linecap="round"/>
<rect width="89.0567" height="25.916" transform="translate(88.6846 51.5317)" fill="url(#paint4_linear_1_1263)"/>
<path d="M130.91 67.0132V66.1613H131.012C131.165 66.1613 131.296 66.1047 131.404 65.9916C131.515 65.8785 131.57 65.7479 131.57 65.5996V62.9232C131.57 62.6467 131.638 62.3992 131.774 62.1806C131.912 61.9594 132.097 61.786 132.328 61.6604C132.561 61.5347 132.822 61.4719 133.108 61.4719C133.369 61.4719 133.597 61.5309 133.79 61.649C133.984 61.7646 134.15 61.9267 134.288 62.1353C134.426 62.3414 134.542 62.5789 134.635 62.8478L133.821 63.1154C133.748 62.8691 133.656 62.6769 133.545 62.5387C133.435 62.3979 133.288 62.3276 133.104 62.3276C132.921 62.3276 132.773 62.3879 132.659 62.5085C132.549 62.6266 132.494 62.7799 132.494 62.9684L132.49 66.1613H134.28V67.0132H130.91ZM130.91 64.7175V63.8618H133.636V64.7175H130.91ZM135.606 67.0056V66.214L137.928 64.1445C138.109 63.9837 138.234 63.8316 138.305 63.6884C138.375 63.5452 138.41 63.4069 138.41 63.2737C138.41 63.0928 138.371 62.932 138.293 62.7912C138.216 62.648 138.107 62.5349 137.969 62.452C137.834 62.369 137.676 62.3276 137.498 62.3276C137.31 62.3276 137.142 62.3716 136.997 62.4595C136.853 62.545 136.742 62.6593 136.661 62.8025C136.581 62.9458 136.543 63.1003 136.548 63.2662H135.613C135.613 62.9043 135.694 62.5889 135.854 62.32C136.018 62.0511 136.242 61.8426 136.525 61.6943C136.812 61.546 137.142 61.4719 137.517 61.4719C137.864 61.4719 138.175 61.5498 138.452 61.7056C138.728 61.8589 138.946 62.0725 139.104 62.3464C139.262 62.6178 139.341 62.9307 139.341 63.2851C139.341 63.5439 139.306 63.7613 139.236 63.9372C139.165 64.1131 139.06 64.2752 138.919 64.4235C138.781 64.5717 138.609 64.7363 138.403 64.9173L136.755 66.3761L136.672 66.1499H139.341V67.0056H135.606ZM142.502 67.1263C142.117 67.1263 141.778 67.0446 141.484 66.8812C141.19 66.7154 140.96 66.4854 140.794 66.1914C140.631 65.8974 140.549 65.5581 140.549 65.1736V63.4245C140.549 63.04 140.631 62.7008 140.794 62.4067C140.96 62.1127 141.19 61.884 141.484 61.7207C141.778 61.5548 142.117 61.4719 142.502 61.4719C142.886 61.4719 143.224 61.5548 143.516 61.7207C143.81 61.884 144.04 62.1127 144.206 62.4067C144.372 62.7008 144.454 63.04 144.454 63.4245V65.1736C144.454 65.5581 144.372 65.8974 144.206 66.1914C144.04 66.4854 143.81 66.7154 143.516 66.8812C143.224 67.0446 142.886 67.1263 142.502 67.1263ZM142.502 66.263C142.693 66.263 142.866 66.2178 143.022 66.1273C143.178 66.0343 143.301 65.9112 143.391 65.7579C143.482 65.6021 143.527 65.4287 143.527 65.2377V63.3567C143.527 63.1632 143.482 62.9898 143.391 62.8365C143.301 62.6807 143.178 62.5575 143.022 62.4671C142.866 62.3741 142.693 62.3276 142.502 62.3276C142.311 62.3276 142.137 62.3741 141.982 62.4671C141.826 62.5575 141.703 62.6807 141.612 62.8365C141.522 62.9898 141.476 63.1632 141.476 63.3567V65.2377C141.476 65.4287 141.522 65.6021 141.612 65.7579C141.703 65.9112 141.826 66.0343 141.982 66.1273C142.137 66.2178 142.311 66.263 142.502 66.263ZM147.766 67.1263C147.381 67.1263 147.042 67.0446 146.748 66.8812C146.454 66.7154 146.224 66.4854 146.058 66.1914C145.895 65.8974 145.813 65.5581 145.813 65.1736V63.4245C145.813 63.04 145.895 62.7008 146.058 62.4067C146.224 62.1127 146.454 61.884 146.748 61.7207C147.042 61.5548 147.381 61.4719 147.766 61.4719C148.15 61.4719 148.488 61.5548 148.78 61.7207C149.074 61.884 149.304 62.1127 149.47 62.4067C149.635 62.7008 149.718 63.04 149.718 63.4245V65.1736C149.718 65.5581 149.635 65.8974 149.47 66.1914C149.304 66.4854 149.074 66.7154 148.78 66.8812C148.488 67.0446 148.15 67.1263 147.766 67.1263ZM147.766 66.263C147.957 66.263 148.13 66.2178 148.286 66.1273C148.442 66.0343 148.565 65.9112 148.655 65.7579C148.746 65.6021 148.791 65.4287 148.791 65.2377V63.3567C148.791 63.1632 148.746 62.9898 148.655 62.8365C148.565 62.6807 148.442 62.5575 148.286 62.4671C148.13 62.3741 147.957 62.3276 147.766 62.3276C147.575 62.3276 147.401 62.3741 147.246 62.4671C147.09 62.5575 146.967 62.6807 146.876 62.8365C146.786 62.9898 146.74 63.1632 146.74 63.3567V65.2377C146.74 65.4287 146.786 65.6021 146.876 65.7579C146.967 65.9112 147.09 66.0343 147.246 66.1273C147.401 66.2178 147.575 66.263 147.766 66.263ZM151.002 67.9744L151.054 67.5824C151.17 67.5924 151.262 67.5723 151.33 67.5221C151.397 67.4743 151.443 67.4052 151.465 67.3148C151.49 67.2268 151.497 67.1263 151.484 67.0132H151.002V66.0444H151.933V67.0509C151.933 67.3801 151.855 67.6289 151.699 67.7973C151.543 67.9656 151.311 68.0247 151.002 67.9744ZM155.621 67.1263C155.236 67.1263 154.897 67.0446 154.603 66.8812C154.309 66.7154 154.079 66.4854 153.913 66.1914C153.75 65.8974 153.668 65.5581 153.668 65.1736V63.4245C153.668 63.04 153.75 62.7008 153.913 62.4067C154.079 62.1127 154.309 61.884 154.603 61.7207C154.897 61.5548 155.236 61.4719 155.621 61.4719C156.005 61.4719 156.343 61.5548 156.635 61.7207C156.929 61.884 157.159 62.1127 157.325 62.4067C157.491 62.7008 157.574 63.04 157.574 63.4245V65.1736C157.574 65.5581 157.491 65.8974 157.325 66.1914C157.159 66.4854 156.929 66.7154 156.635 66.8812C156.343 67.0446 156.005 67.1263 155.621 67.1263ZM155.621 66.263C155.812 66.263 155.985 66.2178 156.141 66.1273C156.297 66.0343 156.42 65.9112 156.511 65.7579C156.601 65.6021 156.646 65.4287 156.646 65.2377V63.3567C156.646 63.1632 156.601 62.9898 156.511 62.8365C156.42 62.6807 156.297 62.5575 156.141 62.4671C155.985 62.3741 155.812 62.3276 155.621 62.3276C155.43 62.3276 155.257 62.3741 155.101 62.4671C154.945 62.5575 154.822 62.6807 154.731 62.8365C154.641 62.9898 154.596 63.1632 154.596 63.3567V65.2377C154.596 65.4287 154.641 65.6021 154.731 65.7579C154.822 65.9112 154.945 66.0343 155.101 66.1273C155.257 66.2178 155.43 66.263 155.621 66.263ZM160.885 67.1263C160.5 67.1263 160.161 67.0446 159.867 66.8812C159.573 66.7154 159.343 66.4854 159.177 66.1914C159.014 65.8974 158.932 65.5581 158.932 65.1736V63.4245C158.932 63.04 159.014 62.7008 159.177 62.4067C159.343 62.1127 159.573 61.884 159.867 61.7207C160.161 61.5548 160.5 61.4719 160.885 61.4719C161.269 61.4719 161.607 61.5548 161.899 61.7207C162.193 61.884 162.423 62.1127 162.589 62.4067C162.755 62.7008 162.837 63.04 162.837 63.4245V65.1736C162.837 65.5581 162.755 65.8974 162.589 66.1914C162.423 66.4854 162.193 66.7154 161.899 66.8812C161.607 67.0446 161.269 67.1263 160.885 67.1263ZM160.885 66.263C161.076 66.263 161.249 66.2178 161.405 66.1273C161.561 66.0343 161.684 65.9112 161.774 65.7579C161.865 65.6021 161.91 65.4287 161.91 65.2377V63.3567C161.91 63.1632 161.865 62.9898 161.774 62.8365C161.684 62.6807 161.561 62.5575 161.405 62.4671C161.249 62.3741 161.076 62.3276 160.885 62.3276C160.694 62.3276 160.52 62.3741 160.365 62.4671C160.209 62.5575 160.086 62.6807 159.995 62.8365C159.905 62.9898 159.859 63.1632 159.859 63.3567V65.2377C159.859 65.4287 159.905 65.6021 159.995 65.7579C160.086 65.9112 160.209 66.0343 160.365 66.1273C160.52 66.2178 160.694 66.263 160.885 66.263ZM166.149 67.1263C165.764 67.1263 165.425 67.0446 165.131 66.8812C164.837 66.7154 164.607 66.4854 164.441 66.1914C164.278 65.8974 164.196 65.5581 164.196 65.1736V63.4245C164.196 63.04 164.278 62.7008 164.441 62.4067C164.607 62.1127 164.837 61.884 165.131 61.7207C165.425 61.5548 165.764 61.4719 166.149 61.4719C166.533 61.4719 166.871 61.5548 167.163 61.7207C167.457 61.884 167.687 62.1127 167.853 62.4067C168.018 62.7008 168.101 63.04 168.101 63.4245V65.1736C168.101 65.5581 168.018 65.8974 167.853 66.1914C167.687 66.4854 167.457 66.7154 167.163 66.8812C166.871 67.0446 166.533 67.1263 166.149 67.1263ZM166.149 66.263C166.34 66.263 166.513 66.2178 166.669 66.1273C166.825 66.0343 166.948 65.9112 167.038 65.7579C167.129 65.6021 167.174 65.4287 167.174 65.2377V63.3567C167.174 63.1632 167.129 62.9898 167.038 62.8365C166.948 62.6807 166.825 62.5575 166.669 62.4671C166.513 62.3741 166.34 62.3276 166.149 62.3276C165.958 62.3276 165.784 62.3741 165.628 62.4671C165.473 62.5575 165.35 62.6807 165.259 62.8365C165.169 62.9898 165.123 63.1632 165.123 63.3567V65.2377C165.123 65.4287 165.169 65.6021 165.259 65.7579C165.35 65.9112 165.473 66.0343 165.628 66.1273C165.784 66.2178 165.958 66.263 166.149 66.263Z" fill="#000822"/>
<circle cx="101.876" cy="64.7252" r="6.12559" fill="#000822"/>
<path d="M99.5232 64.7251H104.235" stroke="#0388FF" stroke-width="1.4136" stroke-linecap="round"/>
<defs>
<linearGradient id="paint0_linear_1_1263" x1="-15.2903" y1="48.3639" x2="28.8394" y2="26.0383" gradientUnits="userSpaceOnUse">
<stop stop-color="white" stop-opacity="0.3"/>
<stop offset="1" stop-color="#0388FF"/>
</linearGradient>
<linearGradient id="paint1_linear_1_1263" x1="-15.2903" y1="48.3639" x2="28.8394" y2="26.0383" gradientUnits="userSpaceOnUse">
<stop stop-color="white" stop-opacity="0.3"/>
<stop offset="1" stop-color="#0388FF"/>
</linearGradient>
<linearGradient id="paint2_linear_1_1263" x1="98.4257" y1="0" x2="98.4257" y2="124.54" gradientUnits="userSpaceOnUse">
<stop stop-color="#0388FF" stop-opacity="0"/>
<stop offset="1" stop-color="#0388FF"/>
</linearGradient>
<linearGradient id="paint3_linear_1_1263" x1="-29.8491" y1="26.3798" x2="94.4121" y2="-12.4523" gradientUnits="userSpaceOnUse">
<stop stop-color="white"/>
<stop offset="1" stop-color="#0388FF"/>
</linearGradient>
<linearGradient id="paint4_linear_1_1263" x1="-29.8491" y1="26.3798" x2="94.4121" y2="-12.4523" gradientUnits="userSpaceOnUse">
<stop stop-color="white"/>
<stop offset="1" stop-color="#0388FF"/>
</linearGradient>
</defs>
</svg>
