<svg width="154" height="82" viewBox="0 0 154 82" fill="none" xmlns="http://www.w3.org/2000/svg">
<rect x="0.332031" y="0.112427" width="66.252" height="68.4517" fill="url(#paint0_linear_1_8698)" fill-opacity="0.48"/>
<path d="M17.25 55.3608V64.8206C17.25 66.8881 18.9261 68.5642 20.9937 68.5642H150.114C152.181 68.5642 153.857 66.8881 153.857 64.8206V52.1085C153.857 49.0067 151.682 46.33 148.646 45.6956L133.416 42.5135C132.064 42.2312 130.864 41.4609 130.045 40.3499L119.34 25.8356C118.281 24.4003 116.604 23.5532 114.821 23.5532H66.1494C64.586 23.5532 63.0933 24.205 62.0307 25.3517L47.6011 40.922C46.9021 41.6762 46.0094 42.224 45.0205 42.5057L22.0069 49.0599C19.1917 49.8617 17.25 52.4336 17.25 55.3608Z" fill="#049CFF"/>
<ellipse cx="54.4641" cy="68.5643" rx="12.1203" ry="12.8825" fill="#049CFF"/>
<ellipse cx="122.747" cy="68.5643" rx="12.1203" ry="12.8825" fill="#049CFF"/>
<defs>
<linearGradient id="paint0_linear_1_8698" x1="33.458" y1="0.112427" x2="33.458" y2="68.5642" gradientUnits="userSpaceOnUse">
<stop stop-color="#0388FF" stop-opacity="0"/>
<stop offset="1" stop-color="#0168FF"/>
</linearGradient>
</defs>
</svg>
