<svg width="97" height="94" viewBox="0 0 97 94" fill="none" xmlns="http://www.w3.org/2000/svg">
<rect y="19.3838" width="49" height="74" fill="url(#paint0_linear_93_629)" fill-opacity="0.74"/>
<rect x="49" y="0.383789" width="48" height="93" fill="url(#paint1_linear_93_629)" fill-opacity="0.74"/>
<rect x="11.6523" y="72.8682" width="17.0917" height="20.3984" rx="3.78284" fill="#000822"/>
<rect x="70.0566" y="72.8682" width="17.0917" height="20.3984" rx="3.78284" fill="#000822"/>
<path d="M27.965 58.5713L20.7854 58.5713L18.1444 61.0737C13.7443 65.2429 11.252 71.0379 11.252 77.0995V84.6465C11.252 86.0393 12.381 87.1684 13.7738 87.1684L84.9749 87.1684C86.3677 87.1684 87.4968 86.0393 87.4968 84.6465V77.0841C87.4968 71.0315 85.0118 65.2443 80.6231 61.0761L77.9858 58.5713L72.481 58.5713H27.965Z" fill="#000822"/>
<path d="M31.9224 74.1903C28.3101 69.6671 20.9506 68.972 17.7728 69.0723C16.6558 69.8812 15.9971 70.8231 15.6095 71.6767C14.9932 73.0341 16.1621 74.2824 17.6455 74.43C23.9944 75.0618 32.8858 76.11 31.9224 74.1903Z" fill="#0388FF"/>
<path d="M65.5112 74.1903C69.1235 69.6671 76.483 68.972 79.6608 69.0723C80.7778 69.8812 81.4365 70.8231 81.8241 71.6767C82.4404 73.0341 81.2715 74.2824 79.788 74.43C73.4392 75.0618 64.5478 76.11 65.5112 74.1903Z" fill="#0388FF"/>
<path d="M26.8807 49.0003C27.9235 47.3701 29.7253 46.3838 31.6606 46.3838L66.8075 46.3838C68.7017 46.3838 70.4709 47.3289 71.524 48.9033L78.0276 58.6267H20.7227L26.8807 49.0003Z" fill="#000822"/>
<path d="M36.9844 80.6104H61.7631" stroke="#0388FF" stroke-width="1.89142" stroke-linecap="round"/>
<defs>
<linearGradient id="paint0_linear_93_629" x1="24.5" y1="19.3838" x2="24.5" y2="93.3838" gradientUnits="userSpaceOnUse">
<stop stop-color="#0388FF" stop-opacity="0"/>
<stop offset="1" stop-color="#0388FF"/>
</linearGradient>
<linearGradient id="paint1_linear_93_629" x1="73" y1="0.383789" x2="73" y2="93.3838" gradientUnits="userSpaceOnUse">
<stop stop-color="#0388FF" stop-opacity="0"/>
<stop offset="1" stop-color="#0388FF"/>
</linearGradient>
</defs>
</svg>
