<svg width="156" height="88" viewBox="0 0 156 88" fill="none" xmlns="http://www.w3.org/2000/svg">
<rect y="87.9998" width="29.3333" height="116.276" transform="rotate(-90 0 87.9998)" fill="url(#paint0_linear_1_5762)"/>
<rect x="39.2012" y="29.3332" width="29.3333" height="77.0752" transform="rotate(-90 39.2012 29.3332)" fill="url(#paint1_linear_1_5762)"/>
<rect x="15.8027" y="58.6665" width="29.3333" height="76.2533" transform="rotate(-90 15.8027 58.6665)" fill="url(#paint2_linear_1_5762)"/>
<path d="M116.282 0L155.353 18.6044L116.282 38.3783L77.2363 18.6055L116.282 0Z" fill="#000822"/>
<path d="M77.2168 68.1936V18.5881L116.276 38.3692V87.9999L77.2168 68.1936Z" fill="#000822"/>
<path d="M155.334 68.2455V18.5881L116.276 38.3692V87.9979L155.334 68.2455Z" fill="#000822"/>
<path d="M141.327 26.3817L102.511 6.57764L89.3742 12.831L129.713 32.5977V48.329L141.327 41.9172V26.3817Z" fill="#0388FF"/>
<path d="M107.36 73.0029L86.1328 62.7687" stroke="#0388FF" stroke-width="4.0897" stroke-linecap="round"/>
<defs>
<linearGradient id="paint0_linear_1_5762" x1="14.6667" y1="87.9998" x2="14.6667" y2="204.276" gradientUnits="userSpaceOnUse">
<stop stop-color="#0388FF" stop-opacity="0"/>
<stop offset="0.6" stop-color="#0388FF"/>
</linearGradient>
<linearGradient id="paint1_linear_1_5762" x1="53.8678" y1="29.3332" x2="53.8678" y2="106.408" gradientUnits="userSpaceOnUse">
<stop stop-color="#0388FF" stop-opacity="0"/>
<stop offset="0.6" stop-color="#0388FF"/>
</linearGradient>
<linearGradient id="paint2_linear_1_5762" x1="30.4694" y1="58.6665" x2="30.4694" y2="111.678" gradientUnits="userSpaceOnUse">
<stop stop-color="#0388FF" stop-opacity="0"/>
<stop offset="1" stop-color="#0388FF"/>
</linearGradient>
</defs>
</svg>
