<svg width="585" height="587" viewBox="0 0 585 587" fill="none" xmlns="http://www.w3.org/2000/svg">
<path d="M476.399 416.229L244.478 520.81V660.251L221.383 637.047L148.767 564.09L108.701 523.836L244.483 462.536L340.518 419.255L538.497 329.894C588.772 307.122 600.909 240.854 561.916 201.678L385.523 24.45C333.53 -27.7879 244.478 9.23011 244.478 83.0558V194.652L0.628817 304.738L0.628817 410.397L96.6639 367.117L314.086 269.119L341.157 256.926V151.05L340.513 151.371V115.648L476.399 252.173L416.135 279.371L416.245 279.587L159.186 395.825L158.971 395.393L46.6089 446.121C44.6761 446.984 42.8479 447.847 41.1298 448.821C17.7103 461.556 3.64093 484.223 0.634323 508.395C-2.26765 531.493 4.71471 555.88 23.0847 574.336L199.577 751.554C251.57 803.791 340.513 766.773 340.513 692.843V583.188L476.399 521.888L585 472.998V367.122L476.399 416.229Z" fill="url(#paint0_linear_1_5043)"/>
<defs>
<linearGradient id="paint0_linear_1_5043" x1="292.5" y1="0" x2="292.5" y2="776" gradientUnits="userSpaceOnUse">
<stop stop-color="#0168FF"/>
<stop offset="1" stop-color="#05AFFF" stop-opacity="0"/>
</linearGradient>
</defs>
</svg>
