<svg width="89" height="95" viewBox="0 0 89 95" fill="none" xmlns="http://www.w3.org/2000/svg">
<rect x="7.28186" y="69.582" width="27.5091" height="25.0818" fill="url(#paint0_linear_1_1024)" fill-opacity="0.48"/>
<rect x="34.7909" y="58.2544" width="26.7" height="36.4091" fill="url(#paint1_linear_1_1024)" fill-opacity="0.48"/>
<rect x="61.491" y="7.47607" width="27.5091" height="87.3818" fill="url(#paint2_linear_1_1024)" fill-opacity="0.48"/>
<path d="M0 7.40186H43.9265L62.0695 22.288V69.4713H0V7.40186Z" fill="#000822"/>
<ellipse cx="48.1863" cy="21.471" rx="21.4864" ry="21.471" fill="url(#paint3_linear_1_1024)"/>
<ellipse cx="48.1863" cy="21.471" rx="21.4864" ry="21.471" fill="url(#paint4_linear_1_1024)"/>
<path d="M39.8264 22.164L43.4864 27.1717C44.373 28.3848 46.1919 28.3593 47.044 27.1218L54.8792 15.7441" stroke="#000822" stroke-width="3.58255" stroke-linecap="round"/>
<defs>
<linearGradient id="paint0_linear_1_1024" x1="21.0364" y1="69.582" x2="21.0364" y2="94.6638" gradientUnits="userSpaceOnUse">
<stop stop-color="#0388FF" stop-opacity="0"/>
<stop offset="1" stop-color="#0388FF"/>
</linearGradient>
<linearGradient id="paint1_linear_1_1024" x1="48.1409" y1="58.2544" x2="48.1409" y2="94.6635" gradientUnits="userSpaceOnUse">
<stop stop-color="#0388FF" stop-opacity="0"/>
<stop offset="1" stop-color="#0388FF"/>
</linearGradient>
<linearGradient id="paint2_linear_1_1024" x1="75.2455" y1="7.47607" x2="75.2455" y2="94.8579" gradientUnits="userSpaceOnUse">
<stop stop-color="#0388FF" stop-opacity="0"/>
<stop offset="1" stop-color="#0388FF"/>
</linearGradient>
<linearGradient id="paint3_linear_1_1024" x1="11.9162" y1="36.9865" x2="54.5837" y2="15.4007" gradientUnits="userSpaceOnUse">
<stop stop-color="white" stop-opacity="0.3"/>
<stop offset="1" stop-color="#0388FF"/>
</linearGradient>
<linearGradient id="paint4_linear_1_1024" x1="11.9162" y1="36.9865" x2="54.5837" y2="15.4007" gradientUnits="userSpaceOnUse">
<stop stop-color="white" stop-opacity="0.3"/>
<stop offset="1" stop-color="#0388FF"/>
</linearGradient>
</defs>
</svg>
