<svg width="154" height="82" viewBox="0 0 154 82" fill="none" xmlns="http://www.w3.org/2000/svg">
<rect x="0.332031" y="0.113281" width="66.252" height="68.4517" fill="url(#paint0_linear_661_18351)" fill-opacity="0.48"/>
<path d="M17.25 55.3622V64.8221C17.25 66.8896 18.9261 68.5657 20.9937 68.5657H150.114C152.181 68.5657 153.857 66.8896 153.857 64.8221V52.11C153.857 49.0082 151.682 46.3314 148.646 45.6971L133.416 42.515C132.064 42.2326 130.864 41.4624 130.045 40.3513L119.34 25.837C118.281 24.4018 116.604 23.5547 114.821 23.5547H66.1494C64.586 23.5547 63.0933 24.2065 62.0307 25.3532L47.6011 40.9235C46.9021 41.6777 46.0094 42.2255 45.0205 42.5072L22.0069 49.0614C19.1917 49.8631 17.25 52.4351 17.25 55.3622Z" fill="#049CFF"/>
<ellipse cx="54.4641" cy="68.5661" rx="12.1203" ry="12.8825" fill="#049CFF"/>
<ellipse cx="122.749" cy="68.5661" rx="12.1203" ry="12.8825" fill="#049CFF"/>
<defs>
<linearGradient id="paint0_linear_661_18351" x1="33.458" y1="0.113281" x2="33.458" y2="68.565" gradientUnits="userSpaceOnUse">
<stop stop-color="#0388FF" stop-opacity="0"/>
<stop offset="1" stop-color="#0168FF"/>
</linearGradient>
</defs>
</svg>
