<svg width="18" height="18" viewBox="0 0 18 18" fill="none" xmlns="http://www.w3.org/2000/svg">
<g clip-path="url(#clip0_1_4779)">
<mask id="mask0_1_4779" style="mask-type:luminance" maskUnits="userSpaceOnUse" x="0" y="0" width="18" height="18">
<path d="M18 0H0V18H18V0Z" fill="white"/>
</mask>
<g mask="url(#mask0_1_4779)">
<path d="M10.2977 2.63297L11.6177 5.27297C11.7977 5.64047 12.2777 5.99297 12.6827 6.06047L15.0752 6.45796C16.6052 6.71296 16.9652 7.82295 15.8627 8.91795L14.0027 10.7779C13.6877 11.0929 13.5152 11.7004 13.6127 12.1354L14.1452 14.4379C14.5652 16.2604 13.5977 16.9654 11.9852 16.0129L9.74265 14.6854C9.33765 14.4454 8.67015 14.4454 8.25765 14.6854L6.01518 16.0129C4.41018 16.9654 3.43518 16.2529 3.85518 14.4379L4.38768 12.1354C4.48518 11.7004 4.31268 11.0929 3.99768 10.7779L2.13768 8.91795C1.04268 7.82295 1.39518 6.71296 2.92518 6.45796L5.31768 6.06047C5.71518 5.99297 6.19518 5.64047 6.37518 5.27297L7.69515 2.63297C8.41515 1.20047 9.58515 1.20047 10.2977 2.63297Z" fill="#000822"/>
</g>
</g>
<defs>
<clipPath id="clip0_1_4779">
<rect width="18" height="18" fill="white"/>
</clipPath>
</defs>
</svg>
