<svg width="609" height="283" viewBox="0 0 609 283" fill="none" xmlns="http://www.w3.org/2000/svg">
<path d="M488.894 335.954L291.943 174.911L328.033 40.2212L299.719 56.6566L210.695 108.333L161.576 136.846L276.865 231.201L358.426 297.862L526.531 435.419C569.199 470.427 563.771 537.579 515.968 565.327L299.715 690.863C235.973 727.864 159.536 669.059 178.644 597.749L207.527 489.955L0.479295 320.508L27.826 218.448L109.387 285.11L294.037 436.041L317.029 454.826L289.627 557.094L289.088 556.617L279.842 591.123L446.433 494.419L395.262 452.551L395.424 452.371L177.209 273.562L176.89 273.923L81.4853 195.843C79.8417 194.509 78.2992 193.202 76.8917 191.817C57.5664 173.453 49.843 147.918 53.1949 123.792C56.3701 100.73 69.4264 78.9804 91.9473 65.9073L308.293 -59.5917C372.034 -96.5928 448.365 -37.8162 429.231 33.5955L400.85 139.513L516.241 233.895L608.487 309.228L581.085 411.495L488.894 335.954Z" fill="url(#paint0_linear_93_1162)"/>
<defs>
<linearGradient id="paint0_linear_93_1162" x1="203.533" y1="690.404" x2="404.377" y2="-59.1549" gradientUnits="userSpaceOnUse">
<stop stop-color="#0168FF"/>
<stop offset="1" stop-color="#05AFFF" stop-opacity="0"/>
</linearGradient>
</defs>
</svg>
