<svg width="396" height="514" viewBox="0 0 396 514" fill="none" xmlns="http://www.w3.org/2000/svg">
<path d="M277.29 14V260" stroke="white" stroke-opacity="0.22" stroke-width="0.925902"/>
<path d="M225 62.7969L710.816 62.7969" stroke="white" stroke-opacity="0.22" stroke-width="0.925902"/>
<path d="M225 112.804L710.816 112.804" stroke="white" stroke-opacity="0.22" stroke-width="0.925902"/>
<path d="M225 162.81L710.816 162.81" stroke="white" stroke-opacity="0.22" stroke-width="0.925902"/>
<path d="M225 212.816L710.816 212.816" stroke="white" stroke-opacity="0.22" stroke-width="0.925902"/>
<path d="M326.491 14V260" stroke="white" stroke-opacity="0.22" stroke-width="0.925902"/>
<path d="M375.692 14V260" stroke="white" stroke-opacity="0.22" stroke-width="0.925902"/>
<g opacity="0.64">
<rect x="90.5723" y="254.54" width="188.953" height="259.745" fill="url(#paint0_linear_11_4140)" fill-opacity="0.48"/>
<rect x="224.349" width="229.034" height="514.285" fill="url(#paint1_linear_11_4140)" fill-opacity="0.48"/>
</g>
<rect x="-0.00390625" y="90.5723" width="224.349" height="301.908" fill="url(#paint2_linear_11_4140)" fill-opacity="0.48"/>
<path d="M141.114 263.336L141.113 344.208C141.113 349.277 145.222 353.386 150.291 353.386H505.103C510.172 353.386 514.281 349.277 514.281 344.208L514.282 242.228L514.281 186.461C514.281 178.858 508.117 172.694 500.513 172.694H420.534H264.806C261.11 172.694 257.57 174.18 254.981 176.818L214.632 217.923C213.474 219.103 212.113 220.064 210.614 220.762L150.401 248.773C144.736 251.408 141.114 257.089 141.114 263.336Z" fill="#000822"/>
<path d="M182.7 256.102H526.771" stroke="#0388FF" stroke-width="5.85771"/>
<path d="M306.072 353.44L306.072 172.816" stroke="#0388FF" stroke-width="5.85771"/>
<ellipse cx="223.739" cy="353.386" rx="36.2775" ry="38.5587" fill="#000822"/>
<ellipse cx="431.656" cy="353.386" rx="36.2775" ry="38.5587" fill="#000822"/>
<rect x="85.3071" y="213.271" width="11.7299" height="300.711" fill="url(#paint3_linear_11_4140)"/>
<circle cx="90.6848" cy="182.293" r="57.3655" fill="white"/>
<circle cx="90.6848" cy="182.293" r="57.3655" fill="url(#paint4_linear_11_4140)"/>
<circle cx="90.6848" cy="182.293" r="57.3655" fill="url(#paint5_linear_11_4140)"/>
<path d="M90.4385 164.147C93.3361 164.147 95.8359 164.89 97.9375 166.376C100.071 167.862 101.743 169.951 102.953 172.645C104.163 175.307 104.769 178.418 104.769 181.978C104.769 185.537 104.163 188.664 102.953 191.357C101.775 194.02 100.119 196.109 97.9854 197.626C95.8519 199.112 93.3522 199.854 90.4863 199.854C87.6524 199.854 85.1686 199.112 83.0352 197.626C80.9017 196.14 79.2296 194.05 78.0195 191.357C76.8413 188.664 76.252 185.537 76.252 181.978C76.252 178.387 76.8414 175.261 78.0195 172.599C79.1978 169.936 80.8538 167.862 82.9873 166.376C85.1207 164.89 87.6046 164.147 90.4385 164.147ZM70.0078 186.389H75.2139V191.683H70.0078V199.298H63.6074V191.683H47.2715V186.389L63.2246 164.705H70.0078V186.389ZM128.882 186.389H134.089V191.683H128.882V199.298H122.481V191.683H106.146V186.389L122.1 164.705H128.882V186.389ZM90.4385 169.905C88.8464 169.905 87.4774 170.385 86.3311 171.345C85.1847 172.304 84.2931 173.697 83.6562 175.523C83.0512 177.319 82.7481 179.47 82.748 181.978C82.748 184.454 83.0513 186.605 83.6562 188.432C84.2931 190.227 85.1847 191.621 86.3311 192.611C87.5092 193.602 88.9103 194.097 90.5342 194.097C92.1582 194.097 93.5431 193.617 94.6895 192.657C95.8358 191.667 96.7114 190.274 97.3164 188.479C97.9533 186.652 98.2725 184.485 98.2725 181.978C98.2724 179.47 97.9533 177.319 97.3164 175.523C96.7114 173.697 95.8198 172.304 94.6416 171.345C93.4953 170.385 92.0943 169.905 90.4385 169.905ZM112.551 186.389H122.481V172.519L112.551 186.389ZM53.6768 186.389H63.6074V172.519L53.6768 186.389Z" fill="#000822"/>
<defs>
<linearGradient id="paint0_linear_11_4140" x1="185.049" y1="254.54" x2="185.049" y2="514.285" gradientUnits="userSpaceOnUse">
<stop stop-color="#0388FF" stop-opacity="0"/>
<stop offset="1" stop-color="#0388FF"/>
</linearGradient>
<linearGradient id="paint1_linear_11_4140" x1="338.866" y1="0" x2="338.866" y2="514.285" gradientUnits="userSpaceOnUse">
<stop stop-color="#0388FF" stop-opacity="0"/>
<stop offset="1" stop-color="#0388FF"/>
</linearGradient>
<linearGradient id="paint2_linear_11_4140" x1="112.171" y1="90.5723" x2="112.171" y2="392.48" gradientUnits="userSpaceOnUse">
<stop stop-color="#0388FF" stop-opacity="0"/>
<stop offset="1" stop-color="#0388FF"/>
</linearGradient>
<linearGradient id="paint3_linear_11_4140" x1="91.1721" y1="219.703" x2="74.3261" y2="513.651" gradientUnits="userSpaceOnUse">
<stop stop-color="#07102D"/>
<stop offset="1" stop-color="#0388FF"/>
</linearGradient>
<linearGradient id="paint4_linear_11_4140" x1="-6.15063" y1="225.189" x2="103.144" y2="164.43" gradientUnits="userSpaceOnUse">
<stop stop-color="white" stop-opacity="0.3"/>
<stop offset="1" stop-color="#0388FF"/>
</linearGradient>
<linearGradient id="paint5_linear_11_4140" x1="-6.15063" y1="225.189" x2="103.144" y2="164.43" gradientUnits="userSpaceOnUse">
<stop stop-color="white" stop-opacity="0.3"/>
<stop offset="1" stop-color="#0388FF"/>
</linearGradient>
</defs>
</svg>
