<svg width="221" height="221" viewBox="0 0 221 221" fill="none" xmlns="http://www.w3.org/2000/svg">
<circle cx="110.208" cy="110.206" r="110.206" fill="white"/>
<circle cx="110.208" cy="110.206" r="110.206" fill="url(#paint0_linear_1_5474)"/>
<circle cx="110.208" cy="110.206" r="110.206" fill="url(#paint1_linear_1_5474)"/>
<path d="M109.743 75.3448C115.31 75.3448 120.112 76.7725 124.149 79.627C128.248 82.4815 131.46 86.4952 133.785 91.669C136.11 96.7832 137.271 102.76 137.271 109.599C137.271 116.438 136.11 122.444 133.785 127.618C131.522 132.733 128.34 136.746 124.241 139.66C120.143 142.515 115.341 143.942 109.835 143.942C104.39 143.942 99.6183 142.515 95.5195 139.66C91.4209 136.806 88.2094 132.792 85.8848 127.618C83.6213 122.444 82.4893 116.438 82.4893 109.599C82.4893 102.7 83.6213 96.6944 85.8848 91.5801C88.1482 86.4658 91.3291 82.4815 95.4277 79.627C99.5265 76.7725 104.299 75.3448 109.743 75.3448ZM70.4932 118.073H80.4951V128.242H70.4932V142.872H58.1973V128.242H26.8135V118.073L57.4629 76.4151H70.4932V118.073ZM183.598 118.073H193.6V128.242H183.598V142.872H171.301V128.242H139.918V118.073L170.567 76.4151H183.598V118.073ZM109.743 86.4063C106.685 86.4063 104.054 87.3276 101.852 89.1709C99.6493 91.0144 97.9354 93.6907 96.7119 97.1992C95.5496 100.648 94.9688 104.782 94.9688 109.599C94.9688 114.356 95.5496 118.489 96.7119 121.998C97.9354 125.447 99.6492 128.123 101.852 130.026C104.115 131.929 106.807 132.881 109.927 132.881C113.047 132.881 115.708 131.959 117.91 130.115C120.112 128.212 121.795 125.536 122.957 122.087C124.18 118.578 124.792 114.415 124.792 109.599C124.792 104.782 124.181 100.648 122.957 97.1992C121.795 93.6907 120.082 91.0144 117.818 89.1709C115.616 87.3275 112.924 86.4063 109.743 86.4063ZM152.225 118.073H171.301V91.4268L152.225 118.073ZM39.1201 118.073H58.1973V91.4258L39.1201 118.073Z" fill="#000822"/>
<defs>
<linearGradient id="paint0_linear_1_5474" x1="-75.8244" y1="192.613" x2="134.143" y2="75.8884" gradientUnits="userSpaceOnUse">
<stop stop-color="white" stop-opacity="0.3"/>
<stop offset="1" stop-color="#0388FF"/>
</linearGradient>
<linearGradient id="paint1_linear_1_5474" x1="-75.8244" y1="192.613" x2="134.143" y2="75.8884" gradientUnits="userSpaceOnUse">
<stop stop-color="white" stop-opacity="0.3"/>
<stop offset="1" stop-color="#0388FF"/>
</linearGradient>
</defs>
</svg>
