<svg width="141" height="149" viewBox="0 0 141 149" fill="none" xmlns="http://www.w3.org/2000/svg">
<rect y="0.150391" width="70.2194" height="148.7" fill="url(#paint0_linear_526_604)" fill-opacity="0.48"/>
<rect x="70.2188" y="63.1406" width="70.2194" height="85.7089" fill="url(#paint1_linear_526_604)" fill-opacity="0.48"/>
<path d="M70.2188 31.2188H105.491L120.06 43.1722V86.0267H70.2188L70.2188 31.2188Z" fill="white"/>
<path d="M70.2188 31.2188H105.491L120.06 43.1722V86.0267H70.2188L70.2188 31.2188Z" fill="url(#paint2_linear_526_604)"/>
<path d="M70.2188 31.2188H105.491L120.06 43.1722V86.0267H70.2188L70.2188 31.2188Z" fill="#000822"/>
<path d="M105.469 43.1707L105.469 31.1289L120.076 43.1707H105.469Z" fill="#0388FF"/>
<rect x="19.9297" y="59.0117" width="85.1584" height="57.7861" rx="9.75613" fill="white"/>
<rect x="19.9297" y="59.0117" width="85.1584" height="57.7861" rx="9.75613" fill="url(#paint3_linear_526_604)"/>
<rect x="19.9297" y="59.0117" width="85.1584" height="57.7861" rx="9.75613" fill="url(#paint4_linear_526_604)"/>
<path d="M29.5195 105.796H54.256" stroke="#000822" stroke-width="3.64557" stroke-linecap="round" stroke-linejoin="round"/>
<path d="M21.7852 74.2178H103.383" stroke="#000822" stroke-width="3.64557" stroke-linecap="square" stroke-linejoin="round"/>
<ellipse cx="103.544" cy="115.41" rx="16.7415" ry="16.7295" fill="url(#paint5_linear_526_604)"/>
<path d="M98.8086 120.547L108.922 110.434" stroke="black" stroke-width="2.19545" stroke-linecap="round"/>
<path d="M108.922 120.548L98.8086 110.434" stroke="black" stroke-width="2.19545" stroke-linecap="round"/>
<defs>
<linearGradient id="paint0_linear_526_604" x1="35.1097" y1="0.150391" x2="35.1097" y2="148.85" gradientUnits="userSpaceOnUse">
<stop stop-color="#0388FF" stop-opacity="0"/>
<stop offset="1" stop-color="#0388FF"/>
</linearGradient>
<linearGradient id="paint1_linear_526_604" x1="105.328" y1="63.1406" x2="105.328" y2="148.85" gradientUnits="userSpaceOnUse">
<stop stop-color="#0388FF" stop-opacity="0"/>
<stop offset="1" stop-color="#0388FF"/>
</linearGradient>
<linearGradient id="paint2_linear_526_604" x1="53.0722" y1="79.1143" x2="102.574" y2="54.0891" gradientUnits="userSpaceOnUse">
<stop stop-color="white" stop-opacity="0.3"/>
<stop offset="1" stop-color="#0388FF"/>
</linearGradient>
<linearGradient id="paint3_linear_526_604" x1="-9.36666" y1="109.51" x2="54.1779" y2="57.4509" gradientUnits="userSpaceOnUse">
<stop stop-color="white" stop-opacity="0.3"/>
<stop offset="1" stop-color="#0388FF"/>
</linearGradient>
<linearGradient id="paint4_linear_526_604" x1="-9.36666" y1="109.51" x2="54.1779" y2="57.4509" gradientUnits="userSpaceOnUse">
<stop stop-color="white" stop-opacity="0.3"/>
<stop offset="1" stop-color="#0388FF"/>
</linearGradient>
<linearGradient id="paint5_linear_526_604" x1="61.1997" y1="151.532" x2="101.925" y2="112.71" gradientUnits="userSpaceOnUse">
<stop stop-color="white" stop-opacity="0.3"/>
<stop offset="1" stop-color="#FE8198"/>
</linearGradient>
</defs>
</svg>
