<svg width="141" height="135" viewBox="0 0 141 135" fill="none" xmlns="http://www.w3.org/2000/svg">
<ellipse cx="33.8381" cy="33.0063" rx="33.201" ry="33.0063" fill="url(#paint0_linear_1_503)" fill-opacity="0.48"/>
<rect x="30.2151" y="27.6067" width="81.3632" height="17.9012" fill="#000822"/>
<path d="M30.2151 47.719H111.359L111.359 99.892H30.2151V47.719Z" fill="#000822"/>
<ellipse cx="41.7545" cy="58.2242" rx="3.48097" ry="3.46098" fill="#0388FF"/>
<ellipse cx="53.6959" cy="58.2242" rx="3.48097" ry="3.46098" fill="#0388FF"/>
<ellipse cx="41.7545" cy="70.4212" rx="3.48097" ry="3.46098" fill="#0388FF"/>
<path d="M47.3712 23.1409V33.0065" stroke="#000822" stroke-width="4.24677" stroke-linecap="round"/>
<path d="M94.4142 23.1409V33.0065" stroke="#000822" stroke-width="4.24677" stroke-linecap="round"/>
<path d="M100.999 58.019L84.5075 65.6688C78.8074 68.3127 75.1603 74.0248 75.1603 80.3083V102.276C75.1603 107.328 77.5265 112.089 81.5539 115.139L97.3173 127.08C102.937 131.336 110.669 131.453 116.414 127.367L133.634 115.122C137.891 112.094 140.419 107.194 140.419 101.97V80.3082C140.419 74.0248 136.772 68.3127 131.072 65.6688L114.58 58.019C110.274 56.0213 105.306 56.0213 100.999 58.019Z" fill="url(#paint1_linear_1_503)"/>
<path d="M100.999 58.019L84.5075 65.6688C78.8074 68.3127 75.1603 74.0248 75.1603 80.3083V102.276C75.1603 107.328 77.5265 112.089 81.5539 115.139L97.3173 127.08C102.937 131.336 110.669 131.453 116.414 127.367L133.634 115.122C137.891 112.094 140.419 107.194 140.419 101.97V80.3082C140.419 74.0248 136.772 68.3127 131.072 65.6688L114.58 58.019C110.274 56.0213 105.306 56.0213 100.999 58.019Z" fill="url(#paint2_linear_1_503)"/>
<path d="M97.0547 91.0058L103.107 99.2611C104.575 101.263 107.579 101.221 108.989 99.1784L121.946 80.4236" stroke="#000822" stroke-width="5.92957" stroke-linecap="round"/>
<defs>
<linearGradient id="paint0_linear_1_503" x1="33.8381" y1="0" x2="33.8381" y2="66.0125" gradientUnits="userSpaceOnUse">
<stop stop-color="#0388FF" stop-opacity="0"/>
<stop offset="1" stop-color="#0388FF"/>
</linearGradient>
<linearGradient id="paint1_linear_1_503" x1="52.7097" y1="123.226" x2="122.098" y2="94.3809" gradientUnits="userSpaceOnUse">
<stop stop-color="white" stop-opacity="0.3"/>
<stop offset="1" stop-color="#0388FF"/>
</linearGradient>
<linearGradient id="paint2_linear_1_503" x1="52.7097" y1="123.226" x2="122.098" y2="94.3809" gradientUnits="userSpaceOnUse">
<stop stop-color="white" stop-opacity="0.3"/>
<stop offset="1" stop-color="#0388FF"/>
</linearGradient>
</defs>
</svg>
