<svg width="135" height="76" viewBox="0 0 135 76" fill="none" xmlns="http://www.w3.org/2000/svg">
<path d="M0 0.0932617H34.1392L48.2397 11.6626V48.333H0V0.0932617Z" fill="#000822"/>
<path d="M34.1222 11.6548L34.1217 0L48.2597 11.6548H34.1222Z" fill="#0388FF"/>
<path d="M6.20996 14.2715H22.6547" stroke="#0388FF" stroke-width="2.86324" stroke-linecap="round"/>
<path d="M6.20996 21.358H32.6571" stroke="#0388FF" stroke-width="2.86324" stroke-linecap="round"/>
<path d="M19.5879 41.3636L35.635 35.6993L40.4544 23.941H60.5963V63.8824H19.5881L19.5879 41.3636Z" fill="url(#paint0_linear_1_1132)"/>
<path d="M60.6006 49.0381H123.938L134.341 56.2045V63.8825H60.6006V49.0381Z" fill="url(#paint1_linear_1_1132)"/>
<ellipse cx="40.0889" cy="65.9013" rx="8.8981" ry="9.44131" fill="#000822"/>
<ellipse cx="111.241" cy="65.9013" rx="8.8981" ry="9.44131" fill="#000822"/>
<path d="M66.3423 36.7356V41.4399C66.3423 42.1907 66.9509 42.7993 67.7017 42.7993H122.315C123.066 42.7993 123.675 42.1907 123.675 41.4399V37.5425C123.675 35.2891 122.094 33.3447 119.888 32.8846L115.738 32.019C114.757 31.8144 113.886 31.2559 113.291 30.45L109.705 25.5962C108.936 24.5554 107.718 23.9413 106.424 23.9413H87.6145C86.4803 23.9413 85.3972 24.4136 84.6255 25.2449L79.408 30.8652C78.9003 31.4121 78.2522 31.8092 77.5344 32.0133L67.8238 34.7741C66.9471 35.0233 66.3423 35.8241 66.3423 36.7356Z" fill="#000822"/>
<ellipse cx="81.9618" cy="43.6409" rx="5.08678" ry="5.39732" fill="#000822"/>
<ellipse cx="110.621" cy="43.6409" rx="5.08678" ry="5.39732" fill="#000822"/>
<defs>
<linearGradient id="paint0_linear_1_1132" x1="-29.8798" y1="89.5221" x2="49.1258" y2="43.9082" gradientUnits="userSpaceOnUse">
<stop stop-color="white" stop-opacity="0"/>
<stop offset="1" stop-color="#0388FF"/>
</linearGradient>
<linearGradient id="paint1_linear_1_1132" x1="-2.01538" y1="58.1875" x2="111.71" y2="59.4519" gradientUnits="userSpaceOnUse">
<stop stop-color="white" stop-opacity="0"/>
<stop offset="1" stop-color="#0388FF"/>
</linearGradient>
</defs>
</svg>
