<svg width="161" height="54" viewBox="0 0 161 54" fill="none" xmlns="http://www.w3.org/2000/svg">
<rect width="161" height="54" rx="7.8031" fill="white"/>
<path d="M63.0986 19.8787C63.0986 20.9699 62.7694 21.8391 62.1112 22.4865C61.3716 23.2576 60.3991 23.6431 59.1936 23.6431C58.0398 23.6431 57.0636 23.2503 56.2648 22.4647C55.4661 21.6791 55.0667 20.7116 55.0667 19.5623C55.0667 18.413 55.4661 17.4455 56.2648 16.6599C57.0636 15.8743 58.0398 15.4814 59.1936 15.4814C59.7778 15.4814 60.3288 15.5833 60.8465 15.787C61.3642 15.9906 61.7895 16.278 62.1223 16.649L61.3901 17.3691C61.1461 17.0781 60.828 16.8526 60.4361 16.6926C60.0515 16.5253 59.6373 16.4416 59.1936 16.4416C58.3283 16.4416 57.5961 16.7363 56.997 17.3255C56.4054 17.922 56.1095 18.6676 56.1095 19.5623C56.1095 20.457 56.4054 21.2026 56.997 21.7991C57.5961 22.3883 58.3283 22.6829 59.1936 22.6829C59.9849 22.6829 60.6432 22.4647 61.1683 22.0283C61.6934 21.5918 61.9966 20.9917 62.0779 20.2279H59.1936V19.2895H63.0431C63.0801 19.4932 63.0986 19.6896 63.0986 19.8787Z" fill="#000822"/>
<path d="M68.9758 15.656V16.6162H65.3593V19.0931H68.6208V20.0315H65.3593V22.5084H68.9758V23.4686H64.3386V15.656H68.9758Z" fill="#000822"/>
<path d="M73.0582 16.6162V23.4686H72.0376V16.6162H69.8188V15.656H75.2769V16.6162H73.0582Z" fill="#000822"/>
<path d="M79.8006 23.4686H78.78V15.656H79.8006V23.4686Z" fill="#000822"/>
<path d="M84.1086 16.6162V23.4686H83.0879V16.6162H80.8692V15.656H86.3273V16.6162H84.1086Z" fill="#000822"/>
<path d="M97.3903 19.5623C97.3903 20.7189 96.9984 21.6864 96.2144 22.4647C95.4231 23.2503 94.4542 23.6431 93.3079 23.6431C92.1541 23.6431 91.1853 23.2503 90.4013 22.4647C89.6174 21.6864 89.2254 20.7189 89.2254 19.5623C89.2254 18.4057 89.6174 17.4382 90.4013 16.6599C91.1853 15.8743 92.1541 15.4814 93.3079 15.4814C94.4616 15.4814 95.4305 15.8779 96.2144 16.6708C96.9984 17.4491 97.3903 18.413 97.3903 19.5623ZM90.2682 19.5623C90.2682 20.4643 90.5566 21.2099 91.1335 21.7991C91.7178 22.3883 92.4425 22.6829 93.3079 22.6829C94.1732 22.6829 94.8943 22.3883 95.4711 21.7991C96.0554 21.2172 96.3475 20.4716 96.3475 19.5623C96.3475 18.653 96.0554 17.9074 95.4711 17.3255C94.8943 16.7363 94.1732 16.4416 93.3079 16.4416C92.4425 16.4416 91.7178 16.7363 91.1335 17.3255C90.5566 17.9147 90.2682 18.6603 90.2682 19.5623Z" fill="#000822"/>
<path d="M99.6154 23.4686H98.5948V15.656H99.8373L103.698 21.7337H103.742L103.698 20.2279V15.656H104.719V23.4686H103.654L99.6154 17.0963H99.571L99.6154 18.6021V23.4686Z" fill="#000822"/>
<path d="M117.664 39.5307H119.449V27.5586H117.664V39.5307ZM133.735 31.8711L131.69 37.0618H131.629L129.506 31.8711H127.584L130.767 39.1256L128.953 43.1614H130.813L135.72 31.8711H133.735ZM123.617 38.1708C123.032 38.1708 122.217 37.8787 122.217 37.1537C122.217 36.2305 123.232 35.8762 124.108 35.8762C124.892 35.8762 125.262 36.0457 125.739 36.2765C125.6 37.3855 124.647 38.1708 123.617 38.1708ZM123.832 31.6096C122.54 31.6096 121.201 32.1795 120.649 33.4427L122.232 34.1044C122.571 33.4427 123.201 33.2262 123.863 33.2262C124.785 33.2262 125.723 33.7807 125.739 34.7672V34.8897C125.415 34.7049 124.724 34.4281 123.878 34.4281C122.171 34.4281 120.433 35.3676 120.433 37.1231C120.433 38.7253 121.833 39.7577 123.401 39.7577C124.601 39.7577 125.262 39.2185 125.677 38.5864H125.739V39.5106H127.461V34.9204C127.461 32.7953 125.877 31.6096 123.832 31.6096ZM112.805 33.3287H110.267V29.225H112.805C114.139 29.225 114.896 30.3311 114.896 31.2764C114.896 32.2044 114.139 33.3287 112.805 33.3287ZM112.759 27.5586H108.484V39.5307H110.267V34.9951H112.759C114.737 34.9951 116.681 33.5605 116.681 31.2764C116.681 28.9923 114.737 27.5586 112.759 27.5586ZM89.4459 38.1727C88.2133 38.1727 87.1816 37.1394 87.1816 35.7201C87.1816 34.2854 88.2133 33.2358 89.4459 33.2358C90.6631 33.2358 91.6174 34.2854 91.6174 35.7201C91.6174 37.1394 90.6631 38.1727 89.4459 38.1727ZM91.495 32.5415H91.4329C91.0322 32.0636 90.2625 31.6317 89.2919 31.6317C87.2581 31.6317 85.3944 33.4206 85.3944 35.7201C85.3944 38.0032 87.2581 39.7778 89.2919 39.7778C90.2625 39.7778 91.0322 39.3459 91.4329 38.8517H91.495V39.4388C91.495 40.997 90.6631 41.8302 89.3225 41.8302C88.2286 41.8302 87.5507 41.0429 87.2734 40.3793L85.7176 41.0276C86.1642 42.1079 87.3508 43.4343 89.3225 43.4343C91.4176 43.4343 93.1894 42.1998 93.1894 39.1917V31.8778H91.495V32.5415ZM94.422 39.5307H96.2091V27.5576H94.422V39.5307ZM98.8425 35.5812C98.7966 34.0077 100.06 33.2052 100.968 33.2052C101.678 33.2052 102.278 33.5595 102.478 34.069L98.8425 35.5812ZM104.389 34.2232C104.05 33.3134 103.017 31.6317 100.907 31.6317C98.8119 31.6317 97.0716 33.2818 97.0716 35.7047C97.0716 37.9879 98.7966 39.7778 101.107 39.7778C102.971 39.7778 104.05 38.6362 104.497 37.9726L103.11 37.0465C102.648 37.7255 102.016 38.1727 101.107 38.1727C100.198 38.1727 99.5511 37.7561 99.1351 36.9392L104.573 34.6858L104.389 34.2232ZM61.0647 32.8815V34.6091H65.1927C65.0693 35.5812 64.7461 36.2909 64.2537 36.7841C63.6522 37.3865 62.7123 38.0501 61.0647 38.0501C58.5222 38.0501 56.5352 35.9978 56.5352 33.4522C56.5352 30.9057 58.5222 28.8543 61.0647 28.8543C62.4359 28.8543 63.4371 29.3945 64.1762 30.0888L65.3935 28.8697C64.3608 27.8823 62.9905 27.1257 61.0647 27.1257C57.5832 27.1257 54.6562 29.9653 54.6562 33.4522C54.6562 36.9392 57.5832 39.7778 61.0647 39.7778C62.9437 39.7778 64.3608 39.1601 65.47 38.0032C66.6107 36.8616 66.9645 35.2575 66.9645 33.9608C66.9645 33.5595 66.9339 33.1898 66.8718 32.8815H61.0647ZM71.6585 38.1727C70.426 38.1727 69.3627 37.1547 69.3627 35.7047C69.3627 34.2385 70.426 33.2358 71.6585 33.2358C72.8901 33.2358 73.9534 34.2385 73.9534 35.7047C73.9534 37.1547 72.8901 38.1727 71.6585 38.1727ZM71.6585 31.6317C69.4086 31.6317 67.5755 33.344 67.5755 35.7047C67.5755 38.0501 69.4086 39.7778 71.6585 39.7778C73.9075 39.7778 75.7406 38.0501 75.7406 35.7047C75.7406 33.344 73.9075 31.6317 71.6585 31.6317ZM80.5637 38.1727C79.3311 38.1727 78.2678 37.1547 78.2678 35.7047C78.2678 34.2385 79.3311 33.2358 80.5637 33.2358C81.7962 33.2358 82.8586 34.2385 82.8586 35.7047C82.8586 37.1547 81.7962 38.1727 80.5637 38.1727ZM80.5637 31.6317C78.3147 31.6317 76.4816 33.344 76.4816 35.7047C76.4816 38.0501 78.3147 39.7778 80.5637 39.7778C82.8127 39.7778 84.6457 38.0501 84.6457 35.7047C84.6457 33.344 82.8127 31.6317 80.5637 31.6317Z" fill="#000822"/>
<path d="M29.3376 26.6289L34.5097 21.4568L17.804 12.0676C16.6969 11.4694 15.6596 11.3854 14.7501 12.0396L29.3376 26.6289ZM35.3913 32.6843L40.768 29.6601C41.8175 29.0724 42.3929 28.2398 42.3929 27.3163C42.3929 26.3945 41.8175 25.5602 40.7698 24.9725L35.902 22.2386L30.4221 27.7168L35.3913 32.6843ZM13.8511 13.3112C13.7391 13.6558 13.6761 14.0406 13.6761 14.4621V40.1827C13.6761 40.8491 13.8231 41.4228 14.0889 41.8793L28.2514 27.7151L13.8511 13.3112ZM29.3376 28.7995L15.2538 42.885C15.5244 42.99 15.813 43.0425 16.1196 43.0425C16.6677 43.0425 17.2321 42.8815 17.8128 42.5597L34.0007 33.4696L29.3376 28.7995Z" fill="#000822"/>
</svg>
