<svg width="47" height="58" viewBox="0 0 47 58" fill="none" xmlns="http://www.w3.org/2000/svg">
<path d="M46.1497 13.5487C43.7331 9.88583 40.453 6.86106 36.5928 4.73569C32.7327 2.61032 28.4085 1.44825 23.9937 1.34985C19.5789 1.25146 15.2064 2.2197 11.2537 4.17094C7.30103 6.12218 3.88708 8.99776 1.30672 12.5493L23.3821 28.303L46.1497 13.5487Z" fill="white"/>
<path d="M46.1497 13.5487C43.7331 9.88583 40.453 6.86106 36.5928 4.73569C32.7327 2.61032 28.4085 1.44825 23.9937 1.34985C19.5789 1.25146 15.2064 2.2197 11.2537 4.17094C7.30103 6.12218 3.88708 8.99776 1.30672 12.5493L23.3821 28.303L46.1497 13.5487Z" fill="url(#paint0_linear_1_224)"/>
<path d="M46.1497 43.7687C43.7331 47.4316 40.453 50.4563 36.5928 52.5817C32.7327 54.7071 28.4085 55.8691 23.9937 55.9675C19.5789 56.0659 15.2064 55.0977 11.2537 53.1464C7.30103 51.1952 3.88708 48.3196 1.30672 44.7681L23.3821 29.0144L46.1497 43.7687Z" fill="white"/>
<path d="M46.1497 43.7687C43.7331 47.4316 40.453 50.4563 36.5928 52.5817C32.7327 54.7071 28.4085 55.8691 23.9937 55.9675C19.5789 56.0659 15.2064 55.0977 11.2537 53.1464C7.30103 51.1952 3.88708 48.3196 1.30672 44.7681L23.3821 29.0144L46.1497 43.7687Z" fill="url(#paint1_linear_1_224)"/>
<defs>
<linearGradient id="paint0_linear_1_224" x1="-36.9307" y1="14.2805" x2="32.0512" y2="18.8" gradientUnits="userSpaceOnUse">
<stop stop-color="white" stop-opacity="0"/>
<stop offset="1" stop-color="#0388FF"/>
</linearGradient>
<linearGradient id="paint1_linear_1_224" x1="-36.9307" y1="43.0369" x2="32.0512" y2="38.5174" gradientUnits="userSpaceOnUse">
<stop stop-color="white" stop-opacity="0"/>
<stop offset="1" stop-color="#0388FF"/>
</linearGradient>
</defs>
</svg>
