<svg width="53" height="53" viewBox="0 0 53 53" fill="none" xmlns="http://www.w3.org/2000/svg">
<path d="M52.9199 31C52.9199 26.929 52.1108 22.8979 50.5389 19.1368C48.967 15.3757 46.663 11.9583 43.7584 9.07969C40.8539 6.20107 37.4057 3.91763 33.6107 2.35973C29.8157 0.801838 25.7483 -1.77948e-07 21.6406 0L21.6406 31H52.9199Z" fill="white"/>
<path d="M52.9199 31C52.9199 26.929 52.1108 22.8979 50.5389 19.1368C48.967 15.3757 46.663 11.9583 43.7584 9.07969C40.8539 6.20107 37.4057 3.91763 33.6107 2.35973C29.8157 0.801838 25.7483 -1.77948e-07 21.6406 0L21.6406 31H52.9199Z" fill="url(#paint0_linear_1_218)"/>
<path d="M31.7285 53C31.7285 48.929 30.9194 44.8979 29.3475 41.1368C27.7756 37.3757 25.4716 33.9583 22.567 31.0797C19.6625 28.2011 16.2143 25.9176 12.4193 24.3597C8.6243 22.8018 4.55687 22 0.449219 22L0.44922 53H31.7285Z" fill="white"/>
<path d="M31.7285 53C31.7285 48.929 30.9194 44.8979 29.3475 41.1368C27.7756 37.3757 25.4716 33.9583 22.567 31.0797C19.6625 28.2011 16.2143 25.9176 12.4193 24.3597C8.6243 22.8018 4.55687 22 0.449219 22L0.44922 53H31.7285Z" fill="url(#paint1_linear_1_218)"/>
<defs>
<linearGradient id="paint0_linear_1_218" x1="-4.91989" y1="19.1069" x2="43.3259" y2="19.2158" gradientUnits="userSpaceOnUse">
<stop stop-color="white" stop-opacity="0"/>
<stop offset="1" stop-color="#0388FF"/>
</linearGradient>
<linearGradient id="paint1_linear_1_218" x1="-26.1113" y1="41.1069" x2="22.1345" y2="41.2158" gradientUnits="userSpaceOnUse">
<stop stop-color="white" stop-opacity="0"/>
<stop offset="1" stop-color="#0388FF"/>
</linearGradient>
</defs>
</svg>
