<svg width="51" height="50" viewBox="0 0 51 50" fill="none" xmlns="http://www.w3.org/2000/svg">
<path d="M50.8567 25C50.8567 18.3696 48.1991 12.0107 43.4684 7.32233C38.7378 2.63392 32.3216 5.00582e-07 25.6315 0C18.9413 -5.00582e-07 12.5252 2.63392 7.79455 7.32233C3.0639 12.0107 0.406251 18.3696 0.40625 25L50.8567 25Z" fill="white"/>
<path d="M50.8567 25C50.8567 18.3696 48.1991 12.0107 43.4684 7.32233C38.7378 2.63392 32.3216 5.00582e-07 25.6315 0C18.9413 -5.00582e-07 12.5252 2.63392 7.79455 7.32233C3.0639 12.0107 0.406251 18.3696 0.40625 25L50.8567 25Z" fill="url(#paint0_linear_1_211)"/>
<path d="M50.8567 50C50.8567 43.3696 48.1991 37.0107 43.4684 32.3223C38.7378 27.6339 32.3216 25 25.6315 25C18.9413 25 12.5252 27.6339 7.79455 32.3223C3.0639 37.0107 0.406251 43.3696 0.40625 50L50.8567 50Z" fill="white"/>
<path d="M50.8567 50C50.8567 43.3696 48.1991 37.0107 43.4684 32.3223C38.7378 27.6339 32.3216 25 25.6315 25C18.9413 25 12.5252 27.6339 7.79455 32.3223C3.0639 37.0107 0.406251 43.3696 0.40625 50L50.8567 50Z" fill="url(#paint1_linear_1_211)"/>
<defs>
<linearGradient id="paint0_linear_1_211" x1="-42.4333" y1="15.4088" x2="35.3813" y2="15.7602" gradientUnits="userSpaceOnUse">
<stop stop-color="white" stop-opacity="0"/>
<stop offset="1" stop-color="#0388FF"/>
</linearGradient>
<linearGradient id="paint1_linear_1_211" x1="-42.4333" y1="40.4088" x2="35.3813" y2="40.7602" gradientUnits="userSpaceOnUse">
<stop stop-color="white" stop-opacity="0"/>
<stop offset="1" stop-color="#0388FF"/>
</linearGradient>
</defs>
</svg>
