<svg width="172" height="190" viewBox="0 0 172 190" fill="none" xmlns="http://www.w3.org/2000/svg">
<path d="M171.849 17.6949L167.315 27.7467C160.065 43.8283 159.133 62.0499 164.701 78.7882C176.162 113.238 160.339 150.849 127.7 166.747L113.729 173.552C104.788 177.907 96.1945 182.941 88.0247 188.61L86.3961 189.753C77.7422 183.616 68.6006 178.197 59.0628 173.552L45.0926 166.747C12.453 150.849 -3.36929 113.238 8.0908 78.7882C13.6592 62.0499 12.7269 43.8283 5.47685 27.7467L0.943604 17.6949L16.7508 0.984619C37.6948 11.5451 62.3046 12.0115 83.633 2.25043L86.3961 0.984619L89.1593 2.25043C110.488 12.0115 135.097 11.5451 156.041 0.984619L171.849 17.6949Z" fill="url(#paint0_linear_1_948)"/>
<path d="M171.849 17.6949L167.315 27.7467C160.065 43.8283 159.133 62.0499 164.701 78.7882C176.162 113.238 160.339 150.849 127.7 166.747L113.729 173.552C104.788 177.907 96.1945 182.941 88.0247 188.61L86.3961 189.753C77.7422 183.616 68.6006 178.197 59.0628 173.552L45.0926 166.747C12.453 150.849 -3.36929 113.238 8.0908 78.7882C13.6592 62.0499 12.7269 43.8283 5.47685 27.7467L0.943604 17.6949L16.7508 0.984619C37.6948 11.5451 62.3046 12.0115 83.633 2.25043L86.3961 0.984619L89.1593 2.25043C110.488 12.0115 135.097 11.5451 156.041 0.984619L171.849 17.6949Z" fill="url(#paint1_linear_1_948)"/>
<path d="M85.1244 53.6748L93.3627 79.2193L120.203 79.1606L98.4542 94.8894L106.804 120.398L85.1244 104.574L63.4449 120.398L71.7947 94.8894L50.0462 79.1606L76.8862 79.2193L85.1244 53.6748Z" fill="#000822"/>
<defs>
<linearGradient id="paint0_linear_1_948" x1="-58.7126" y1="181.074" x2="124.093" y2="105.081" gradientUnits="userSpaceOnUse">
<stop stop-color="white" stop-opacity="0.3"/>
<stop offset="1" stop-color="#0388FF"/>
</linearGradient>
<linearGradient id="paint1_linear_1_948" x1="-57.8514" y1="163.573" x2="118.356" y2="82.922" gradientUnits="userSpaceOnUse">
<stop stop-color="white" stop-opacity="0.3"/>
<stop offset="1" stop-color="#0388FF"/>
</linearGradient>
</defs>
</svg>
