<svg width="568" height="635" viewBox="0 0 568 635" fill="none" xmlns="http://www.w3.org/2000/svg">
<rect opacity="0.6" width="189" height="767" transform="matrix(1 -4.61642e-09 5.16154e-09 -1 0 535)" fill="url(#paint0_linear_341_3752)"/>
<rect width="189" height="888" transform="matrix(1 -4.61642e-09 5.16154e-09 -1 379 822.982)" fill="url(#paint1_linear_341_3752)"/>
<rect opacity="0.82" width="189.374" height="772.624" transform="matrix(1 -4.61642e-09 5.16154e-09 -1 189.37 677.971)" fill="url(#paint2_linear_341_3752)"/>
<path d="M-0.000244141 215.436H159.758L225.743 269.576V441.179H-0.000244141V215.436Z" fill="#000822"/>
<path d="M159.678 269.54L159.675 215L225.835 269.54H159.678Z" fill="#0388FF"/>
<path d="M29.0544 278.895H106.009" stroke="#0388FF" stroke-width="7.71148" stroke-linecap="round"/>
<path d="M29.0544 305.334H152.817" stroke="#0388FF" stroke-width="7.71148" stroke-linecap="round"/>
<path d="M413.838 247.776C404.066 251.686 392.905 249.392 385.464 241.946L352.754 209.215L352.747 209.223L301.971 158.414C294.53 150.967 292.238 139.799 296.145 130.021L316.085 80.1183L354.928 118.987L337.099 136.828L363.031 162.777L363.037 162.771L407.034 206.797L424.864 188.955L463.708 227.824L413.838 247.776Z" fill="url(#paint3_linear_341_3752)"/>
<path d="M413.838 247.776C404.066 251.686 392.905 249.392 385.464 241.946L352.754 209.215L352.747 209.223L301.971 158.414C294.53 150.967 292.238 139.799 296.145 130.021L316.085 80.1183L354.928 118.987L337.099 136.828L363.031 162.777L363.037 162.771L407.034 206.797L424.864 188.955L463.708 227.824L413.838 247.776Z" fill="url(#paint4_linear_341_3752)"/>
<path d="M385.193 114.182L386.57 114.389C393.646 115.515 403.492 117.974 412.267 124.383C421.502 131.129 429.185 141.986 431.525 159.182L431.735 160.867L431.763 161.321C431.789 163.571 430.106 165.519 427.822 165.777C425.537 166.036 423.461 164.512 422.984 162.312L422.91 161.865L422.729 160.403C420.708 145.506 414.251 136.832 407.027 131.556C399.875 126.332 391.623 124.189 385.193 123.163L383.931 122.973L383.485 122.884C381.301 122.341 379.84 120.222 380.166 117.946C380.493 115.67 382.49 114.047 384.739 114.14L385.193 114.182ZM385.042 68.0184L385.492 68.0828L388.112 68.6142C401.552 71.4421 419.936 76.9823 436.603 89.5536C454.227 102.847 469.662 123.801 475.5 156.935L475.771 158.522L475.822 158.973C475.963 161.22 474.381 163.252 472.113 163.626C469.844 164.001 467.694 162.585 467.105 160.413L467.009 159.968L466.756 158.487C461.311 127.574 447.099 108.594 431.256 96.6444C415.038 84.4113 396.83 79.341 383.794 76.7999C381.387 76.3307 379.814 73.9984 380.284 71.5913C380.724 69.335 382.801 67.8136 385.042 68.0184ZM380.432 94.3549C380.901 91.9479 383.232 90.3775 385.639 90.8465C395.724 92.8122 410.449 96.839 423.74 106.864C437.156 116.983 448.831 133.007 453.017 158.369C453.416 160.789 451.778 163.074 449.359 163.473C446.939 163.872 444.654 162.235 444.255 159.815C440.443 136.717 429.998 122.709 418.392 113.955C406.66 105.106 393.461 101.419 383.94 99.5636C381.533 99.0944 379.963 96.7621 380.432 94.3549Z" fill="url(#paint5_linear_341_3752)"/>
<path d="M385.193 114.182L386.57 114.389C393.646 115.515 403.492 117.974 412.267 124.383C421.502 131.129 429.185 141.986 431.525 159.182L431.735 160.867L431.763 161.321C431.789 163.571 430.106 165.519 427.822 165.777C425.537 166.036 423.461 164.512 422.984 162.312L422.91 161.865L422.729 160.403C420.708 145.506 414.251 136.832 407.027 131.556C399.875 126.332 391.623 124.189 385.193 123.163L383.931 122.973L383.485 122.884C381.301 122.341 379.84 120.222 380.166 117.946C380.493 115.67 382.49 114.047 384.739 114.14L385.193 114.182ZM385.042 68.0184L385.492 68.0828L388.112 68.6142C401.552 71.4421 419.936 76.9823 436.603 89.5536C454.227 102.847 469.662 123.801 475.5 156.935L475.771 158.522L475.822 158.973C475.963 161.22 474.381 163.252 472.113 163.626C469.844 164.001 467.694 162.585 467.105 160.413L467.009 159.968L466.756 158.487C461.311 127.574 447.099 108.594 431.256 96.6444C415.038 84.4113 396.83 79.341 383.794 76.7999C381.387 76.3307 379.814 73.9984 380.284 71.5913C380.724 69.335 382.801 67.8136 385.042 68.0184ZM380.432 94.3549C380.901 91.9479 383.232 90.3775 385.639 90.8465C395.724 92.8122 410.449 96.839 423.74 106.864C437.156 116.983 448.831 133.007 453.017 158.369C453.416 160.789 451.778 163.074 449.359 163.473C446.939 163.872 444.654 162.235 444.255 159.815C440.443 136.717 429.998 122.709 418.392 113.955C406.66 105.106 393.461 101.419 383.94 99.5636C381.533 99.0944 379.963 96.7621 380.432 94.3549Z" fill="url(#paint6_linear_341_3752)"/>
<path d="M376.715 289.012V349.915" stroke="#0388FF" stroke-width="8.06309" stroke-linecap="round"/>
<path d="M358.6 337.109L376.715 351.789L396.391 337.109" stroke="#0388FF" stroke-width="8.06309" stroke-linecap="round" stroke-linejoin="round"/>
<path d="M463.849 411.695L459.315 421.746C452.065 437.828 451.133 456.05 456.701 472.788C468.162 507.237 452.339 544.848 419.7 560.746L405.729 567.551C396.788 571.907 388.194 576.941 380.025 582.61L378.396 583.752C369.742 577.615 360.601 572.197 351.063 567.551L337.093 560.746C304.453 544.848 288.631 507.237 300.091 472.788C305.659 456.05 304.727 437.828 297.477 421.746L292.944 411.695L308.751 394.984C329.695 405.545 354.305 406.011 375.633 396.25L378.396 394.984L381.159 396.25C402.488 406.011 427.097 405.545 448.041 394.984L463.849 411.695Z" fill="url(#paint7_linear_341_3752)"/>
<path d="M463.849 411.695L459.315 421.746C452.065 437.828 451.133 456.05 456.701 472.788C468.162 507.237 452.339 544.848 419.7 560.746L405.729 567.551C396.788 571.907 388.194 576.941 380.025 582.61L378.396 583.752C369.742 577.615 360.601 572.197 351.063 567.551L337.093 560.746C304.453 544.848 288.631 507.237 300.091 472.788C305.659 456.05 304.727 437.828 297.477 421.746L292.944 411.695L308.751 394.984C329.695 405.545 354.305 406.011 375.633 396.25L378.396 394.984L381.159 396.25C402.488 406.011 427.097 405.545 448.041 394.984L463.849 411.695Z" fill="url(#paint8_linear_341_3752)"/>
<path d="M377.124 447.674L385.363 473.218L412.203 473.16L390.454 488.888L398.804 514.397L377.124 498.573L355.445 514.397L363.795 488.888L342.046 473.16L368.886 473.218L377.124 447.674Z" fill="#000822"/>
<defs>
<linearGradient id="paint0_linear_341_3752" x1="94.5" y1="0" x2="94.4999" y2="1412.16" gradientUnits="userSpaceOnUse">
<stop stop-color="#0388FF" stop-opacity="0"/>
<stop offset="1" stop-color="#0388FF"/>
</linearGradient>
<linearGradient id="paint1_linear_341_3752" x1="94.5" y1="0" x2="94.4998" y2="1634.94" gradientUnits="userSpaceOnUse">
<stop stop-color="#0388FF" stop-opacity="0"/>
<stop offset="1" stop-color="#0388FF"/>
</linearGradient>
<linearGradient id="paint2_linear_341_3752" x1="94.687" y1="0" x2="94.6869" y2="1422.51" gradientUnits="userSpaceOnUse">
<stop stop-color="#0388FF" stop-opacity="0"/>
<stop offset="1" stop-color="#0388FF"/>
</linearGradient>
<linearGradient id="paint3_linear_341_3752" x1="231.801" y1="224.465" x2="412.168" y2="133.328" gradientUnits="userSpaceOnUse">
<stop stop-color="white" stop-opacity="0.3"/>
<stop offset="1" stop-color="#0388FF"/>
</linearGradient>
<linearGradient id="paint4_linear_341_3752" x1="231.801" y1="224.465" x2="412.168" y2="133.328" gradientUnits="userSpaceOnUse">
<stop stop-color="white" stop-opacity="0.3"/>
<stop offset="1" stop-color="#0388FF"/>
</linearGradient>
<linearGradient id="paint5_linear_341_3752" x1="231.801" y1="224.465" x2="412.168" y2="133.328" gradientUnits="userSpaceOnUse">
<stop stop-color="white" stop-opacity="0.3"/>
<stop offset="1" stop-color="#0388FF"/>
</linearGradient>
<linearGradient id="paint6_linear_341_3752" x1="231.801" y1="224.465" x2="412.168" y2="133.328" gradientUnits="userSpaceOnUse">
<stop stop-color="white" stop-opacity="0.3"/>
<stop offset="1" stop-color="#0388FF"/>
</linearGradient>
<linearGradient id="paint7_linear_341_3752" x1="233.287" y1="575.073" x2="416.093" y2="499.081" gradientUnits="userSpaceOnUse">
<stop stop-color="white" stop-opacity="0.3"/>
<stop offset="1" stop-color="#0388FF"/>
</linearGradient>
<linearGradient id="paint8_linear_341_3752" x1="234.149" y1="557.573" x2="410.356" y2="476.922" gradientUnits="userSpaceOnUse">
<stop stop-color="white" stop-opacity="0.3"/>
<stop offset="1" stop-color="#0388FF"/>
</linearGradient>
</defs>
</svg>
