<svg width="597" height="406" viewBox="0 0 597 406" fill="none" xmlns="http://www.w3.org/2000/svg">
<path d="M30.5713 117.808L12.9125 160.968C10.5099 166.84 13.3227 173.549 19.1951 175.951L509.487 376.553C515.359 378.955 522.067 376.143 524.47 370.27L547.243 314.611C550.848 305.799 547.778 295.666 539.887 290.337L481.676 251.024C478.168 248.655 475.654 245.076 474.615 240.972L455.536 165.603C454.194 160.303 450.417 155.953 445.356 153.883L258.296 77.3478C253.86 75.533 248.869 75.6473 244.521 77.6634L163.106 115.414C160.245 116.741 157.075 117.257 153.941 116.907L51.4135 105.441C42.483 104.442 33.9742 109.491 30.5713 117.808Z" fill="#000822"/>
<ellipse cx="147.926" cy="228.62" rx="49.0395" ry="52.0333" transform="rotate(22.2518 147.926 228.62)" fill="#000822"/>
<ellipse cx="403.623" cy="333.239" rx="49.0395" ry="52.0333" transform="rotate(22.2518 403.623 333.239)" fill="#000822"/>
</svg>
