<svg width="182" height="182" viewBox="0 0 182 182" fill="none" xmlns="http://www.w3.org/2000/svg">
<path d="M119.838 179.776C110.066 183.686 98.9052 181.392 91.4635 173.946L58.7543 141.215L58.7472 141.223L7.97146 90.4139C0.529802 82.9675 -1.76169 71.799 2.14542 62.0207L22.0845 12.1183L60.9283 50.9873L43.0987 68.8284L69.0308 94.7774L69.0372 94.771L113.034 138.797L130.864 120.955L169.708 159.824L119.838 179.776Z" fill="url(#paint0_linear_1_943)"/>
<path d="M119.838 179.776C110.066 183.686 98.9052 181.392 91.4635 173.946L58.7543 141.215L58.7472 141.223L7.97146 90.4139C0.529802 82.9675 -1.76169 71.799 2.14542 62.0207L22.0845 12.1183L60.9283 50.9873L43.0987 68.8284L69.0308 94.7774L69.0372 94.771L113.034 138.797L130.864 120.955L169.708 159.824L119.838 179.776Z" fill="url(#paint1_linear_1_943)"/>
<path d="M91.1929 46.1817L92.5695 46.3894C99.6456 47.5151 109.492 49.9738 118.267 56.3833C127.502 63.129 135.185 73.9857 137.525 91.1824L137.735 92.8666L137.763 93.3206C137.789 95.5709 136.106 97.5189 133.822 97.7774C131.537 98.0359 129.461 96.5123 128.984 94.3125L128.91 93.8649L128.729 92.4029C126.708 77.5062 120.251 68.8324 113.027 63.5563C105.875 58.332 97.623 56.1886 91.1929 55.1628L89.9306 54.9728L89.4846 54.8843C87.3007 54.341 85.8398 52.2218 86.1662 49.9461C86.4926 47.6704 88.4903 46.0473 90.7388 46.1398L91.1929 46.1817ZM91.0415 0.0184422L91.4924 0.0828463L94.112 0.61418C107.552 3.44208 125.936 8.98232 142.603 21.5536C160.227 34.8465 175.662 55.8013 181.5 88.9347L181.771 90.5223L181.822 90.9731C181.963 93.2196 180.381 95.2519 178.113 95.6263C175.844 96.0007 173.694 94.5846 173.105 92.4125L173.009 91.9681L172.756 90.4869C167.311 59.574 153.099 40.5938 137.256 28.6444C121.038 16.4113 102.83 11.341 89.7937 8.79994C87.3865 8.33073 85.8145 5.99844 86.2837 3.59126C86.7237 1.335 88.8006 -0.186395 91.0415 0.0184422ZM86.4318 26.3549C86.9011 23.9479 89.2319 22.3775 91.6389 22.8465C101.724 24.8122 116.449 28.839 129.74 38.8638C143.156 48.9829 154.831 65.0075 159.017 90.3693C159.416 92.7891 157.778 95.074 155.359 95.4733C152.939 95.8724 150.654 94.2348 150.255 91.8152C146.443 68.7169 135.998 54.7088 124.392 45.9547C112.66 37.1061 99.4606 33.4193 89.9402 31.5636C87.5331 31.0944 85.9626 28.7621 86.4318 26.3549Z" fill="url(#paint2_linear_1_943)"/>
<path d="M91.1929 46.1817L92.5695 46.3894C99.6456 47.5151 109.492 49.9738 118.267 56.3833C127.502 63.129 135.185 73.9857 137.525 91.1824L137.735 92.8666L137.763 93.3206C137.789 95.5709 136.106 97.5189 133.822 97.7774C131.537 98.0359 129.461 96.5123 128.984 94.3125L128.91 93.8649L128.729 92.4029C126.708 77.5062 120.251 68.8324 113.027 63.5563C105.875 58.332 97.623 56.1886 91.1929 55.1628L89.9306 54.9728L89.4846 54.8843C87.3007 54.341 85.8398 52.2218 86.1662 49.9461C86.4926 47.6704 88.4903 46.0473 90.7388 46.1398L91.1929 46.1817ZM91.0415 0.0184422L91.4924 0.0828463L94.112 0.61418C107.552 3.44208 125.936 8.98232 142.603 21.5536C160.227 34.8465 175.662 55.8013 181.5 88.9347L181.771 90.5223L181.822 90.9731C181.963 93.2196 180.381 95.2519 178.113 95.6263C175.844 96.0007 173.694 94.5846 173.105 92.4125L173.009 91.9681L172.756 90.4869C167.311 59.574 153.099 40.5938 137.256 28.6444C121.038 16.4113 102.83 11.341 89.7937 8.79994C87.3865 8.33073 85.8145 5.99844 86.2837 3.59126C86.7237 1.335 88.8006 -0.186395 91.0415 0.0184422ZM86.4318 26.3549C86.9011 23.9479 89.2319 22.3775 91.6389 22.8465C101.724 24.8122 116.449 28.839 129.74 38.8638C143.156 48.9829 154.831 65.0075 159.017 90.3693C159.416 92.7891 157.778 95.074 155.359 95.4733C152.939 95.8724 150.654 94.2348 150.255 91.8152C146.443 68.7169 135.998 54.7088 124.392 45.9547C112.66 37.1061 99.4606 33.4193 89.9402 31.5636C87.5331 31.0944 85.9626 28.7621 86.4318 26.3549Z" fill="url(#paint3_linear_1_943)"/>
<defs>
<linearGradient id="paint0_linear_1_943" x1="-62.1988" y1="156.465" x2="118.168" y2="65.328" gradientUnits="userSpaceOnUse">
<stop stop-color="white" stop-opacity="0.3"/>
<stop offset="1" stop-color="#0388FF"/>
</linearGradient>
<linearGradient id="paint1_linear_1_943" x1="-62.1988" y1="156.465" x2="118.168" y2="65.328" gradientUnits="userSpaceOnUse">
<stop stop-color="white" stop-opacity="0.3"/>
<stop offset="1" stop-color="#0388FF"/>
</linearGradient>
<linearGradient id="paint2_linear_1_943" x1="-62.1988" y1="156.465" x2="118.168" y2="65.328" gradientUnits="userSpaceOnUse">
<stop stop-color="white" stop-opacity="0.3"/>
<stop offset="1" stop-color="#0388FF"/>
</linearGradient>
<linearGradient id="paint3_linear_1_943" x1="-62.1988" y1="156.465" x2="118.168" y2="65.328" gradientUnits="userSpaceOnUse">
<stop stop-color="white" stop-opacity="0.3"/>
<stop offset="1" stop-color="#0388FF"/>
</linearGradient>
</defs>
</svg>
