<svg width="161" height="54" viewBox="0 0 161 54" fill="none" xmlns="http://www.w3.org/2000/svg">
<rect width="161" height="54" rx="7.8031" fill="#000822"/>
<path d="M34.0027 28.1062C34.0192 26.8605 34.3581 25.6392 34.9879 24.5557C35.6178 23.4723 36.5181 22.562 37.6051 21.9096C36.9146 20.9467 36.0036 20.1544 34.9445 19.5954C33.8854 19.0364 32.7074 18.7262 31.504 18.6894C28.937 18.4264 26.4485 20.1891 25.1404 20.1891C23.807 20.1891 21.793 18.7155 19.6242 18.7591C18.2214 18.8033 16.8543 19.2016 15.656 19.9151C14.4577 20.6285 13.4692 21.6329 12.7867 22.8302C9.83034 27.8275 12.0355 35.1718 14.8675 39.2112C16.2844 41.1892 17.9403 43.3986 20.1071 43.3203C22.2275 43.2344 23.0194 42.0002 25.5788 42.0002C28.1145 42.0002 28.8574 43.3203 31.0682 43.2704C33.3434 43.2344 34.7769 41.2837 36.1441 39.287C37.1622 37.8776 37.9455 36.3199 38.4653 34.6716C37.1434 34.1258 36.0154 33.2122 35.2218 32.0447C34.4283 30.8771 34.0043 29.5074 34.0027 28.1062Z" fill="white"/>
<path d="M29.8261 16.0325C31.0667 14.5786 31.6778 12.7098 31.5299 10.823C29.6346 11.0173 27.8839 11.9017 26.6266 13.2998C26.0118 13.9829 25.541 14.7775 25.241 15.6383C24.941 16.499 24.8178 17.4091 24.8782 18.3164C25.8262 18.326 26.764 18.1254 27.6211 17.7297C28.4782 17.3341 29.2321 16.7538 29.8261 16.0325Z" fill="white"/>
<path d="M51.4798 13.4428H54.0026C56.1826 13.4428 57.2431 14.739 57.2431 17.0904C57.2431 19.4418 56.1719 20.7541 54.0026 20.7541H51.4798V13.4428ZM52.6956 14.4658V19.731H53.8687C55.3149 19.731 55.9951 18.858 55.9951 17.1065C55.9951 15.3442 55.3095 14.4658 53.8687 14.4658H52.6956ZM61.0889 14.9961C62.5673 14.9961 63.601 15.9549 63.601 17.5457V18.2795C63.601 19.9239 62.5673 20.8505 61.0889 20.8505C59.5892 20.8505 58.5661 19.9346 58.5661 18.2848V17.551C58.5661 16.0031 59.6052 14.9961 61.0889 14.9961ZM61.0943 15.9549C60.248 15.9549 59.7659 16.6619 59.7659 17.61V18.242C59.7659 19.1901 60.2159 19.8917 61.0943 19.8917C61.962 19.8917 62.4066 19.1954 62.4066 18.242V17.61C62.4066 16.6619 61.9406 15.9549 61.0943 15.9549ZM72.3318 15.0925L70.8427 20.7541H69.6322L68.4485 16.5762H68.4163L67.254 20.7541H66.0381L64.4848 15.0925H65.765L66.6755 19.4097H66.7291L67.87 15.0925H68.9894L70.1625 19.4097H70.216L71.1427 15.0925H72.3318ZM73.5101 20.7541V15.0925H74.6778V16.1102H74.7367C74.8814 15.6656 75.2938 15.0068 76.44 15.0068C77.5809 15.0068 78.3469 15.6388 78.3469 16.9297V20.7541H77.1578V17.2779C77.1578 16.4155 76.7078 16.0191 76.0383 16.0191C75.1599 16.0191 74.6992 16.694 74.6992 17.61V20.7541H73.5101ZM80.1466 20.7541V13.0571H81.3357V20.7541H80.1466ZM85.4172 14.9961C86.8955 14.9961 87.9293 15.9549 87.9293 17.5457V18.2795C87.9293 19.9239 86.8955 20.8505 85.4172 20.8505C83.9174 20.8505 82.8944 19.9346 82.8944 18.2848V17.551C82.8944 16.0031 83.9335 14.9961 85.4172 14.9961ZM85.4225 15.9549C84.5762 15.9549 84.0942 16.6619 84.0942 17.61V18.242C84.0942 19.1901 84.5441 19.8917 85.4225 19.8917C86.2902 19.8917 86.7348 19.1954 86.7348 18.242V17.61C86.7348 16.6619 86.2688 15.9549 85.4225 15.9549ZM91.0091 20.8398C89.9111 20.8398 89.1558 20.1649 89.1558 19.1097C89.1558 18.1081 89.8522 17.4332 91.1591 17.4332H92.5892V16.9029C92.5892 16.2548 92.1768 15.9495 91.5233 15.9495C90.8806 15.9495 90.5913 16.2173 90.5003 16.5923H89.3701C89.4397 15.6442 90.1521 15.0068 91.5608 15.0068C92.7713 15.0068 93.773 15.5103 93.773 16.919V20.7541H92.6428V20.0203H92.5892C92.3375 20.4541 91.8447 20.8398 91.0091 20.8398ZM91.3787 19.9185C92.0536 19.9185 92.5892 19.4579 92.5892 18.8419V18.2313H91.3466C90.6556 18.2313 90.3503 18.5794 90.3503 19.0508C90.3503 19.64 90.8431 19.9185 91.3787 19.9185ZM97.4367 15.0175C98.2347 15.0175 98.8454 15.371 99.065 15.9441H99.1239V13.0571H100.313V20.7541H99.156V19.8489H99.0971C98.9257 20.422 98.2455 20.8291 97.4206 20.8291C96.119 20.8291 95.2727 19.9024 95.2727 18.408V17.4386C95.2727 15.9441 96.1351 15.0175 97.4367 15.0175ZM97.7687 15.9924C96.976 15.9924 96.4832 16.5815 96.4832 17.61V18.2313C96.4832 19.265 96.9814 19.8542 97.7955 19.8542C98.599 19.8542 99.1239 19.2704 99.1239 18.3063V17.4493C99.1239 16.5762 98.5508 15.9924 97.7687 15.9924ZM106.842 14.9961C108.321 14.9961 109.354 15.9549 109.354 17.5457V18.2795C109.354 19.9239 108.321 20.8505 106.842 20.8505C105.343 20.8505 104.319 19.9346 104.319 18.2848V17.551C104.319 16.0031 105.359 14.9961 106.842 14.9961ZM106.848 15.9549C106.001 15.9549 105.519 16.6619 105.519 17.61V18.242C105.519 19.1901 105.969 19.8917 106.848 19.8917C107.715 19.8917 108.16 19.1954 108.16 18.242V17.61C108.16 16.6619 107.694 15.9549 106.848 15.9549ZM110.886 20.7541V15.0925H112.054V16.1102H112.113C112.258 15.6656 112.67 15.0068 113.816 15.0068C114.957 15.0068 115.723 15.6388 115.723 16.9297V20.7541H114.534V17.2779C114.534 16.4155 114.084 16.0191 113.414 16.0191C112.536 16.0191 112.075 16.694 112.075 17.61V20.7541H110.886ZM120.324 15.13V13.7159H121.486V15.13H122.756V16.062H121.486V19.0669C121.486 19.6828 121.717 19.8542 122.354 19.8542C122.515 19.8542 122.729 19.8435 122.82 19.8328V20.7434C122.724 20.7594 122.327 20.7916 122.059 20.7916C120.683 20.7916 120.308 20.2988 120.308 19.1633V16.062H119.446V15.13H120.324ZM124.256 20.7541V13.0571H125.439V16.1102H125.498C125.621 15.7085 126.082 15.0068 127.218 15.0068C128.321 15.0068 129.108 15.6442 129.108 16.9351V20.7541H127.925V17.2832C127.925 16.4209 127.448 16.0191 126.773 16.0191C125.921 16.0191 125.439 16.6887 125.439 17.61V20.7541H124.256ZM133.099 20.8505C131.556 20.8505 130.597 19.9024 130.597 18.3063V17.5403C130.597 15.9334 131.647 14.9961 133.029 14.9961C134.449 14.9961 135.45 15.9816 135.45 17.5403V18.2045H131.776V18.483C131.776 19.2972 132.258 19.8971 133.093 19.8971C133.715 19.8971 134.143 19.6025 134.224 19.249H135.386C135.316 19.9024 134.625 20.8505 133.099 20.8505ZM131.776 17.4278H134.288V17.3528C134.288 16.5012 133.79 15.9334 133.035 15.9334C132.279 15.9334 131.776 16.5012 131.776 17.3528V17.4278Z" fill="white"/>
<path d="M53.2045 40.6859H50.7299L55.7648 26.0632H58.4858L63.51 40.6859H60.939L59.6427 36.6365H54.5114L53.2045 40.6859ZM57.136 28.5914H57.0396L55.0578 34.7725H59.0964L57.136 28.5914ZM70.3395 40.8465C68.8719 40.8465 67.7578 40.1502 67.1579 39.1111H67.0722V44.446H64.694V29.3627H67.0079V31.0231H67.0936C67.7149 29.9411 68.8719 29.2127 70.3931 29.2127C72.9319 29.2127 74.7424 31.1302 74.7424 34.5154V35.5224C74.7424 38.8861 72.9534 40.8465 70.3395 40.8465ZM69.7931 38.8861C71.3036 38.8861 72.332 37.6756 72.332 35.3938V34.6011C72.332 32.405 71.3679 31.1517 69.7503 31.1517C68.0899 31.1517 67.0507 32.5015 67.0507 34.5904V35.3938C67.0507 37.5364 68.1006 38.8861 69.7931 38.8861ZM82.4289 40.8465C80.9613 40.8465 79.8472 40.1502 79.2473 39.1111H79.1616V44.446H76.7834V29.3627H79.0973V31.0231H79.183C79.8043 29.9411 80.9613 29.2127 82.4824 29.2127C85.0213 29.2127 86.8317 31.1302 86.8317 34.5154V35.5224C86.8317 38.8861 85.0427 40.8465 82.4289 40.8465ZM81.8825 38.8861C83.393 38.8861 84.4214 37.6756 84.4214 35.3938V34.6011C84.4214 32.405 83.4573 31.1517 81.8397 31.1517C80.1792 31.1517 79.1401 32.5015 79.1401 34.5904V35.3938C79.1401 37.5364 80.19 38.8861 81.8825 38.8861ZM91.7601 36.6258H94.1382C94.2454 37.8899 95.3595 38.9718 97.427 38.9718C99.3231 38.9718 100.448 38.0827 100.448 36.7008C100.448 35.5867 99.6981 34.9868 98.134 34.6118L95.7344 34.0119C93.849 33.5727 92.1564 32.4479 92.1564 30.0697C92.1564 27.2737 94.5989 25.7418 97.4377 25.7418C100.277 25.7418 102.644 27.2737 102.698 30.0054H100.362C100.255 28.7628 99.3017 27.7344 97.4056 27.7344C95.7344 27.7344 94.5989 28.5271 94.5989 29.8876C94.5989 30.841 95.2631 31.5266 96.6236 31.8373L99.0125 32.4265C101.209 32.9621 102.88 34.0012 102.88 36.4865C102.88 39.3575 100.555 40.9751 97.2449 40.9751C93.1741 40.9751 91.8136 38.5969 91.7601 36.6258ZM105.778 29.3627V26.6095H108.113V29.3627H110.32V31.2695H108.113V37.3114C108.113 38.5433 108.574 38.8861 109.848 38.8861C110.052 38.8861 110.245 38.8861 110.384 38.8647V40.6859C110.191 40.718 109.741 40.7608 109.259 40.7608C106.506 40.7608 105.746 39.7753 105.746 37.5042V31.2695H104.182V29.3627H105.778ZM116.742 29.1698C119.999 29.1698 121.766 31.4623 121.766 34.5476V35.4581C121.766 38.6505 120.01 40.8787 116.742 40.8787C113.475 40.8787 111.697 38.6505 111.697 35.4581V34.5476C111.697 31.473 113.486 29.1698 116.742 29.1698ZM116.742 31.0767C114.975 31.0767 114.096 32.5229 114.096 34.5797V35.4474C114.096 37.4721 114.964 38.9611 116.742 38.9611C118.521 38.9611 119.378 37.4828 119.378 35.4474V34.5797C119.378 32.5122 118.51 31.0767 116.742 31.0767ZM123.775 40.6859V29.3627H126.154V30.8517H126.239C126.528 30.1447 127.375 29.202 128.95 29.202C129.26 29.202 129.528 29.2234 129.753 29.2663V31.3659C129.549 31.3124 129.132 31.2802 128.735 31.2802C126.828 31.2802 126.186 32.4586 126.186 33.9798V40.6859H123.775ZM135.522 40.8787C132.49 40.8787 130.562 38.8754 130.562 35.5224V34.3762C130.562 31.2159 132.447 29.1698 135.425 29.1698C138.446 29.1698 140.268 31.2909 140.268 34.4833V35.5652H132.908V35.8331C132.908 37.7399 133.936 39.004 135.554 39.004C136.765 39.004 137.589 38.4041 137.879 37.4292H140.139C139.796 39.2611 138.318 40.8787 135.522 40.8787ZM132.908 33.9048H137.943V33.8834C137.943 32.2765 136.947 31.0124 135.436 31.0124C133.904 31.0124 132.908 32.2765 132.908 33.8834V33.9048Z" fill="white"/>
</svg>
