<svg width="28" height="34" viewBox="0 0 28 34" fill="none" xmlns="http://www.w3.org/2000/svg">
<path d="M23.0047 18.1062C23.0211 16.8605 23.36 15.6392 23.9899 14.5557C24.6197 13.4723 25.5201 12.562 26.6071 11.9096C25.9165 10.9467 25.0055 10.1544 23.9464 9.59536C22.8873 9.03637 21.7093 8.72618 20.506 8.68942C17.939 8.42636 15.4504 10.1891 14.1423 10.1891C12.8089 10.1891 10.7949 8.71554 8.62617 8.7591C7.22336 8.80335 5.85622 9.20161 4.65794 9.91507C3.45967 10.6285 2.47112 11.6329 1.78863 12.8302C-1.16771 17.8275 1.03746 25.1718 3.86944 29.2112C5.28635 31.1892 6.94229 33.3986 9.10909 33.3203C11.2294 33.2344 12.0213 32.0002 14.5807 32.0002C17.1164 32.0002 17.8594 33.3203 20.0701 33.2704C22.3454 33.2344 23.7788 31.2837 25.1461 29.287C26.1641 27.8776 26.9475 26.3199 27.4672 24.6716C26.1454 24.1258 25.0173 23.2122 24.2238 22.0447C23.4302 20.8771 23.0062 19.5074 23.0047 18.1062Z" fill="white"/>
<path d="M18.8251 6.03248C20.0657 4.57855 20.6769 2.70977 20.5289 0.822998C18.6336 1.01734 16.8829 1.90169 15.6256 3.29983C15.0109 3.98286 14.54 4.77748 14.2401 5.63826C13.9401 6.49905 13.8168 7.40912 13.8773 8.31644C14.8252 8.32597 15.7631 8.12537 16.6201 7.72975C17.4772 7.33413 18.2311 6.7538 18.8251 6.03248Z" fill="white"/>
</svg>
