<svg width="44" height="44" viewBox="0 0 44 44" fill="none" xmlns="http://www.w3.org/2000/svg">
<circle cx="22" cy="22" r="21.6079" stroke="#000822" stroke-opacity="0.24" stroke-width="0.784173"/>
<path d="M16.6135 13.3815C16.1337 13.3815 15.6737 13.5721 15.3345 13.9113C14.9953 14.2505 14.8047 14.7106 14.8047 15.1903C14.8047 15.67 14.9953 16.1301 15.3345 16.4693C15.6737 16.8085 16.1337 16.9991 16.6135 16.9991C17.0932 16.9991 17.5533 16.8085 17.8925 16.4693C18.2317 16.1301 18.4222 15.67 18.4222 15.1903C18.4222 14.7106 18.2317 14.2505 17.8925 13.9113C17.5533 13.5721 17.0932 13.3815 16.6135 13.3815ZM14.9111 18.4887C14.8829 18.4887 14.8558 18.4999 14.8359 18.5198C14.8159 18.5398 14.8047 18.5669 14.8047 18.5951V29.6605C14.8047 29.7193 14.8524 29.7669 14.9111 29.7669H18.3158C18.3441 29.7669 18.3711 29.7557 18.3911 29.7358C18.411 29.7158 18.4222 29.6888 18.4222 29.6605V18.5951C18.4222 18.5669 18.411 18.5398 18.3911 18.5198C18.3711 18.4999 18.3441 18.4887 18.3158 18.4887H14.9111ZM20.4438 18.4887C20.4156 18.4887 20.3885 18.4999 20.3686 18.5198C20.3486 18.5398 20.3374 18.5669 20.3374 18.5951V29.6605C20.3374 29.7193 20.3851 29.7669 20.4438 29.7669H23.8486C23.8768 29.7669 23.9039 29.7557 23.9238 29.7358C23.9438 29.7158 23.955 29.6888 23.955 29.6605V23.7022C23.955 23.2789 24.1231 22.873 24.4224 22.5737C24.7217 22.2744 25.1277 22.1062 25.551 22.1062C25.9742 22.1062 26.3802 22.2744 26.6795 22.5737C26.9788 22.873 27.1469 23.2789 27.1469 23.7022V29.6605C27.1469 29.7193 27.1946 29.7669 27.2533 29.7669H30.6581C30.6863 29.7669 30.7134 29.7557 30.7333 29.7358C30.7533 29.7158 30.7645 29.6888 30.7645 29.6605V22.3233C30.7645 20.2574 28.9685 18.6419 26.9129 18.8283C26.2769 18.8866 25.654 19.044 25.0666 19.2948L23.955 19.7714V18.5951C23.955 18.5669 23.9438 18.5398 23.9238 18.5198C23.9039 18.4999 23.8768 18.4887 23.8486 18.4887H20.4438Z" fill="#000822"/>
</svg>
