<svg width="44" height="44" viewBox="0 0 44 44" fill="none" xmlns="http://www.w3.org/2000/svg">
<circle cx="22" cy="22" r="21.6079" stroke="#000822" stroke-opacity="0.24" stroke-width="0.784173"/>
<path d="M22.8757 13.4878C23.8333 13.4903 24.3193 13.4955 24.7389 13.5074L24.9041 13.5133C25.0947 13.5201 25.2829 13.5287 25.5101 13.5389C26.4158 13.5814 27.0338 13.7244 27.576 13.9347C28.1378 14.1509 28.611 14.4437 29.0843 14.9161C29.5173 15.3415 29.8522 15.8562 30.0657 16.4244C30.2759 16.9666 30.4189 17.5846 30.4615 18.4911C30.4717 18.7175 30.4802 18.9056 30.487 19.0971L30.4921 19.2623C30.5049 19.6811 30.51 20.1671 30.5117 21.1247L30.5126 21.7597V22.8747C30.5146 23.4956 30.5081 24.1164 30.493 24.7371L30.4879 24.9023C30.4811 25.0938 30.4726 25.2819 30.4624 25.5083C30.4198 26.4148 30.2751 27.0319 30.0657 27.575C29.8522 28.1432 29.5173 28.6579 29.0843 29.0833C28.6589 29.5163 28.1442 29.8512 27.576 30.0647C27.0338 30.275 26.4158 30.418 25.5101 30.4605L24.9041 30.4861L24.7389 30.4912C24.3193 30.5031 23.8333 30.509 22.8757 30.5107L22.2407 30.5116H21.1265C20.5054 30.5138 19.8842 30.5073 19.2632 30.492L19.0981 30.4869C18.896 30.4793 18.694 30.4705 18.4921 30.4605C17.5864 30.418 16.9684 30.275 16.4254 30.0647C15.8575 29.8511 15.343 29.5162 14.9179 29.0833C14.4846 28.658 14.1494 28.1433 13.9356 27.575C13.7254 27.0328 13.5824 26.4148 13.5398 25.5083L13.5143 24.9023L13.51 24.7371C13.4944 24.1165 13.4873 23.4956 13.4888 22.8747V21.1247C13.4864 20.5038 13.4927 19.883 13.5075 19.2623L13.5134 19.0971C13.5203 18.9056 13.5288 18.7175 13.539 18.4911C13.5815 17.5846 13.7245 16.9675 13.9348 16.4244C14.149 15.856 14.4848 15.3412 14.9188 14.9161C15.3436 14.4833 15.8578 14.1484 16.4254 13.9347C16.9684 13.7244 17.5855 13.5814 18.4921 13.5389C18.7185 13.5287 18.9074 13.5201 19.0981 13.5133L19.2632 13.5082C19.8839 13.4931 20.5048 13.4866 21.1256 13.4886L22.8757 13.4878ZM22.0007 17.7437C20.8719 17.7437 19.7894 18.1921 18.9913 18.9903C18.1931 19.7884 17.7447 20.8709 17.7447 21.9997C17.7447 23.1284 18.1931 24.211 18.9913 25.0091C19.7894 25.8073 20.8719 26.2556 22.0007 26.2556C23.1294 26.2556 24.2119 25.8073 25.0101 25.0091C25.8082 24.211 26.2566 23.1284 26.2566 21.9997C26.2566 20.8709 25.8082 19.7884 25.0101 18.9903C24.2119 18.1921 23.1294 17.7437 22.0007 17.7437ZM22.0007 19.4461C22.336 19.4461 22.6681 19.5121 22.9779 19.6403C23.2877 19.7686 23.5693 19.9567 23.8064 20.1937C24.0436 20.4308 24.2317 20.7123 24.3601 21.0221C24.4885 21.3319 24.5546 21.6639 24.5547 21.9993C24.5547 22.3346 24.4887 22.6667 24.3605 22.9765C24.2322 23.2863 24.0441 23.5679 23.807 23.805C23.57 24.0422 23.2885 24.2303 22.9787 24.3587C22.6689 24.4871 22.3369 24.5532 22.0015 24.5533C21.3243 24.5533 20.6748 24.2842 20.1959 23.8053C19.717 23.3265 19.448 22.6769 19.448 21.9997C19.448 21.3224 19.717 20.6729 20.1959 20.194C20.6748 19.7152 21.3243 19.4461 22.0015 19.4461M26.4703 16.467C26.1881 16.467 25.9175 16.5791 25.7179 16.7786C25.5184 16.9781 25.4063 17.2488 25.4063 17.5309C25.4063 17.8131 25.5184 18.0838 25.7179 18.2833C25.9175 18.4828 26.1881 18.5949 26.4703 18.5949C26.7525 18.5949 27.0231 18.4828 27.2226 18.2833C27.4222 18.0838 27.5343 17.8131 27.5343 17.5309C27.5343 17.2488 27.4222 16.9781 27.2226 16.7786C27.0231 16.5791 26.7525 16.467 26.4703 16.467Z" fill="#000822"/>
</svg>
