<svg width="31" height="31" viewBox="0 0 31 31" fill="none" xmlns="http://www.w3.org/2000/svg">
<g clip-path="url(#clip0_93_1188)">
<mask id="mask0_93_1188" style="mask-type:luminance" maskUnits="userSpaceOnUse" x="0" y="0" width="31" height="31">
<path d="M30.4512 0.140625H0.451172V30.1406H30.4512V0.140625Z" fill="white"/>
</mask>
<g mask="url(#mask0_93_1188)">
<path d="M21.7012 2.64062H9.20117C5.75117 2.64062 2.95117 5.42812 2.95117 8.86562V16.3406V17.5906C2.95117 21.0281 5.75117 23.8156 9.20117 23.8156H11.0762C11.4137 23.8156 11.8637 24.0406 12.0762 24.3156L13.9512 26.8031C14.7762 27.9031 16.1262 27.9031 16.9512 26.8031L18.8262 24.3156C19.0637 24.0031 19.4387 23.8156 19.8262 23.8156H21.7012C25.1512 23.8156 27.9512 21.0281 27.9512 17.5906V8.86562C27.9512 5.42812 25.1512 2.64062 21.7012 2.64062ZM10.4512 15.1406C9.75117 15.1406 9.20117 14.5781 9.20117 13.8906C9.20117 13.2031 9.76367 12.6406 10.4512 12.6406C11.1387 12.6406 11.7012 13.2031 11.7012 13.8906C11.7012 14.5781 11.1512 15.1406 10.4512 15.1406ZM15.4512 15.1406C14.7512 15.1406 14.2012 14.5781 14.2012 13.8906C14.2012 13.2031 14.7637 12.6406 15.4512 12.6406C16.1387 12.6406 16.7012 13.2031 16.7012 13.8906C16.7012 14.5781 16.1512 15.1406 15.4512 15.1406ZM20.4512 15.1406C19.7512 15.1406 19.2012 14.5781 19.2012 13.8906C19.2012 13.2031 19.7637 12.6406 20.4512 12.6406C21.1387 12.6406 21.7012 13.2031 21.7012 13.8906C21.7012 14.5781 21.1512 15.1406 20.4512 15.1406Z" fill="white"/>
<path d="M21.7012 2.64062H9.20117C5.75117 2.64062 2.95117 5.42812 2.95117 8.86562V16.3406V17.5906C2.95117 21.0281 5.75117 23.8156 9.20117 23.8156H11.0762C11.4137 23.8156 11.8637 24.0406 12.0762 24.3156L13.9512 26.8031C14.7762 27.9031 16.1262 27.9031 16.9512 26.8031L18.8262 24.3156C19.0637 24.0031 19.4387 23.8156 19.8262 23.8156H21.7012C25.1512 23.8156 27.9512 21.0281 27.9512 17.5906V8.86562C27.9512 5.42812 25.1512 2.64062 21.7012 2.64062ZM10.4512 15.1406C9.75117 15.1406 9.20117 14.5781 9.20117 13.8906C9.20117 13.2031 9.76367 12.6406 10.4512 12.6406C11.1387 12.6406 11.7012 13.2031 11.7012 13.8906C11.7012 14.5781 11.1512 15.1406 10.4512 15.1406ZM15.4512 15.1406C14.7512 15.1406 14.2012 14.5781 14.2012 13.8906C14.2012 13.2031 14.7637 12.6406 15.4512 12.6406C16.1387 12.6406 16.7012 13.2031 16.7012 13.8906C16.7012 14.5781 16.1512 15.1406 15.4512 15.1406ZM20.4512 15.1406C19.7512 15.1406 19.2012 14.5781 19.2012 13.8906C19.2012 13.2031 19.7637 12.6406 20.4512 12.6406C21.1387 12.6406 21.7012 13.2031 21.7012 13.8906C21.7012 14.5781 21.1512 15.1406 20.4512 15.1406Z" fill="url(#paint0_linear_93_1188)"/>
</g>
</g>
<defs>
<linearGradient id="paint0_linear_93_1188" x1="-0.792969" y1="33.4515" x2="16.7749" y2="3.18002" gradientUnits="userSpaceOnUse">
<stop stop-color="white" stop-opacity="0"/>
<stop offset="1" stop-color="#0388FF"/>
</linearGradient>
<clipPath id="clip0_93_1188">
<rect width="30" height="30" fill="white" transform="translate(0.451172 0.140625)"/>
</clipPath>
</defs>
</svg>
