<svg width="59" height="60" viewBox="0 0 59 60" fill="none" xmlns="http://www.w3.org/2000/svg">
<circle cx="29.5" cy="30" r="29.1079" stroke="white" stroke-opacity="0.24" stroke-width="0.784173"/>
<g clip-path="url(#clip0_1_5132)">
<mask id="mask0_1_5132" style="mask-type:luminance" maskUnits="userSpaceOnUse" x="16" y="16" width="28" height="28">
<path d="M44 16H16V44H44V16Z" fill="white"/>
</mask>
<g mask="url(#mask0_1_5132)">
<path d="M30.0004 32.5311C27.5154 32.5311 25.4854 30.5128 25.4854 28.0161C25.4854 25.5194 27.5154 23.5127 30.0004 23.5127C32.4854 23.5127 34.5154 25.531 34.5154 28.0278C34.5154 30.5244 32.4854 32.5311 30.0004 32.5311ZM30.0004 25.2627C28.4837 25.2627 27.2354 26.4994 27.2354 28.0278C27.2354 29.5561 28.472 30.7928 30.0004 30.7928C31.5287 30.7928 32.7654 29.5561 32.7654 28.0278C32.7654 26.4994 31.517 25.2627 30.0004 25.2627Z" fill="#0388FF"/>
<path d="M29.9999 42.5533C28.2733 42.5533 26.535 41.9 25.1816 40.605C21.74 37.2916 17.9366 32.0066 19.3716 25.7183C20.6666 20.0133 25.6483 17.4583 29.9999 17.4583C29.9999 17.4583 29.9999 17.4583 30.0116 17.4583C34.3633 17.4583 39.3449 20.0133 40.6399 25.73C42.0633 32.0183 38.2599 37.2916 34.8183 40.605C33.4649 41.9 31.7266 42.5533 29.9999 42.5533ZM29.9999 19.2083C26.605 19.2083 22.2416 21.0166 21.0866 26.1033C19.8266 31.5983 23.28 36.335 26.4066 39.3333C28.4249 41.2816 31.5866 41.2816 33.6049 39.3333C36.7199 36.335 40.1733 31.5983 38.9366 26.1033C37.7699 21.0166 33.3949 19.2083 29.9999 19.2083Z" fill="#0388FF"/>
</g>
</g>
<defs>
<clipPath id="clip0_1_5132">
<rect width="28" height="28" fill="white" transform="translate(16 16)"/>
</clipPath>
</defs>
</svg>
