<svg width="485" height="814" viewBox="0 0 485 814" fill="none" xmlns="http://www.w3.org/2000/svg">
<g opacity="0.44">
<path d="M490.399 435.514L258.478 540.095V679.536L235.383 656.333L162.767 583.375L122.701 543.121L258.483 481.821L354.518 438.54L552.497 349.179C602.772 326.407 614.909 260.139 575.916 220.963L399.523 43.7352C347.53 -8.5027 258.478 28.5153 258.478 102.341V213.937L14.6288 324.023L14.6288 429.683L110.664 386.402L328.086 288.405L355.157 276.211V170.335L354.513 170.656V134.933L490.399 271.458L430.135 298.656L430.245 298.872L173.186 415.11L172.971 414.678L60.6089 465.406C58.6761 466.269 56.8479 467.132 55.1298 468.106C31.7103 480.842 17.6409 503.508 14.6343 527.68C11.7323 550.778 18.7147 575.165 37.0847 593.622L213.577 770.839C265.57 823.077 354.513 786.059 354.513 712.128V602.474L490.399 541.173L599 492.283V386.407L490.399 435.514Z" fill="url(#paint0_linear_665_4871)"/>
</g>
<defs>
<linearGradient id="paint0_linear_665_4871" x1="306.5" y1="19.2852" x2="306.5" y2="795.285" gradientUnits="userSpaceOnUse">
<stop stop-color="#0168FF"/>
<stop offset="1" stop-color="#05AFFF" stop-opacity="0"/>
</linearGradient>
</defs>
</svg>
