<svg width="126" height="129" viewBox="0 0 126 129" fill="none" xmlns="http://www.w3.org/2000/svg">
<rect x="0.525391" y="0.542969" width="125.013" height="128.178" rx="21.1893" fill="#0388FF"/>
<path d="M82.6818 69.912L58.8108 80.664V95.0001L56.4338 92.6146L48.9596 85.1138L44.8358 80.9752L58.8114 74.6729L68.696 70.2231L89.0734 61.0358C94.2481 58.6946 95.4972 51.8815 91.4839 47.8538L73.3283 29.6328C67.9768 24.2622 58.8108 28.068 58.8108 35.6581V47.1314L33.7122 58.4495V69.3125L43.5968 64.8627L65.9755 54.7875L68.7617 53.5339V42.6487L68.6954 42.6817V39.0089L82.6818 53.0453L76.479 55.8415L76.4903 55.8637L50.032 67.8142L50.0099 67.7699L38.4448 72.9852C38.2458 73.074 38.0577 73.1627 37.8808 73.2628C35.4703 74.5722 34.0222 76.9026 33.7127 79.3877C33.4141 81.7624 34.1327 84.2697 36.0235 86.1672L54.1893 104.387C59.5408 109.758 68.6954 105.952 68.6954 98.351V87.0773L82.6818 80.775L93.8598 75.7485V64.8633L82.6818 69.912Z" fill="#FEFEFE"/>
</svg>
