<svg width="478" height="623" viewBox="0 0 478 623" fill="none" xmlns="http://www.w3.org/2000/svg">
<path d="M238.821 157.84L438.148 252.751L238.821 353.629L39.6289 252.757L238.821 157.84Z" fill="#000822"/>
<path d="M238.821 157.84L438.148 252.751L238.821 353.629L39.6289 252.757L238.821 157.84Z" fill="url(#paint0_linear_93_462)"/>
<g filter="url(#filter0_f_93_462)">
<path d="M312.95 548.145L276.212 75L208.31 75L165.245 548.145L312.95 548.145Z" fill="url(#paint1_linear_93_462)"/>
</g>
<path d="M39.5283 505.745V252.68L238.791 353.595V606.789L39.5283 505.745Z" fill="#000822"/>
<path d="M93.7822 509.628L61.9668 494.29" stroke="#0388FF" stroke-width="6.1296" stroke-linecap="round"/>
<path d="M438.051 506.01V252.68L238.794 353.595V606.779L438.051 506.01Z" fill="#000822"/>
<path d="M238.89 353.565L39.5602 252.692L0.973633 370.804L198.136 476.5L238.89 353.565Z" fill="url(#paint2_linear_93_462)"/>
<path d="M238.802 353.595L437.89 252.617L477.221 370.805L280.058 476.5L238.802 353.595Z" fill="#000822"/>
<path d="M238.802 353.595L437.89 252.617L477.221 370.805L280.058 476.5L238.802 353.595Z" fill="url(#paint3_linear_93_462)"/>
<defs>
<filter id="filter0_f_93_462" x="90.9451" y="0.699997" width="296.305" height="621.745" filterUnits="userSpaceOnUse" color-interpolation-filters="sRGB">
<feFlood flood-opacity="0" result="BackgroundImageFix"/>
<feBlend mode="normal" in="SourceGraphic" in2="BackgroundImageFix" result="shape"/>
<feGaussianBlur stdDeviation="37.15" result="effect1_foregroundBlur_93_462"/>
</filter>
<linearGradient id="paint0_linear_93_462" x1="238.888" y1="312.163" x2="238.888" y2="-14.6028" gradientUnits="userSpaceOnUse">
<stop stop-color="#0388FF" stop-opacity="0"/>
<stop offset="1" stop-color="#0388FF" stop-opacity="0.46"/>
</linearGradient>
<linearGradient id="paint1_linear_93_462" x1="239.098" y1="548.145" x2="239.098" y2="75" gradientUnits="userSpaceOnUse">
<stop stop-color="#0388FF"/>
<stop offset="1" stop-color="#000822"/>
</linearGradient>
<linearGradient id="paint2_linear_93_462" x1="0.973633" y1="364.596" x2="272.714" y2="382.296" gradientUnits="userSpaceOnUse">
<stop stop-color="#07102D"/>
<stop offset="1" stop-color="#0388FF"/>
</linearGradient>
<linearGradient id="paint3_linear_93_462" x1="477.221" y1="364.559" x2="204.911" y2="382.328" gradientUnits="userSpaceOnUse">
<stop stop-color="#07102D"/>
<stop offset="1" stop-color="#0388FF"/>
</linearGradient>
</defs>
</svg>
