<svg width="66" height="66" viewBox="0 0 66 66" fill="none" xmlns="http://www.w3.org/2000/svg">
<g clip-path="url(#clip0_1_242)">
<rect width="66" height="66" rx="9.85075" fill="#0388FF"/>
<path d="M42.8789 34.9077L30.4191 40.5199V48.0028L29.1784 46.7576L25.2772 42.8425L23.1247 40.6823L30.4194 37.3927L35.5788 35.0701L46.215 30.2747C48.916 29.0527 49.5681 25.4965 47.4732 23.3942L37.9967 13.8835C35.2034 11.0802 30.4191 13.0667 30.4191 17.0285V23.0171L17.3186 28.9247V34.5948L22.478 32.2722L34.1588 27.0133L35.6131 26.359V20.6773L35.5785 20.6945V18.7775L42.8789 26.1039L39.6413 27.5635L39.6472 27.575L25.8369 33.8128L25.8254 33.7896L19.7888 36.5118C19.685 36.5581 19.5868 36.6044 19.4945 36.6567C18.2363 37.3401 17.4804 38.5565 17.3189 39.8536C17.163 41.0932 17.5381 42.4019 18.525 43.3923L28.0069 52.9024C30.8002 55.7057 35.5785 53.7192 35.5785 49.7518V43.8673L42.8789 40.5778L48.7134 37.9541V32.2725L42.8789 34.9077Z" fill="white"/>
</g>
<defs>
<clipPath id="clip0_1_242">
<rect width="66" height="66" fill="white"/>
</clipPath>
</defs>
</svg>
