<svg width="24" height="25" viewBox="0 0 24 25" fill="none" xmlns="http://www.w3.org/2000/svg">
<g clip-path="url(#clip0_93_1073)">
<mask id="mask0_93_1073" style="mask-type:luminance" maskUnits="userSpaceOnUse" x="0" y="0" width="24" height="25">
<path d="M24 0.570312H0V24.5703H24V0.570312Z" fill="white"/>
</mask>
<g mask="url(#mask0_93_1073)">
<path d="M12 15.5703C13.6569 15.5703 15 14.2272 15 12.5703C15 10.9134 13.6569 9.57031 12 9.57031C10.3431 9.57031 9 10.9134 9 12.5703C9 14.2272 10.3431 15.5703 12 15.5703Z" stroke="#8F929E" stroke-width="1.5" stroke-miterlimit="10" stroke-linecap="round" stroke-linejoin="round"/>
<path d="M2 13.4497V11.6897C2 10.6497 2.85 9.78976 3.9 9.78976C5.71 9.78976 6.45 8.50976 5.54 6.93976C5.02 6.03976 5.33 4.86976 6.24 4.34976L7.97 3.35976C8.76 2.88976 9.78 3.16976 10.25 3.95976L10.36 4.14976C11.26 5.71976 12.74 5.71976 13.65 4.14976L13.76 3.95976C14.23 3.16976 15.25 2.88976 16.04 3.35976L17.77 4.34976C18.68 4.86976 18.99 6.03976 18.47 6.93976C17.56 8.50976 18.3 9.78976 20.11 9.78976C21.15 9.78976 22.01 10.6397 22.01 11.6897V13.4497C22.01 14.4897 21.16 15.3497 20.11 15.3497C18.3 15.3497 17.56 16.6297 18.47 18.1997C18.99 19.1097 18.68 20.2697 17.77 20.7897L16.04 21.7797C15.25 22.2497 14.23 21.9697 13.76 21.1797L13.65 20.9897C12.75 19.4197 11.27 19.4197 10.36 20.9897L10.25 21.1797C9.78 21.9697 8.76 22.2497 7.97 21.7797L6.24 20.7897C5.33 20.2697 5.02 19.0997 5.54 18.1997C6.45 16.6297 5.71 15.3497 3.9 15.3497C2.85 15.3497 2 14.4897 2 13.4497Z" stroke="#8F929E" stroke-width="1.5" stroke-miterlimit="10" stroke-linecap="round" stroke-linejoin="round"/>
</g>
</g>
<defs>
<clipPath id="clip0_93_1073">
<rect width="24" height="24" fill="white" transform="translate(0 0.570312)"/>
</clipPath>
</defs>
</svg>
