<svg width="208" height="114" viewBox="0 0 208 114" fill="none" xmlns="http://www.w3.org/2000/svg">
<rect x="0.5" y="0.5" width="207" height="113" rx="17.5" fill="white"/>
<rect x="0.5" y="0.5" width="207" height="113" rx="17.5" stroke="#CAD0DF"/>
<path d="M131.902 78.8347C131.902 79.8049 131.246 80.5041 130.304 80.5041C129.334 80.5041 128.706 79.7621 128.706 78.8347C128.706 77.9072 129.334 77.1653 130.304 77.1653C131.246 77.1653 131.902 77.9072 131.902 78.8347ZM87.5559 77.1653C86.5429 77.1653 85.9579 77.9072 85.9579 78.8347C85.9579 79.7621 86.5429 80.5041 87.5559 80.5041C88.4834 80.5041 89.1112 79.8049 89.1112 78.8347C89.0969 77.9072 88.4834 77.1653 87.5559 77.1653ZM104.321 77.1225C103.551 77.1225 103.08 77.6219 102.966 78.3638H105.691C105.563 77.5505 105.063 77.1225 104.321 77.1225ZM119.703 77.1653C118.732 77.1653 118.147 77.9072 118.147 78.8347C118.147 79.7621 118.732 80.5041 119.703 80.5041C120.673 80.5041 121.301 79.8049 121.301 78.8347C121.301 77.9072 120.673 77.1653 119.703 77.1653ZM134.813 80.8893C134.813 80.9321 134.856 80.9607 134.856 81.0463C134.856 81.0891 134.813 81.1176 134.813 81.2032C134.77 81.246 134.77 81.2746 134.742 81.3174C134.699 81.3602 134.67 81.3887 134.585 81.3887C134.542 81.4315 134.513 81.4315 134.428 81.4315C134.385 81.4315 134.356 81.4315 134.271 81.3887C134.228 81.3887 134.199 81.3459 134.157 81.3174C134.114 81.2746 134.085 81.246 134.085 81.2032C134.042 81.1319 134.042 81.0891 134.042 81.0463C134.042 80.9749 134.042 80.9321 134.085 80.8893C134.085 80.818 134.128 80.7752 134.157 80.7324C134.199 80.6896 134.228 80.6896 134.271 80.661C134.342 80.6182 134.385 80.6182 134.428 80.6182C134.499 80.6182 134.542 80.6182 134.585 80.661C134.656 80.7038 134.699 80.7038 134.742 80.7324C134.784 80.7609 134.77 80.818 134.813 80.8893ZM134.499 81.0891C134.57 81.0891 134.57 81.0463 134.613 81.0463C134.656 81.0035 134.656 80.9749 134.656 80.9321C134.656 80.8893 134.656 80.8608 134.613 80.818C134.57 80.818 134.542 80.7752 134.456 80.7752H134.228V81.2746H134.342V81.0748H134.385L134.542 81.2746H134.656L134.499 81.0891ZM145.186 31.8488V82.0736C145.186 85.8547 142.118 88.9225 138.337 88.9225H69.8488C66.0677 88.9225 63 85.8547 63 82.0736V31.8488C63 28.0677 66.0677 25 69.8488 25H138.337C142.118 25 145.186 28.0677 145.186 31.8488ZM72.1318 51.7675C72.1318 62.6829 80.9925 71.5293 91.8935 71.5293C95.7745 71.5293 99.5842 70.3593 102.809 68.2333C92.4072 59.7721 92.4785 43.8058 102.809 35.3446C99.5842 33.2043 95.7745 32.0486 91.8935 32.0486C80.9925 32.0343 72.1318 40.895 72.1318 51.7675ZM104.093 67.2915C114.152 59.4439 114.109 44.1482 104.093 36.2578C94.0766 44.1482 94.0338 59.4582 104.093 67.2915ZM83.7891 78.1783C83.7891 76.937 82.9758 76.1237 81.6916 76.0809C81.0353 76.0809 80.3361 76.2806 79.8653 77.0083C79.5228 76.4233 78.9378 76.0809 78.1245 76.0809C77.5823 76.0809 77.0401 76.2806 76.6121 76.8514V76.2236H75.442V81.4601H76.6121C76.6121 78.7633 76.2553 77.151 77.8962 77.151C79.3516 77.151 79.0662 78.6064 79.0662 81.4601H80.1934C80.1934 78.849 79.8367 77.151 81.4776 77.151C82.933 77.151 82.6476 78.5779 82.6476 81.4601H83.8176V78.1783H83.7891ZM90.1956 76.2236H89.0684V76.8514C88.6831 76.3805 88.1409 76.0809 87.399 76.0809C85.9293 76.0809 84.8021 77.2509 84.8021 78.8347C84.8021 80.4327 85.9293 81.5885 87.399 81.5885C88.1409 81.5885 88.6831 81.3174 89.0684 80.818V81.4743H90.1956V76.2236ZM95.9743 79.8763C95.9743 77.736 92.7068 78.7063 92.7068 77.7075C92.7068 76.8942 94.4048 77.0226 95.3465 77.5505L95.8173 76.6231C94.4761 75.7527 91.5083 75.767 91.5083 77.7931C91.5083 79.8335 94.7757 78.9774 94.7757 79.9334C94.7757 80.8323 92.8495 80.7609 91.8222 80.0475L91.3228 80.9464C92.9208 82.0308 95.9743 81.8025 95.9743 79.8763ZM101.025 81.2032L100.711 80.233C100.169 80.5326 98.9706 80.8608 98.9706 79.648V77.2794H100.84V76.2236H98.9706V74.6255H97.8006V76.2236H96.7162V77.2652H97.8006V79.648C97.8006 82.1592 100.269 81.7026 101.025 81.2032ZM102.923 79.2913H106.847C106.847 76.9798 105.791 76.0666 104.364 76.0666C102.852 76.0666 101.767 77.1938 101.767 78.8204C101.767 81.7454 104.992 82.2306 106.59 80.8465L106.048 79.9904C104.935 80.9036 103.251 80.818 102.923 79.2913ZM111.356 76.2236C110.699 75.9382 109.7 75.9667 109.187 76.8514V76.2236H108.017V81.4601H109.187V78.5065C109.187 76.8514 110.542 77.0654 111.013 77.308L111.356 76.2236ZM112.868 78.8347C112.868 77.2081 114.523 76.6802 115.822 77.6361L116.364 76.7087C114.709 75.4103 111.698 76.1237 111.698 78.849C111.698 81.6741 114.894 82.2448 116.364 80.9892L115.822 80.0618C114.509 80.9892 112.868 80.4327 112.868 78.8347ZM122.385 76.2236H121.215V76.8514C120.031 75.2819 116.949 76.1665 116.949 78.8347C116.949 81.5742 120.145 82.359 121.215 80.818V81.4743H122.385V76.2236ZM127.194 76.2236C126.851 76.0523 125.624 75.8098 125.025 76.8514V76.2236H123.898V81.4601H125.025V78.5065C125.025 76.937 126.309 77.0369 126.851 77.308L127.194 76.2236ZM132.944 74.0976H131.817V76.8514C130.646 75.2961 127.55 76.1237 127.55 78.8347C127.55 81.6028 130.761 82.3447 131.817 80.818V81.4743H132.944V74.0976ZM134.028 63.382V64.0384H134.142V63.382H134.413V63.2679H133.757V63.382H134.028ZM134.97 81.0463C134.97 80.9749 134.97 80.8893 134.927 80.818C134.884 80.7752 134.856 80.7038 134.813 80.661C134.77 80.6182 134.699 80.5897 134.656 80.5469C134.585 80.5469 134.499 80.5041 134.428 80.5041C134.385 80.5041 134.313 80.5469 134.228 80.5469C134.157 80.5897 134.114 80.6182 134.071 80.661C134 80.7038 133.957 80.7752 133.957 80.818C133.914 80.8893 133.914 80.9749 133.914 81.0463C133.914 81.0891 133.914 81.1604 133.957 81.2461C133.957 81.2889 134 81.3602 134.071 81.403C134.114 81.4458 134.142 81.4743 134.228 81.5172C134.299 81.56 134.385 81.56 134.428 81.56C134.499 81.56 134.585 81.56 134.656 81.5172C134.699 81.4743 134.77 81.4458 134.813 81.403C134.856 81.3602 134.884 81.2889 134.927 81.2461C134.97 81.1604 134.97 81.0891 134.97 81.0463ZM135.426 63.2536H135.227L134.998 63.753L134.77 63.2536H134.57V64.0241H134.684V63.4391L134.913 63.9385H135.07L135.269 63.4391V64.0241H135.426V63.2536ZM136.054 51.7675C136.054 40.895 127.194 32.0343 116.292 32.0343C112.411 32.0343 108.602 33.2043 105.377 35.3303C115.665 43.7915 115.822 59.8006 105.377 68.219C108.602 70.3593 112.44 71.515 116.292 71.515C127.194 71.5293 136.054 62.6829 136.054 51.7675Z" fill="#A8ABB4"/>
</svg>
