<svg width="79" height="106" viewBox="0 0 79 106" fill="none" xmlns="http://www.w3.org/2000/svg">
<rect y="42.1936" width="26.3333" height="63.8055" fill="url(#paint0_linear_1_7697)"/>
<rect x="26.332" y="17.4956" width="26.3333" height="88.5044" fill="url(#paint1_linear_1_7697)"/>
<rect x="52.668" width="26.3333" height="105.999" fill="url(#paint2_linear_1_7697)"/>
<path d="M35.166 39.3633C34.0552 42.2102 33.4453 45.3078 33.4453 48.5479C33.4453 62.5081 44.7624 73.8252 58.7227 73.8252C60.8901 73.8252 62.9935 73.5512 65.001 73.0381C61.3259 82.4576 52.1657 89.1318 41.4453 89.1318C27.485 89.1318 16.168 77.8148 16.168 63.8545C16.168 52.0619 24.2434 42.1554 35.166 39.3633Z" fill="#000822"/>
<defs>
<linearGradient id="paint0_linear_1_7697" x1="13.1667" y1="42.1936" x2="13.1667" y2="105.999" gradientUnits="userSpaceOnUse">
<stop stop-color="#0388FF" stop-opacity="0"/>
<stop offset="0.6" stop-color="#0388FF"/>
</linearGradient>
<linearGradient id="paint1_linear_1_7697" x1="39.4987" y1="17.4956" x2="39.4987" y2="106" gradientUnits="userSpaceOnUse">
<stop stop-color="#0388FF" stop-opacity="0"/>
<stop offset="0.6" stop-color="#0388FF"/>
</linearGradient>
<linearGradient id="paint2_linear_1_7697" x1="65.8346" y1="0" x2="65.8346" y2="105.999" gradientUnits="userSpaceOnUse">
<stop stop-color="#0388FF" stop-opacity="0"/>
<stop offset="0.6" stop-color="#0388FF"/>
</linearGradient>
</defs>
</svg>
