<svg width="495" height="338" viewBox="0 0 495 338" fill="none" xmlns="http://www.w3.org/2000/svg">
<path d="M381.836 31.1135L344.627 48.43C332.086 54.2667 324.066 66.845 324.066 80.6779V130.522C324.066 141.638 329.263 152.115 338.113 158.841L373.69 185.879C386.094 195.306 403.189 195.564 415.871 186.515L454.711 158.804C464.067 152.128 469.621 141.343 469.621 129.849V80.6779C469.621 66.845 461.601 54.2667 449.06 48.43L411.852 31.1136C402.336 26.6852 391.351 26.6852 381.836 31.1135Z" fill="url(#paint0_linear_408_1168)"/>
<path d="M381.836 31.1135L344.627 48.43C332.086 54.2667 324.066 66.845 324.066 80.6779V130.522C324.066 141.638 329.263 152.115 338.113 158.841L373.69 185.879C386.094 195.306 403.189 195.564 415.871 186.515L454.711 158.804C464.067 152.128 469.621 141.343 469.621 129.849V80.6779C469.621 66.845 461.601 54.2667 449.06 48.43L411.852 31.1136C402.336 26.6852 391.351 26.6852 381.836 31.1135Z" fill="url(#paint1_linear_408_1168)"/>
<path d="M372.902 104.997L386.473 123.569C389.708 127.995 396.344 127.902 399.453 123.387L428.42 81.3164" stroke="#000822" stroke-width="7.53555" stroke-linecap="round"/>
<rect y="60.5039" width="165.196" height="278.371" fill="url(#paint2_linear_408_1168)" fill-opacity="0.48"/>
<path d="M0 1.21094H116.47L164.575 40.6811V165.786H0V1.21094Z" fill="#000822"/>
<path d="M116.416 40.6522L116.414 0.890625L164.647 40.6522H116.416Z" fill="#0388FF"/>
<path d="M21.1836 49.5781H77.2867" stroke="#0388FF" stroke-width="7.53555" stroke-linecap="round"/>
<path d="M21.1836 73.7578H111.411" stroke="#0388FF" stroke-width="7.53555" stroke-linecap="round"/>
<path d="M23.6367 248.471V284.754C23.6367 290.978 28.6817 296.023 34.905 296.023H483.196C489.42 296.023 494.465 290.978 494.465 284.754V237.117C494.465 227.778 487.914 219.72 478.771 217.813L423.091 206.2C419.026 205.352 415.415 203.037 412.947 199.697L374.764 148.015C371.577 143.701 366.532 141.156 361.169 141.156H191.093C186.392 141.156 181.904 143.114 178.706 146.559L127.778 201.418C125.674 203.685 122.988 205.33 120.013 206.176L37.9635 229.504C29.4856 231.914 23.6367 239.657 23.6367 248.471Z" fill="#000822"/>
<ellipse cx="151.907" cy="296.023" rx="41.7737" ry="44.324" fill="#000822"/>
<ellipse cx="387.246" cy="296.023" rx="41.7737" ry="44.324" fill="#000822"/>
<defs>
<linearGradient id="paint0_linear_408_1168" x1="273.992" y1="177.099" x2="428.908" y2="112.914" gradientUnits="userSpaceOnUse">
<stop stop-color="white" stop-opacity="0.3"/>
<stop offset="1" stop-color="#0388FF"/>
</linearGradient>
<linearGradient id="paint1_linear_408_1168" x1="273.992" y1="177.099" x2="428.908" y2="112.914" gradientUnits="userSpaceOnUse">
<stop stop-color="white" stop-opacity="0.3"/>
<stop offset="1" stop-color="#0388FF"/>
</linearGradient>
<linearGradient id="paint2_linear_408_1168" x1="82.5978" y1="60.5039" x2="82.5978" y2="338.875" gradientUnits="userSpaceOnUse">
<stop stop-color="#0388FF" stop-opacity="0"/>
<stop offset="1" stop-color="#0168FF"/>
</linearGradient>
</defs>
</svg>
