<svg width="166" height="102" viewBox="0 0 166 102" fill="none" xmlns="http://www.w3.org/2000/svg">
<rect y="17.4141" width="68.6511" height="70.9304" fill="url(#paint0_linear_1_664)" fill-opacity="0.48"/>
<path d="M17.5312 74.0146V84.9564C17.5312 86.8278 19.0483 88.3448 20.9196 88.3448H155.697C157.568 88.3448 159.085 86.8278 159.085 84.9564V70.595C159.085 67.7876 157.116 65.365 154.368 64.7908L137.628 61.2932C136.405 61.0377 135.319 60.3405 134.577 59.3349L123.097 43.7696C122.139 42.4706 120.621 41.7039 119.007 41.7039H67.8798C66.4648 41.7039 65.1138 42.2938 64.152 43.3316L48.8412 59.8528C48.2086 60.5354 47.4007 61.0312 46.5056 61.2862L21.8367 68.3118C19.2887 69.0375 17.5312 71.3653 17.5312 74.0146Z" fill="#000822"/>
<ellipse cx="56.0944" cy="88.3446" rx="12.5592" ry="13.349" fill="#000822"/>
<ellipse cx="126.848" cy="88.3446" rx="12.5592" ry="13.349" fill="#000822"/>
<path d="M125.879 3.17891L109.003 11.0465C103.318 13.6967 99.6841 19.4007 99.6841 25.6729V48.3671C99.6841 53.4057 102.037 58.1552 106.046 61.2073L122.183 73.4921C127.815 77.7797 135.583 77.8969 141.342 73.7811L158.958 61.1908C163.196 58.1613 165.712 53.2717 165.712 48.0617V25.6729C165.712 19.4007 162.078 13.6967 156.393 11.0465L139.517 3.17891C135.194 1.16376 130.202 1.16376 125.879 3.17891Z" fill="url(#paint1_linear_1_664)"/>
<path d="M125.879 3.17891L109.003 11.0465C103.318 13.6967 99.6841 19.4007 99.6841 25.6729V48.3671C99.6841 53.4057 102.037 58.1552 106.046 61.2073L122.183 73.4921C127.815 77.7797 135.583 77.8969 141.342 73.7811L158.958 61.1908C163.196 58.1613 165.712 53.2717 165.712 48.0617V25.6729C165.712 19.4007 162.078 13.6967 156.393 11.0465L139.517 3.17891C135.194 1.16376 130.202 1.16376 125.879 3.17891Z" fill="url(#paint2_linear_1_664)"/>
<path d="M121.836 36.7473L127.99 45.1832C129.457 47.1945 132.472 47.1522 133.882 45.1006L147.02 25.9863" stroke="#000822" stroke-width="5.92957" stroke-linecap="round"/>
<defs>
<linearGradient id="paint0_linear_1_664" x1="34.3255" y1="17.4141" x2="34.3255" y2="88.3445" gradientUnits="userSpaceOnUse">
<stop stop-color="#0388FF" stop-opacity="0"/>
<stop offset="1" stop-color="#0168FF"/>
</linearGradient>
<linearGradient id="paint1_linear_1_664" x1="76.9691" y1="69.5113" x2="147.279" y2="40.4307" gradientUnits="userSpaceOnUse">
<stop stop-color="white" stop-opacity="0.3"/>
<stop offset="1" stop-color="#0388FF"/>
</linearGradient>
<linearGradient id="paint2_linear_1_664" x1="76.9691" y1="69.5113" x2="147.279" y2="40.4307" gradientUnits="userSpaceOnUse">
<stop stop-color="white" stop-opacity="0.3"/>
<stop offset="1" stop-color="#0388FF"/>
</linearGradient>
</defs>
</svg>
