<svg width="320" height="54" viewBox="0 0 320 54" fill="none" xmlns="http://www.w3.org/2000/svg">
<path d="M18.1651 14V0.589999H20.0731L27.4531 10.526L26.4631 10.724V0.589999H28.9111V14H26.9851L19.7131 3.992L20.6131 3.794V14H18.1651ZM36.0969 14.216C35.1369 14.216 34.2609 13.994 33.4689 13.55C32.6889 13.106 32.0649 12.5 31.5969 11.732C31.1409 10.964 30.9129 10.088 30.9129 9.104C30.9129 8.12 31.1409 7.244 31.5969 6.476C32.0649 5.708 32.6889 5.102 33.4689 4.658C34.2489 4.214 35.1249 3.992 36.0969 3.992C37.0569 3.992 37.9269 4.214 38.7069 4.658C39.4869 5.102 40.1049 5.708 40.5609 6.476C41.0289 7.232 41.2629 8.108 41.2629 9.104C41.2629 10.088 41.0289 10.964 40.5609 11.732C40.0929 12.5 39.4689 13.106 38.6889 13.55C37.9089 13.994 37.0449 14.216 36.0969 14.216ZM36.0969 12.056C36.6249 12.056 37.0869 11.93 37.4829 11.678C37.8909 11.426 38.2089 11.078 38.4369 10.634C38.6769 10.178 38.7969 9.668 38.7969 9.104C38.7969 8.528 38.6769 8.024 38.4369 7.592C38.2089 7.148 37.8909 6.8 37.4829 6.548C37.0869 6.284 36.6249 6.152 36.0969 6.152C35.5569 6.152 35.0829 6.284 34.6749 6.548C34.2669 6.8 33.9429 7.148 33.7029 7.592C33.4749 8.024 33.3609 8.528 33.3609 9.104C33.3609 9.668 33.4749 10.178 33.7029 10.634C33.9429 11.078 34.2669 11.426 34.6749 11.678C35.0829 11.93 35.5569 12.056 36.0969 12.056ZM46.2503 14V4.208H48.4643V6.386L48.2843 6.062C48.5123 5.33 48.8663 4.82 49.3463 4.532C49.8383 4.244 50.4263 4.1 51.1103 4.1H51.6863V6.188H50.8403C50.1683 6.188 49.6283 6.398 49.2203 6.818C48.8123 7.226 48.6083 7.802 48.6083 8.546V14H46.2503ZM52.9828 14V4.208H55.3408V14H52.9828ZM52.9828 3.11V0.589999H55.3408V3.11H52.9828ZM61.2439 14.216C60.1999 14.216 59.2879 13.97 58.5079 13.478C57.7399 12.974 57.2119 12.296 56.9239 11.444L58.6879 10.598C58.9399 11.15 59.2879 11.582 59.7319 11.894C60.1879 12.206 60.6919 12.362 61.2439 12.362C61.6759 12.362 62.0179 12.266 62.2699 12.074C62.5219 11.882 62.6479 11.63 62.6479 11.318C62.6479 11.126 62.5939 10.97 62.4859 10.85C62.3899 10.718 62.2519 10.61 62.0719 10.526C61.9039 10.43 61.7179 10.352 61.5139 10.292L59.9119 9.842C59.0839 9.602 58.4539 9.236 58.0219 8.744C57.6019 8.252 57.3919 7.67 57.3919 6.998C57.3919 6.398 57.5419 5.876 57.8419 5.432C58.1539 4.976 58.5799 4.622 59.1199 4.37C59.6719 4.118 60.3019 3.992 61.0099 3.992C61.9339 3.992 62.7499 4.214 63.4579 4.658C64.1659 5.102 64.6699 5.726 64.9699 6.53L63.1699 7.376C63.0019 6.932 62.7199 6.578 62.3239 6.314C61.9279 6.05 61.4839 5.918 60.9919 5.918C60.5959 5.918 60.2839 6.008 60.0559 6.188C59.8279 6.368 59.7139 6.602 59.7139 6.89C59.7139 7.07 59.7619 7.226 59.8579 7.358C59.9539 7.49 60.0859 7.598 60.2539 7.682C60.4339 7.766 60.6379 7.844 60.8659 7.916L62.4319 8.384C63.2359 8.624 63.8539 8.984 64.2859 9.464C64.7299 9.944 64.9519 10.532 64.9519 11.228C64.9519 11.816 64.7959 12.338 64.4839 12.794C64.1719 13.238 63.7399 13.586 63.1879 13.838C62.6359 14.09 61.9879 14.216 61.2439 14.216ZM66.764 14V0.373999H69.122V9.302L68.222 9.032L72.83 4.208H75.764L72.146 8.15L75.836 14H73.136L69.932 8.924L71.336 8.636L68.384 11.804L69.122 10.364V14H66.764ZM85.1399 14.216C84.1799 14.216 83.3039 13.994 82.5119 13.55C81.7319 13.106 81.1079 12.5 80.6399 11.732C80.1839 10.964 79.9559 10.088 79.9559 9.104C79.9559 8.12 80.1839 7.244 80.6399 6.476C81.1079 5.708 81.7319 5.102 82.5119 4.658C83.2919 4.214 84.1679 3.992 85.1399 3.992C86.0999 3.992 86.9699 4.214 87.7499 4.658C88.5299 5.102 89.1479 5.708 89.6039 6.476C90.0719 7.232 90.3059 8.108 90.3059 9.104C90.3059 10.088 90.0719 10.964 89.6039 11.732C89.1359 12.5 88.5119 13.106 87.7319 13.55C86.9519 13.994 86.0879 14.216 85.1399 14.216ZM85.1399 12.056C85.6679 12.056 86.1299 11.93 86.5259 11.678C86.9339 11.426 87.2519 11.078 87.4799 10.634C87.7199 10.178 87.8399 9.668 87.8399 9.104C87.8399 8.528 87.7199 8.024 87.4799 7.592C87.2519 7.148 86.9339 6.8 86.5259 6.548C86.1299 6.284 85.6679 6.152 85.1399 6.152C84.5999 6.152 84.1259 6.284 83.7179 6.548C83.3099 6.8 82.9859 7.148 82.7459 7.592C82.5179 8.024 82.4039 8.528 82.4039 9.104C82.4039 9.668 82.5179 10.178 82.7459 10.634C82.9859 11.078 83.3099 11.426 83.7179 11.678C84.1259 11.93 84.5999 12.056 85.1399 12.056ZM93.0172 14V6.314H91.2892V4.208H93.0172V3.884C93.0172 3.14 93.1672 2.51 93.4672 1.994C93.7792 1.466 94.2112 1.064 94.7632 0.788C95.3152 0.511999 95.9692 0.373999 96.7252 0.373999C96.8692 0.373999 97.0252 0.385999 97.1932 0.409999C97.3732 0.422 97.5232 0.44 97.6432 0.463999V2.498C97.5232 2.474 97.4092 2.462 97.3012 2.462C97.2052 2.45 97.1152 2.444 97.0312 2.444C96.5032 2.444 96.0952 2.564 95.8072 2.804C95.5192 3.032 95.3752 3.392 95.3752 3.884V4.208H97.5532V6.314H95.3752V14H93.0172ZM106.949 14.216C106.001 14.216 105.155 13.994 104.411 13.55C103.667 13.094 103.079 12.476 102.647 11.696C102.215 10.916 101.999 10.052 101.999 9.104C101.999 8.144 102.215 7.28 102.647 6.512C103.079 5.744 103.667 5.132 104.411 4.676C105.167 4.22 106.007 3.992 106.931 3.992C107.675 3.992 108.335 4.142 108.911 4.442C109.499 4.73 109.961 5.138 110.297 5.666L109.937 6.152V0.373999H112.295V14H110.063V12.11L110.315 12.578C109.979 13.106 109.511 13.514 108.911 13.802C108.311 14.078 107.657 14.216 106.949 14.216ZM107.201 12.056C107.741 12.056 108.215 11.93 108.623 11.678C109.031 11.426 109.349 11.078 109.577 10.634C109.817 10.19 109.937 9.68 109.937 9.104C109.937 8.54 109.817 8.036 109.577 7.592C109.349 7.136 109.031 6.782 108.623 6.53C108.215 6.278 107.741 6.152 107.201 6.152C106.673 6.152 106.199 6.284 105.779 6.548C105.359 6.8 105.029 7.148 104.789 7.592C104.561 8.024 104.447 8.528 104.447 9.104C104.447 9.68 104.561 10.19 104.789 10.634C105.029 11.078 105.359 11.426 105.779 11.678C106.199 11.93 106.673 12.056 107.201 12.056ZM114.489 14V4.208H116.703V6.386L116.523 6.062C116.751 5.33 117.105 4.82 117.585 4.532C118.077 4.244 118.665 4.1 119.349 4.1H119.925V6.188H119.079C118.407 6.188 117.867 6.398 117.459 6.818C117.051 7.226 116.847 7.802 116.847 8.546V14H114.489ZM121.221 14V4.208H123.579V14H121.221ZM121.221 3.11V0.589999H123.579V3.11H121.221ZM128.708 14L124.856 4.208H127.43L130.22 11.912H129.266L132.074 4.208H134.648L130.796 14H128.708ZM135.952 14V4.208H138.31V14H135.952ZM135.952 3.11V0.589999H138.31V3.11H135.952ZM140.487 14V4.208H142.701V6.134L142.521 5.792C142.749 5.204 143.121 4.76 143.637 4.46C144.165 4.148 144.777 3.992 145.473 3.992C146.193 3.992 146.829 4.148 147.381 4.46C147.945 4.772 148.383 5.21 148.695 5.774C149.007 6.326 149.163 6.968 149.163 7.7V14H146.805V8.258C146.805 7.826 146.721 7.454 146.553 7.142C146.385 6.83 146.151 6.59 145.851 6.422C145.563 6.242 145.221 6.152 144.825 6.152C144.441 6.152 144.099 6.242 143.799 6.422C143.499 6.59 143.265 6.83 143.097 7.142C142.929 7.454 142.845 7.826 142.845 8.258V14H140.487ZM155.909 17.96C155.177 17.96 154.499 17.84 153.875 17.6C153.251 17.36 152.711 17.024 152.255 16.592C151.811 16.172 151.487 15.674 151.283 15.098L153.479 14.27C153.623 14.726 153.905 15.092 154.325 15.368C154.757 15.656 155.285 15.8 155.909 15.8C156.389 15.8 156.809 15.71 157.169 15.53C157.541 15.35 157.829 15.086 158.033 14.738C158.237 14.402 158.339 13.994 158.339 13.514V11.282L158.789 11.822C158.453 12.41 158.003 12.854 157.439 13.154C156.875 13.454 156.233 13.604 155.513 13.604C154.601 13.604 153.785 13.394 153.065 12.974C152.345 12.554 151.781 11.978 151.373 11.246C150.965 10.514 150.761 9.692 150.761 8.78C150.761 7.856 150.965 7.034 151.373 6.314C151.781 5.594 152.339 5.03 153.047 4.622C153.755 4.202 154.559 3.992 155.459 3.992C156.191 3.992 156.833 4.148 157.385 4.46C157.949 4.76 158.417 5.198 158.789 5.774L158.465 6.368V4.208H160.697V13.514C160.697 14.366 160.487 15.128 160.067 15.8C159.659 16.472 159.095 17 158.375 17.384C157.667 17.768 156.845 17.96 155.909 17.96ZM155.801 11.426C156.305 11.426 156.743 11.318 157.115 11.102C157.499 10.874 157.799 10.562 158.015 10.166C158.231 9.77 158.339 9.314 158.339 8.798C158.339 8.294 158.225 7.844 157.997 7.448C157.781 7.04 157.481 6.722 157.097 6.494C156.725 6.266 156.293 6.152 155.801 6.152C155.309 6.152 154.865 6.266 154.469 6.494C154.073 6.722 153.761 7.04 153.533 7.448C153.317 7.844 153.209 8.294 153.209 8.798C153.209 9.302 153.317 9.752 153.533 10.148C153.761 10.544 154.067 10.856 154.451 11.084C154.847 11.312 155.297 11.426 155.801 11.426ZM169.59 14.216C168.834 14.216 168.174 14.048 167.61 13.712C167.058 13.376 166.632 12.908 166.332 12.308C166.044 11.708 165.9 11.006 165.9 10.202V4.208H168.258V10.004C168.258 10.412 168.336 10.772 168.492 11.084C168.66 11.384 168.894 11.624 169.194 11.804C169.506 11.972 169.854 12.056 170.238 12.056C170.622 12.056 170.964 11.972 171.264 11.804C171.564 11.624 171.798 11.378 171.966 11.066C172.134 10.754 172.218 10.382 172.218 9.95V4.208H174.576V14H172.344V12.074L172.542 12.416C172.314 13.016 171.936 13.466 171.408 13.766C170.892 14.066 170.286 14.216 169.59 14.216ZM176.768 14V4.208H178.982V6.134L178.802 5.792C179.03 5.204 179.402 4.76 179.918 4.46C180.446 4.148 181.058 3.992 181.754 3.992C182.474 3.992 183.11 4.148 183.662 4.46C184.226 4.772 184.664 5.21 184.976 5.774C185.288 6.326 185.444 6.968 185.444 7.7V14H183.086V8.258C183.086 7.826 183.002 7.454 182.834 7.142C182.666 6.83 182.432 6.59 182.132 6.422C181.844 6.242 181.502 6.152 181.106 6.152C180.722 6.152 180.38 6.242 180.08 6.422C179.78 6.59 179.546 6.83 179.378 7.142C179.21 7.454 179.126 7.826 179.126 8.258V14H176.768ZM187.438 14V4.208H189.796V14H187.438ZM187.438 3.11V0.589999H189.796V3.11H187.438ZM191.973 14V4.208H194.187V6.134L194.007 5.792C194.235 5.204 194.607 4.76 195.123 4.46C195.651 4.148 196.263 3.992 196.959 3.992C197.679 3.992 198.315 4.148 198.867 4.46C199.431 4.772 199.869 5.21 200.181 5.774C200.493 6.326 200.649 6.968 200.649 7.7V14H198.291V8.258C198.291 7.826 198.207 7.454 198.039 7.142C197.871 6.83 197.637 6.59 197.337 6.422C197.049 6.242 196.707 6.152 196.311 6.152C195.927 6.152 195.585 6.242 195.285 6.422C194.985 6.59 194.751 6.83 194.583 7.142C194.415 7.454 194.331 7.826 194.331 8.258V14H191.973ZM206.369 14.216C205.325 14.216 204.413 13.97 203.633 13.478C202.865 12.974 202.337 12.296 202.049 11.444L203.813 10.598C204.065 11.15 204.413 11.582 204.857 11.894C205.313 12.206 205.817 12.362 206.369 12.362C206.801 12.362 207.143 12.266 207.395 12.074C207.647 11.882 207.773 11.63 207.773 11.318C207.773 11.126 207.719 10.97 207.611 10.85C207.515 10.718 207.377 10.61 207.197 10.526C207.029 10.43 206.843 10.352 206.639 10.292L205.037 9.842C204.209 9.602 203.579 9.236 203.147 8.744C202.727 8.252 202.517 7.67 202.517 6.998C202.517 6.398 202.667 5.876 202.967 5.432C203.279 4.976 203.705 4.622 204.245 4.37C204.797 4.118 205.427 3.992 206.135 3.992C207.059 3.992 207.875 4.214 208.583 4.658C209.291 5.102 209.795 5.726 210.095 6.53L208.295 7.376C208.127 6.932 207.845 6.578 207.449 6.314C207.053 6.05 206.609 5.918 206.117 5.918C205.721 5.918 205.409 6.008 205.181 6.188C204.953 6.368 204.839 6.602 204.839 6.89C204.839 7.07 204.887 7.226 204.983 7.358C205.079 7.49 205.211 7.598 205.379 7.682C205.559 7.766 205.763 7.844 205.991 7.916L207.557 8.384C208.361 8.624 208.979 8.984 209.411 9.464C209.855 9.944 210.077 10.532 210.077 11.228C210.077 11.816 209.921 12.338 209.609 12.794C209.297 13.238 208.865 13.586 208.313 13.838C207.761 14.09 207.113 14.216 206.369 14.216ZM215.381 14.216C214.625 14.216 213.965 14.048 213.401 13.712C212.849 13.376 212.423 12.908 212.123 12.308C211.835 11.708 211.691 11.006 211.691 10.202V4.208H214.049V10.004C214.049 10.412 214.127 10.772 214.283 11.084C214.451 11.384 214.685 11.624 214.985 11.804C215.297 11.972 215.645 12.056 216.029 12.056C216.413 12.056 216.755 11.972 217.055 11.804C217.355 11.624 217.589 11.378 217.757 11.066C217.925 10.754 218.009 10.382 218.009 9.95V4.208H220.367V14H218.135V12.074L218.333 12.416C218.105 13.016 217.727 13.466 217.199 13.766C216.683 14.066 216.077 14.216 215.381 14.216ZM222.559 14V4.208H224.773V6.386L224.593 6.062C224.821 5.33 225.175 4.82 225.655 4.532C226.147 4.244 226.735 4.1 227.419 4.1H227.995V6.188H227.149C226.477 6.188 225.937 6.398 225.529 6.818C225.121 7.226 224.917 7.802 224.917 8.546V14H222.559ZM233.935 14.216C232.927 14.216 232.045 13.988 231.289 13.532C230.533 13.076 229.945 12.458 229.525 11.678C229.105 10.898 228.895 10.034 228.895 9.086C228.895 8.102 229.105 7.232 229.525 6.476C229.957 5.708 230.539 5.102 231.271 4.658C232.015 4.214 232.843 3.992 233.755 3.992C234.523 3.992 235.195 4.118 235.771 4.37C236.359 4.622 236.857 4.97 237.265 5.414C237.673 5.858 237.985 6.368 238.201 6.944C238.417 7.508 238.525 8.12 238.525 8.78C238.525 8.948 238.513 9.122 238.489 9.302C238.477 9.482 238.447 9.638 238.399 9.77H230.839V7.97H237.067L235.951 8.816C236.059 8.264 236.029 7.772 235.861 7.34C235.705 6.908 235.441 6.566 235.069 6.314C234.709 6.062 234.271 5.936 233.755 5.936C233.263 5.936 232.825 6.062 232.441 6.314C232.057 6.554 231.763 6.914 231.559 7.394C231.367 7.862 231.295 8.432 231.343 9.104C231.295 9.704 231.373 10.238 231.577 10.706C231.793 11.162 232.105 11.516 232.513 11.768C232.933 12.02 233.413 12.146 233.953 12.146C234.493 12.146 234.949 12.032 235.321 11.804C235.705 11.576 236.005 11.27 236.221 10.886L238.129 11.822C237.937 12.29 237.637 12.704 237.229 13.064C236.821 13.424 236.335 13.706 235.771 13.91C235.219 14.114 234.607 14.216 233.935 14.216ZM244.867 14.216C243.919 14.216 243.073 13.994 242.329 13.55C241.585 13.094 240.997 12.476 240.565 11.696C240.133 10.916 239.917 10.052 239.917 9.104C239.917 8.144 240.133 7.28 240.565 6.512C240.997 5.744 241.585 5.132 242.329 4.676C243.085 4.22 243.925 3.992 244.849 3.992C245.593 3.992 246.253 4.142 246.829 4.442C247.417 4.73 247.879 5.138 248.215 5.666L247.855 6.152V0.373999H250.213V14H247.981V12.11L248.233 12.578C247.897 13.106 247.429 13.514 246.829 13.802C246.229 14.078 245.575 14.216 244.867 14.216ZM245.119 12.056C245.659 12.056 246.133 11.93 246.541 11.678C246.949 11.426 247.267 11.078 247.495 10.634C247.735 10.19 247.855 9.68 247.855 9.104C247.855 8.54 247.735 8.036 247.495 7.592C247.267 7.136 246.949 6.782 246.541 6.53C246.133 6.278 245.659 6.152 245.119 6.152C244.591 6.152 244.117 6.284 243.697 6.548C243.277 6.8 242.947 7.148 242.707 7.592C242.479 8.024 242.365 8.528 242.365 9.104C242.365 9.68 242.479 10.19 242.707 10.634C242.947 11.078 243.277 11.426 243.697 11.678C244.117 11.93 244.591 12.056 245.119 12.056ZM258.576 14.216C257.892 14.216 257.298 14.102 256.794 13.874C256.29 13.646 255.9 13.322 255.624 12.902C255.348 12.47 255.21 11.972 255.21 11.408C255.21 10.868 255.33 10.388 255.57 9.968C255.81 9.536 256.182 9.176 256.686 8.888C257.19 8.6 257.826 8.396 258.594 8.276L261.798 7.754V9.554L259.044 10.022C258.576 10.106 258.228 10.256 258 10.472C257.772 10.688 257.658 10.97 257.658 11.318C257.658 11.654 257.784 11.924 258.036 12.128C258.3 12.32 258.624 12.416 259.008 12.416C259.5 12.416 259.932 12.314 260.304 12.11C260.688 11.894 260.982 11.6 261.186 11.228C261.402 10.856 261.51 10.448 261.51 10.004V7.484C261.51 7.064 261.342 6.716 261.006 6.44C260.682 6.152 260.25 6.008 259.71 6.008C259.206 6.008 258.756 6.146 258.36 6.422C257.976 6.686 257.694 7.04 257.514 7.484L255.588 6.548C255.78 6.032 256.08 5.588 256.488 5.216C256.908 4.832 257.4 4.532 257.964 4.316C258.528 4.1 259.14 3.992 259.8 3.992C260.604 3.992 261.312 4.142 261.924 4.442C262.536 4.73 263.01 5.138 263.346 5.666C263.694 6.182 263.868 6.788 263.868 7.484V14H261.636V12.326L262.14 12.29C261.888 12.71 261.588 13.064 261.24 13.352C260.892 13.628 260.496 13.844 260.052 14C259.608 14.144 259.116 14.216 258.576 14.216ZM269.773 14.216C268.729 14.216 267.817 13.97 267.037 13.478C266.269 12.974 265.741 12.296 265.453 11.444L267.217 10.598C267.469 11.15 267.817 11.582 268.261 11.894C268.717 12.206 269.221 12.362 269.773 12.362C270.205 12.362 270.547 12.266 270.799 12.074C271.051 11.882 271.177 11.63 271.177 11.318C271.177 11.126 271.123 10.97 271.015 10.85C270.919 10.718 270.781 10.61 270.601 10.526C270.433 10.43 270.247 10.352 270.043 10.292L268.441 9.842C267.613 9.602 266.983 9.236 266.551 8.744C266.131 8.252 265.921 7.67 265.921 6.998C265.921 6.398 266.071 5.876 266.371 5.432C266.683 4.976 267.109 4.622 267.649 4.37C268.201 4.118 268.831 3.992 269.539 3.992C270.463 3.992 271.279 4.214 271.987 4.658C272.695 5.102 273.199 5.726 273.499 6.53L271.699 7.376C271.531 6.932 271.249 6.578 270.853 6.314C270.457 6.05 270.013 5.918 269.521 5.918C269.125 5.918 268.813 6.008 268.585 6.188C268.357 6.368 268.243 6.602 268.243 6.89C268.243 7.07 268.291 7.226 268.387 7.358C268.483 7.49 268.615 7.598 268.783 7.682C268.963 7.766 269.167 7.844 269.395 7.916L270.961 8.384C271.765 8.624 272.383 8.984 272.815 9.464C273.259 9.944 273.481 10.532 273.481 11.228C273.481 11.816 273.325 12.338 273.013 12.794C272.701 13.238 272.269 13.586 271.717 13.838C271.165 14.09 270.517 14.216 269.773 14.216ZM280.959 14L277.593 4.208H280.077L282.543 11.642L281.679 11.624L284.307 4.208H286.395L289.005 11.624L288.141 11.642L290.607 4.208H293.091L289.725 14H287.619L284.955 6.242H285.747L283.047 14H280.959ZM298.851 14.216C297.843 14.216 296.961 13.988 296.205 13.532C295.449 13.076 294.861 12.458 294.441 11.678C294.021 10.898 293.811 10.034 293.811 9.086C293.811 8.102 294.021 7.232 294.441 6.476C294.873 5.708 295.455 5.102 296.187 4.658C296.931 4.214 297.759 3.992 298.671 3.992C299.439 3.992 300.111 4.118 300.687 4.37C301.275 4.622 301.773 4.97 302.181 5.414C302.589 5.858 302.901 6.368 303.117 6.944C303.333 7.508 303.441 8.12 303.441 8.78C303.441 8.948 303.429 9.122 303.405 9.302C303.393 9.482 303.363 9.638 303.315 9.77H295.755V7.97H301.983L300.867 8.816C300.975 8.264 300.945 7.772 300.777 7.34C300.621 6.908 300.357 6.566 299.985 6.314C299.625 6.062 299.187 5.936 298.671 5.936C298.179 5.936 297.741 6.062 297.357 6.314C296.973 6.554 296.679 6.914 296.475 7.394C296.283 7.862 296.211 8.432 296.259 9.104C296.211 9.704 296.289 10.238 296.493 10.706C296.709 11.162 297.021 11.516 297.429 11.768C297.849 12.02 298.329 12.146 298.869 12.146C299.409 12.146 299.865 12.032 300.237 11.804C300.621 11.576 300.921 11.27 301.137 10.886L303.045 11.822C302.853 12.29 302.553 12.704 302.145 13.064C301.737 13.424 301.251 13.706 300.687 13.91C300.135 14.114 299.523 14.216 298.851 14.216ZM34.3527 32.216C33.5967 32.216 32.9367 32.048 32.3727 31.712C31.8207 31.376 31.3947 30.908 31.0947 30.308C30.8067 29.708 30.6627 29.006 30.6627 28.202V22.208H33.0207V28.004C33.0207 28.412 33.0987 28.772 33.2547 29.084C33.4227 29.384 33.6567 29.624 33.9567 29.804C34.2687 29.972 34.6167 30.056 35.0007 30.056C35.3847 30.056 35.7267 29.972 36.0267 29.804C36.3267 29.624 36.5607 29.378 36.7287 29.066C36.8967 28.754 36.9807 28.382 36.9807 27.95V22.208H39.3387V32H37.1067V30.074L37.3047 30.416C37.0767 31.016 36.6987 31.466 36.1707 31.766C35.6547 32.066 35.0487 32.216 34.3527 32.216ZM41.5306 35.6V22.208H43.7446V24.152L43.5286 23.666C43.8646 23.138 44.3206 22.73 44.8966 22.442C45.4726 22.142 46.1386 21.992 46.8946 21.992C47.8186 21.992 48.6526 22.22 49.3966 22.676C50.1406 23.132 50.7286 23.744 51.1606 24.512C51.6046 25.28 51.8266 26.144 51.8266 27.104C51.8266 28.052 51.6106 28.916 51.1786 29.696C50.7466 30.476 50.1586 31.094 49.4146 31.55C48.6706 31.994 47.8246 32.216 46.8766 32.216C46.1686 32.216 45.5146 32.078 44.9146 31.802C44.3266 31.514 43.8586 31.106 43.5106 30.578L43.8886 30.11V35.6H41.5306ZM46.6066 30.056C47.1466 30.056 47.6266 29.93 48.0466 29.678C48.4666 29.426 48.7906 29.078 49.0186 28.634C49.2586 28.19 49.3786 27.68 49.3786 27.104C49.3786 26.528 49.2586 26.024 49.0186 25.592C48.7906 25.148 48.4666 24.8 48.0466 24.548C47.6266 24.284 47.1466 24.152 46.6066 24.152C46.0906 24.152 45.6226 24.278 45.2026 24.53C44.7946 24.782 44.4706 25.136 44.2306 25.592C44.0026 26.036 43.8886 26.54 43.8886 27.104C43.8886 27.68 44.0026 28.19 44.2306 28.634C44.4706 29.078 44.7946 29.426 45.2026 29.678C45.6226 29.93 46.0906 30.056 46.6066 30.056ZM53.6244 32V18.374H55.9824V32H53.6244ZM62.9475 32.216C61.9875 32.216 61.1115 31.994 60.3195 31.55C59.5395 31.106 58.9155 30.5 58.4475 29.732C57.9915 28.964 57.7635 28.088 57.7635 27.104C57.7635 26.12 57.9915 25.244 58.4475 24.476C58.9155 23.708 59.5395 23.102 60.3195 22.658C61.0995 22.214 61.9755 21.992 62.9475 21.992C63.9075 21.992 64.7775 22.214 65.5575 22.658C66.3375 23.102 66.9555 23.708 67.4115 24.476C67.8795 25.232 68.1135 26.108 68.1135 27.104C68.1135 28.088 67.8795 28.964 67.4115 29.732C66.9435 30.5 66.3195 31.106 65.5395 31.55C64.7595 31.994 63.8955 32.216 62.9475 32.216ZM62.9475 30.056C63.4755 30.056 63.9375 29.93 64.3335 29.678C64.7415 29.426 65.0595 29.078 65.2875 28.634C65.5275 28.178 65.6475 27.668 65.6475 27.104C65.6475 26.528 65.5275 26.024 65.2875 25.592C65.0595 25.148 64.7415 24.8 64.3335 24.548C63.9375 24.284 63.4755 24.152 62.9475 24.152C62.4075 24.152 61.9335 24.284 61.5255 24.548C61.1175 24.8 60.7935 25.148 60.5535 25.592C60.3255 26.024 60.2115 26.528 60.2115 27.104C60.2115 27.668 60.3255 28.178 60.5535 28.634C60.7935 29.078 61.1175 29.426 61.5255 29.678C61.9335 29.93 62.4075 30.056 62.9475 30.056ZM72.8717 32.216C72.1877 32.216 71.5937 32.102 71.0897 31.874C70.5857 31.646 70.1957 31.322 69.9197 30.902C69.6437 30.47 69.5057 29.972 69.5057 29.408C69.5057 28.868 69.6257 28.388 69.8657 27.968C70.1057 27.536 70.4777 27.176 70.9817 26.888C71.4857 26.6 72.1217 26.396 72.8897 26.276L76.0937 25.754V27.554L73.3397 28.022C72.8717 28.106 72.5237 28.256 72.2957 28.472C72.0677 28.688 71.9537 28.97 71.9537 29.318C71.9537 29.654 72.0797 29.924 72.3317 30.128C72.5957 30.32 72.9197 30.416 73.3037 30.416C73.7957 30.416 74.2277 30.314 74.5997 30.11C74.9837 29.894 75.2777 29.6 75.4817 29.228C75.6977 28.856 75.8057 28.448 75.8057 28.004V25.484C75.8057 25.064 75.6377 24.716 75.3017 24.44C74.9777 24.152 74.5457 24.008 74.0057 24.008C73.5017 24.008 73.0517 24.146 72.6557 24.422C72.2717 24.686 71.9897 25.04 71.8097 25.484L69.8837 24.548C70.0757 24.032 70.3757 23.588 70.7837 23.216C71.2037 22.832 71.6957 22.532 72.2597 22.316C72.8237 22.1 73.4357 21.992 74.0957 21.992C74.8997 21.992 75.6077 22.142 76.2197 22.442C76.8317 22.73 77.3057 23.138 77.6417 23.666C77.9897 24.182 78.1637 24.788 78.1637 25.484V32H75.9317V30.326L76.4357 30.29C76.1837 30.71 75.8837 31.064 75.5357 31.352C75.1877 31.628 74.7917 31.844 74.3477 32C73.9037 32.144 73.4117 32.216 72.8717 32.216ZM84.8971 32.216C83.9491 32.216 83.1031 31.994 82.3591 31.55C81.6151 31.094 81.0271 30.476 80.5951 29.696C80.1631 28.916 79.9471 28.052 79.9471 27.104C79.9471 26.144 80.1631 25.28 80.5951 24.512C81.0271 23.744 81.6151 23.132 82.3591 22.676C83.1151 22.22 83.9551 21.992 84.8791 21.992C85.6231 21.992 86.2831 22.142 86.8591 22.442C87.4471 22.73 87.9091 23.138 88.2451 23.666L87.8851 24.152V18.374H90.2431V32H88.0111V30.11L88.2631 30.578C87.9271 31.106 87.4591 31.514 86.8591 31.802C86.2591 32.078 85.6051 32.216 84.8971 32.216ZM85.1491 30.056C85.6891 30.056 86.1631 29.93 86.5711 29.678C86.9791 29.426 87.2971 29.078 87.5251 28.634C87.7651 28.19 87.8851 27.68 87.8851 27.104C87.8851 26.54 87.7651 26.036 87.5251 25.592C87.2971 25.136 86.9791 24.782 86.5711 24.53C86.1631 24.278 85.6891 24.152 85.1491 24.152C84.6211 24.152 84.1471 24.284 83.7271 24.548C83.3071 24.8 82.9771 25.148 82.7371 25.592C82.5091 26.024 82.3951 26.528 82.3951 27.104C82.3951 27.68 82.5091 28.19 82.7371 28.634C82.9771 29.078 83.3071 29.426 83.7271 29.678C84.1471 29.93 84.6211 30.056 85.1491 30.056ZM100.1 32.108C98.9961 32.108 98.1381 31.808 97.5261 31.208C96.9261 30.596 96.6261 29.738 96.6261 28.634V24.314H94.9341V22.208H95.1141C95.5941 22.208 95.9661 22.082 96.2301 21.83C96.4941 21.578 96.6261 21.212 96.6261 20.732V19.976H98.9841V22.208H101.234V24.314H98.9841V28.508C98.9841 28.832 99.0381 29.108 99.1461 29.336C99.2661 29.564 99.4461 29.738 99.6861 29.858C99.9381 29.978 100.256 30.038 100.64 30.038C100.724 30.038 100.82 30.032 100.928 30.02C101.048 30.008 101.162 29.996 101.27 29.984V32C101.102 32.024 100.91 32.048 100.694 32.072C100.478 32.096 100.28 32.108 100.1 32.108ZM107.772 32.216C106.812 32.216 105.936 31.994 105.144 31.55C104.364 31.106 103.74 30.5 103.272 29.732C102.816 28.964 102.588 28.088 102.588 27.104C102.588 26.12 102.816 25.244 103.272 24.476C103.74 23.708 104.364 23.102 105.144 22.658C105.924 22.214 106.8 21.992 107.772 21.992C108.732 21.992 109.602 22.214 110.382 22.658C111.162 23.102 111.78 23.708 112.236 24.476C112.704 25.232 112.938 26.108 112.938 27.104C112.938 28.088 112.704 28.964 112.236 29.732C111.768 30.5 111.144 31.106 110.364 31.55C109.584 31.994 108.72 32.216 107.772 32.216ZM107.772 30.056C108.3 30.056 108.762 29.93 109.158 29.678C109.566 29.426 109.884 29.078 110.112 28.634C110.352 28.178 110.472 27.668 110.472 27.104C110.472 26.528 110.352 26.024 110.112 25.592C109.884 25.148 109.566 24.8 109.158 24.548C108.762 24.284 108.3 24.152 107.772 24.152C107.232 24.152 106.758 24.284 106.35 24.548C105.942 24.8 105.618 25.148 105.378 25.592C105.15 26.024 105.036 26.528 105.036 27.104C105.036 27.668 105.15 28.178 105.378 28.634C105.618 29.078 105.942 29.426 106.35 29.678C106.758 29.93 107.232 30.056 107.772 30.056ZM122.389 32.108C121.285 32.108 120.427 31.808 119.815 31.208C119.215 30.596 118.915 29.738 118.915 28.634V24.314H117.223V22.208H117.403C117.883 22.208 118.255 22.082 118.519 21.83C118.783 21.578 118.915 21.212 118.915 20.732V19.976H121.273V22.208H123.523V24.314H121.273V28.508C121.273 28.832 121.327 29.108 121.435 29.336C121.555 29.564 121.735 29.738 121.975 29.858C122.227 29.978 122.545 30.038 122.929 30.038C123.013 30.038 123.109 30.032 123.217 30.02C123.337 30.008 123.451 29.996 123.559 29.984V32C123.391 32.024 123.199 32.048 122.983 32.072C122.767 32.096 122.569 32.108 122.389 32.108ZM125.361 32V18.374H127.719V24.134L127.395 23.792C127.623 23.204 127.995 22.76 128.511 22.46C129.039 22.148 129.651 21.992 130.347 21.992C131.067 21.992 131.703 22.148 132.255 22.46C132.819 22.772 133.257 23.21 133.569 23.774C133.881 24.326 134.037 24.968 134.037 25.7V32H131.679V26.258C131.679 25.826 131.595 25.454 131.427 25.142C131.259 24.83 131.025 24.59 130.725 24.422C130.437 24.242 130.095 24.152 129.699 24.152C129.315 24.152 128.973 24.242 128.673 24.422C128.373 24.59 128.139 24.83 127.971 25.142C127.803 25.454 127.719 25.826 127.719 26.258V32H125.361ZM140.675 32.216C139.667 32.216 138.785 31.988 138.029 31.532C137.273 31.076 136.685 30.458 136.265 29.678C135.845 28.898 135.635 28.034 135.635 27.086C135.635 26.102 135.845 25.232 136.265 24.476C136.697 23.708 137.279 23.102 138.011 22.658C138.755 22.214 139.583 21.992 140.495 21.992C141.263 21.992 141.935 22.118 142.511 22.37C143.099 22.622 143.597 22.97 144.005 23.414C144.413 23.858 144.725 24.368 144.941 24.944C145.157 25.508 145.265 26.12 145.265 26.78C145.265 26.948 145.253 27.122 145.229 27.302C145.217 27.482 145.187 27.638 145.139 27.77H137.579V25.97H143.807L142.691 26.816C142.799 26.264 142.769 25.772 142.601 25.34C142.445 24.908 142.181 24.566 141.809 24.314C141.449 24.062 141.011 23.936 140.495 23.936C140.003 23.936 139.565 24.062 139.181 24.314C138.797 24.554 138.503 24.914 138.299 25.394C138.107 25.862 138.035 26.432 138.083 27.104C138.035 27.704 138.113 28.238 138.317 28.706C138.533 29.162 138.845 29.516 139.253 29.768C139.673 30.02 140.153 30.146 140.693 30.146C141.233 30.146 141.689 30.032 142.061 29.804C142.445 29.576 142.745 29.27 142.961 28.886L144.869 29.822C144.677 30.29 144.377 30.704 143.969 31.064C143.561 31.424 143.075 31.706 142.511 31.91C141.959 32.114 141.347 32.216 140.675 32.216ZM150.449 32V18.59H152.789L157.811 25.412H156.695L161.609 18.59H163.949V32H161.483V21.38L162.437 21.614L157.343 28.4H157.055L152.087 21.614L152.897 21.38V32H150.449ZM171.106 32.216C170.146 32.216 169.27 31.994 168.478 31.55C167.698 31.106 167.074 30.5 166.606 29.732C166.15 28.964 165.922 28.088 165.922 27.104C165.922 26.12 166.15 25.244 166.606 24.476C167.074 23.708 167.698 23.102 168.478 22.658C169.258 22.214 170.134 21.992 171.106 21.992C172.066 21.992 172.936 22.214 173.716 22.658C174.496 23.102 175.114 23.708 175.57 24.476C176.038 25.232 176.272 26.108 176.272 27.104C176.272 28.088 176.038 28.964 175.57 29.732C175.102 30.5 174.478 31.106 173.698 31.55C172.918 31.994 172.054 32.216 171.106 32.216ZM171.106 30.056C171.634 30.056 172.096 29.93 172.492 29.678C172.9 29.426 173.218 29.078 173.446 28.634C173.686 28.178 173.806 27.668 173.806 27.104C173.806 26.528 173.686 26.024 173.446 25.592C173.218 25.148 172.9 24.8 172.492 24.548C172.096 24.284 171.634 24.152 171.106 24.152C170.566 24.152 170.092 24.284 169.684 24.548C169.276 24.8 168.952 25.148 168.712 25.592C168.484 26.024 168.37 26.528 168.37 27.104C168.37 27.668 168.484 28.178 168.712 28.634C168.952 29.078 169.276 29.426 169.684 29.678C170.092 29.93 170.566 30.056 171.106 30.056ZM182.348 32.108C181.244 32.108 180.386 31.808 179.774 31.208C179.174 30.596 178.874 29.738 178.874 28.634V24.314H177.182V22.208H177.362C177.842 22.208 178.214 22.082 178.478 21.83C178.742 21.578 178.874 21.212 178.874 20.732V19.976H181.232V22.208H183.482V24.314H181.232V28.508C181.232 28.832 181.286 29.108 181.394 29.336C181.514 29.564 181.694 29.738 181.934 29.858C182.186 29.978 182.504 30.038 182.888 30.038C182.972 30.038 183.068 30.032 183.176 30.02C183.296 30.008 183.41 29.996 183.518 29.984V32C183.35 32.024 183.158 32.048 182.942 32.072C182.726 32.096 182.528 32.108 182.348 32.108ZM190.02 32.216C189.06 32.216 188.184 31.994 187.392 31.55C186.612 31.106 185.988 30.5 185.52 29.732C185.064 28.964 184.836 28.088 184.836 27.104C184.836 26.12 185.064 25.244 185.52 24.476C185.988 23.708 186.612 23.102 187.392 22.658C188.172 22.214 189.048 21.992 190.02 21.992C190.98 21.992 191.85 22.214 192.63 22.658C193.41 23.102 194.028 23.708 194.484 24.476C194.952 25.232 195.186 26.108 195.186 27.104C195.186 28.088 194.952 28.964 194.484 29.732C194.016 30.5 193.392 31.106 192.612 31.55C191.832 31.994 190.968 32.216 190.02 32.216ZM190.02 30.056C190.548 30.056 191.01 29.93 191.406 29.678C191.814 29.426 192.132 29.078 192.36 28.634C192.6 28.178 192.72 27.668 192.72 27.104C192.72 26.528 192.6 26.024 192.36 25.592C192.132 25.148 191.814 24.8 191.406 24.548C191.01 24.284 190.548 24.152 190.02 24.152C189.48 24.152 189.006 24.284 188.598 24.548C188.19 24.8 187.866 25.148 187.626 25.592C187.398 26.024 187.284 26.528 187.284 27.104C187.284 27.668 187.398 28.178 187.626 28.634C187.866 29.078 188.19 29.426 188.598 29.678C189.006 29.93 189.48 30.056 190.02 30.056ZM196.974 32V22.208H199.188V24.386L199.008 24.062C199.236 23.33 199.59 22.82 200.07 22.532C200.562 22.244 201.15 22.1 201.834 22.1H202.41V24.188H201.564C200.892 24.188 200.352 24.398 199.944 24.818C199.536 25.226 199.332 25.802 199.332 26.546V32H196.974ZM207.104 32V18.59H209.552V32H207.104ZM211.933 32V22.208H214.147V24.134L213.967 23.792C214.195 23.204 214.567 22.76 215.083 22.46C215.611 22.148 216.223 21.992 216.919 21.992C217.639 21.992 218.275 22.148 218.827 22.46C219.391 22.772 219.829 23.21 220.141 23.774C220.453 24.326 220.609 24.968 220.609 25.7V32H218.251V26.258C218.251 25.826 218.167 25.454 217.999 25.142C217.831 24.83 217.597 24.59 217.297 24.422C217.009 24.242 216.667 24.152 216.271 24.152C215.887 24.152 215.545 24.242 215.245 24.422C214.945 24.59 214.711 24.83 214.543 25.142C214.375 25.454 214.291 25.826 214.291 26.258V32H211.933ZM226.329 32.216C225.285 32.216 224.373 31.97 223.593 31.478C222.825 30.974 222.297 30.296 222.009 29.444L223.773 28.598C224.025 29.15 224.373 29.582 224.817 29.894C225.273 30.206 225.777 30.362 226.329 30.362C226.761 30.362 227.103 30.266 227.355 30.074C227.607 29.882 227.733 29.63 227.733 29.318C227.733 29.126 227.679 28.97 227.571 28.85C227.475 28.718 227.337 28.61 227.157 28.526C226.989 28.43 226.803 28.352 226.599 28.292L224.997 27.842C224.169 27.602 223.539 27.236 223.107 26.744C222.687 26.252 222.477 25.67 222.477 24.998C222.477 24.398 222.627 23.876 222.927 23.432C223.239 22.976 223.665 22.622 224.205 22.37C224.757 22.118 225.387 21.992 226.095 21.992C227.019 21.992 227.835 22.214 228.543 22.658C229.251 23.102 229.755 23.726 230.055 24.53L228.255 25.376C228.087 24.932 227.805 24.578 227.409 24.314C227.013 24.05 226.569 23.918 226.077 23.918C225.681 23.918 225.369 24.008 225.141 24.188C224.913 24.368 224.799 24.602 224.799 24.89C224.799 25.07 224.847 25.226 224.943 25.358C225.039 25.49 225.171 25.598 225.339 25.682C225.519 25.766 225.723 25.844 225.951 25.916L227.517 26.384C228.321 26.624 228.939 26.984 229.371 27.464C229.815 27.944 230.037 28.532 230.037 29.228C230.037 29.816 229.881 30.338 229.569 30.794C229.257 31.238 228.825 31.586 228.273 31.838C227.721 32.09 227.073 32.216 226.329 32.216ZM235.341 32.216C234.585 32.216 233.925 32.048 233.361 31.712C232.809 31.376 232.383 30.908 232.083 30.308C231.795 29.708 231.651 29.006 231.651 28.202V22.208H234.009V28.004C234.009 28.412 234.087 28.772 234.243 29.084C234.411 29.384 234.645 29.624 234.945 29.804C235.257 29.972 235.605 30.056 235.989 30.056C236.373 30.056 236.715 29.972 237.015 29.804C237.315 29.624 237.549 29.378 237.717 29.066C237.885 28.754 237.969 28.382 237.969 27.95V22.208H240.327V32H238.095V30.074L238.293 30.416C238.065 31.016 237.687 31.466 237.159 31.766C236.643 32.066 236.037 32.216 235.341 32.216ZM242.519 32V22.208H244.733V24.386L244.553 24.062C244.781 23.33 245.135 22.82 245.615 22.532C246.107 22.244 246.695 22.1 247.379 22.1H247.955V24.188H247.109C246.437 24.188 245.897 24.398 245.489 24.818C245.081 25.226 244.877 25.802 244.877 26.546V32H242.519ZM252.221 32.216C251.537 32.216 250.943 32.102 250.439 31.874C249.935 31.646 249.545 31.322 249.269 30.902C248.993 30.47 248.855 29.972 248.855 29.408C248.855 28.868 248.975 28.388 249.215 27.968C249.455 27.536 249.827 27.176 250.331 26.888C250.835 26.6 251.471 26.396 252.239 26.276L255.443 25.754V27.554L252.689 28.022C252.221 28.106 251.873 28.256 251.645 28.472C251.417 28.688 251.303 28.97 251.303 29.318C251.303 29.654 251.429 29.924 251.681 30.128C251.945 30.32 252.269 30.416 252.653 30.416C253.145 30.416 253.577 30.314 253.949 30.11C254.333 29.894 254.627 29.6 254.831 29.228C255.047 28.856 255.155 28.448 255.155 28.004V25.484C255.155 25.064 254.987 24.716 254.651 24.44C254.327 24.152 253.895 24.008 253.355 24.008C252.851 24.008 252.401 24.146 252.005 24.422C251.621 24.686 251.339 25.04 251.159 25.484L249.233 24.548C249.425 24.032 249.725 23.588 250.133 23.216C250.553 22.832 251.045 22.532 251.609 22.316C252.173 22.1 252.785 21.992 253.445 21.992C254.249 21.992 254.957 22.142 255.569 22.442C256.181 22.73 256.655 23.138 256.991 23.666C257.339 24.182 257.513 24.788 257.513 25.484V32H255.281V30.326L255.785 30.29C255.533 30.71 255.233 31.064 254.885 31.352C254.537 31.628 254.141 31.844 253.697 32C253.253 32.144 252.761 32.216 252.221 32.216ZM259.693 32V22.208H261.907V24.134L261.727 23.792C261.955 23.204 262.327 22.76 262.843 22.46C263.371 22.148 263.983 21.992 264.679 21.992C265.399 21.992 266.035 22.148 266.587 22.46C267.151 22.772 267.589 23.21 267.901 23.774C268.213 24.326 268.369 24.968 268.369 25.7V32H266.011V26.258C266.011 25.826 265.927 25.454 265.759 25.142C265.591 24.83 265.357 24.59 265.057 24.422C264.769 24.242 264.427 24.152 264.031 24.152C263.647 24.152 263.305 24.242 263.005 24.422C262.705 24.59 262.471 24.83 262.303 25.142C262.135 25.454 262.051 25.826 262.051 26.258V32H259.693ZM275.079 32.216C274.107 32.216 273.231 31.994 272.451 31.55C271.683 31.094 271.077 30.482 270.633 29.714C270.189 28.934 269.967 28.058 269.967 27.086C269.967 26.114 270.189 25.244 270.633 24.476C271.077 23.708 271.683 23.102 272.451 22.658C273.231 22.214 274.107 21.992 275.079 21.992C275.775 21.992 276.423 22.118 277.023 22.37C277.623 22.61 278.139 22.946 278.571 23.378C279.015 23.798 279.333 24.302 279.525 24.89L277.455 25.79C277.275 25.298 276.969 24.902 276.537 24.602C276.117 24.302 275.631 24.152 275.079 24.152C274.563 24.152 274.101 24.278 273.693 24.53C273.297 24.782 272.985 25.13 272.757 25.574C272.529 26.018 272.415 26.528 272.415 27.104C272.415 27.68 272.529 28.19 272.757 28.634C272.985 29.078 273.297 29.426 273.693 29.678C274.101 29.93 274.563 30.056 275.079 30.056C275.643 30.056 276.135 29.906 276.555 29.606C276.975 29.306 277.275 28.904 277.455 28.4L279.525 29.336C279.333 29.888 279.021 30.386 278.589 30.83C278.157 31.262 277.641 31.604 277.041 31.856C276.441 32.096 275.787 32.216 275.079 32.216ZM285.958 32.216C284.95 32.216 284.068 31.988 283.312 31.532C282.556 31.076 281.968 30.458 281.548 29.678C281.128 28.898 280.918 28.034 280.918 27.086C280.918 26.102 281.128 25.232 281.548 24.476C281.98 23.708 282.562 23.102 283.294 22.658C284.038 22.214 284.866 21.992 285.778 21.992C286.546 21.992 287.218 22.118 287.794 22.37C288.382 22.622 288.88 22.97 289.288 23.414C289.696 23.858 290.008 24.368 290.224 24.944C290.44 25.508 290.548 26.12 290.548 26.78C290.548 26.948 290.536 27.122 290.512 27.302C290.5 27.482 290.47 27.638 290.422 27.77H282.862V25.97H289.09L287.974 26.816C288.082 26.264 288.052 25.772 287.884 25.34C287.728 24.908 287.464 24.566 287.092 24.314C286.732 24.062 286.294 23.936 285.778 23.936C285.286 23.936 284.848 24.062 284.464 24.314C284.08 24.554 283.786 24.914 283.582 25.394C283.39 25.862 283.318 26.432 283.366 27.104C283.318 27.704 283.396 28.238 283.6 28.706C283.816 29.162 284.128 29.516 284.536 29.768C284.956 30.02 285.436 30.146 285.976 30.146C286.516 30.146 286.972 30.032 287.344 29.804C287.728 29.576 288.028 29.27 288.244 28.886L290.152 29.822C289.96 30.29 289.66 30.704 289.252 31.064C288.844 31.424 288.358 31.706 287.794 31.91C287.242 32.114 286.63 32.216 285.958 32.216ZM0.973734 50V36.59H5.34773C6.76373 36.59 7.99373 36.878 9.03774 37.454C10.0937 38.018 10.9097 38.804 11.4857 39.812C12.0617 40.808 12.3497 41.966 12.3497 43.286C12.3497 44.594 12.0617 45.758 11.4857 46.778C10.9097 47.786 10.0937 48.578 9.03774 49.154C7.99373 49.718 6.76373 50 5.34773 50H0.973734ZM3.42173 47.84H5.40173C6.31373 47.84 7.09973 47.654 7.75973 47.282C8.43173 46.898 8.95373 46.37 9.32573 45.698C9.69773 45.014 9.88373 44.21 9.88373 43.286C9.88373 42.35 9.69773 41.546 9.32573 40.874C8.95373 40.202 8.43173 39.68 7.75973 39.308C7.09973 38.936 6.31373 38.75 5.40173 38.75H3.42173V47.84ZM17.0348 50.216C16.3508 50.216 15.7568 50.102 15.2528 49.874C14.7488 49.646 14.3588 49.322 14.0828 48.902C13.8068 48.47 13.6688 47.972 13.6688 47.408C13.6688 46.868 13.7888 46.388 14.0288 45.968C14.2688 45.536 14.6408 45.176 15.1448 44.888C15.6488 44.6 16.2848 44.396 17.0528 44.276L20.2568 43.754V45.554L17.5028 46.022C17.0348 46.106 16.6868 46.256 16.4588 46.472C16.2308 46.688 16.1168 46.97 16.1168 47.318C16.1168 47.654 16.2428 47.924 16.4948 48.128C16.7588 48.32 17.0828 48.416 17.4668 48.416C17.9588 48.416 18.3908 48.314 18.7628 48.11C19.1468 47.894 19.4408 47.6 19.6448 47.228C19.8608 46.856 19.9688 46.448 19.9688 46.004V43.484C19.9688 43.064 19.8008 42.716 19.4648 42.44C19.1408 42.152 18.7088 42.008 18.1688 42.008C17.6648 42.008 17.2148 42.146 16.8188 42.422C16.4348 42.686 16.1528 43.04 15.9728 43.484L14.0468 42.548C14.2388 42.032 14.5388 41.588 14.9468 41.216C15.3668 40.832 15.8588 40.532 16.4228 40.316C16.9868 40.1 17.5988 39.992 18.2588 39.992C19.0628 39.992 19.7708 40.142 20.3828 40.442C20.9948 40.73 21.4688 41.138 21.8048 41.666C22.1528 42.182 22.3268 42.788 22.3268 43.484V50H20.0948V48.326L20.5988 48.29C20.3468 48.71 20.0468 49.064 19.6988 49.352C19.3508 49.628 18.9548 49.844 18.5108 50C18.0668 50.144 17.5748 50.216 17.0348 50.216ZM28.7944 50.108C27.6904 50.108 26.8324 49.808 26.2204 49.208C25.6204 48.596 25.3204 47.738 25.3204 46.634V42.314H23.6284V40.208H23.8084C24.2884 40.208 24.6604 40.082 24.9244 39.83C25.1884 39.578 25.3204 39.212 25.3204 38.732V37.976H27.6784V40.208H29.9284V42.314H27.6784V46.508C27.6784 46.832 27.7324 47.108 27.8404 47.336C27.9604 47.564 28.1404 47.738 28.3804 47.858C28.6324 47.978 28.9504 48.038 29.3344 48.038C29.4184 48.038 29.5144 48.032 29.6224 48.02C29.7424 48.008 29.8564 47.996 29.9644 47.984V50C29.7964 50.024 29.6044 50.048 29.3884 50.072C29.1724 50.096 28.9744 50.108 28.7944 50.108ZM34.7008 50.216C34.0168 50.216 33.4228 50.102 32.9188 49.874C32.4148 49.646 32.0248 49.322 31.7488 48.902C31.4728 48.47 31.3348 47.972 31.3348 47.408C31.3348 46.868 31.4548 46.388 31.6948 45.968C31.9348 45.536 32.3068 45.176 32.8108 44.888C33.3148 44.6 33.9508 44.396 34.7188 44.276L37.9228 43.754V45.554L35.1688 46.022C34.7008 46.106 34.3528 46.256 34.1248 46.472C33.8968 46.688 33.7828 46.97 33.7828 47.318C33.7828 47.654 33.9088 47.924 34.1608 48.128C34.4248 48.32 34.7488 48.416 35.1328 48.416C35.6248 48.416 36.0568 48.314 36.4288 48.11C36.8128 47.894 37.1068 47.6 37.3108 47.228C37.5268 46.856 37.6348 46.448 37.6348 46.004V43.484C37.6348 43.064 37.4668 42.716 37.1308 42.44C36.8068 42.152 36.3748 42.008 35.8348 42.008C35.3308 42.008 34.8808 42.146 34.4848 42.422C34.1008 42.686 33.8188 43.04 33.6388 43.484L31.7128 42.548C31.9048 42.032 32.2048 41.588 32.6128 41.216C33.0328 40.832 33.5248 40.532 34.0888 40.316C34.6528 40.1 35.2648 39.992 35.9248 39.992C36.7288 39.992 37.4368 40.142 38.0488 40.442C38.6608 40.73 39.1348 41.138 39.4708 41.666C39.8188 42.182 39.9928 42.788 39.9928 43.484V50H37.7608V48.326L38.2648 48.29C38.0128 48.71 37.7128 49.064 37.3648 49.352C37.0168 49.628 36.6208 49.844 36.1768 50C35.7328 50.144 35.2408 50.216 34.7008 50.216ZM47.5182 50.216C46.8102 50.216 46.1562 50.078 45.5562 49.802C44.9682 49.514 44.5002 49.106 44.1522 48.578L44.3862 48.11V50H42.1722V36.374H44.5302V42.152L44.1702 41.666C44.5062 41.138 44.9622 40.73 45.5382 40.442C46.1142 40.142 46.7802 39.992 47.5362 39.992C48.4602 39.992 49.2942 40.22 50.0382 40.676C50.7822 41.132 51.3702 41.744 51.8022 42.512C52.2462 43.28 52.4682 44.144 52.4682 45.104C52.4682 46.052 52.2522 46.916 51.8202 47.696C51.3882 48.476 50.8002 49.094 50.0562 49.55C49.3122 49.994 48.4662 50.216 47.5182 50.216ZM47.2482 48.056C47.7882 48.056 48.2682 47.93 48.6882 47.678C49.1082 47.426 49.4322 47.078 49.6602 46.634C49.9002 46.19 50.0202 45.68 50.0202 45.104C50.0202 44.528 49.9002 44.024 49.6602 43.592C49.4322 43.148 49.1082 42.8 48.6882 42.548C48.2682 42.284 47.7882 42.152 47.2482 42.152C46.7322 42.152 46.2642 42.278 45.8442 42.53C45.4362 42.782 45.1122 43.136 44.8722 43.592C44.6442 44.036 44.5302 44.54 44.5302 45.104C44.5302 45.68 44.6442 46.19 44.8722 46.634C45.1122 47.078 45.4362 47.426 45.8442 47.678C46.2642 47.93 46.7322 48.056 47.2482 48.056ZM57.236 50.216C56.552 50.216 55.958 50.102 55.454 49.874C54.95 49.646 54.56 49.322 54.284 48.902C54.008 48.47 53.87 47.972 53.87 47.408C53.87 46.868 53.99 46.388 54.23 45.968C54.47 45.536 54.842 45.176 55.346 44.888C55.85 44.6 56.486 44.396 57.254 44.276L60.458 43.754V45.554L57.704 46.022C57.236 46.106 56.888 46.256 56.66 46.472C56.432 46.688 56.318 46.97 56.318 47.318C56.318 47.654 56.444 47.924 56.696 48.128C56.96 48.32 57.284 48.416 57.668 48.416C58.16 48.416 58.592 48.314 58.964 48.11C59.348 47.894 59.642 47.6 59.846 47.228C60.062 46.856 60.17 46.448 60.17 46.004V43.484C60.17 43.064 60.002 42.716 59.666 42.44C59.342 42.152 58.91 42.008 58.37 42.008C57.866 42.008 57.416 42.146 57.02 42.422C56.636 42.686 56.354 43.04 56.174 43.484L54.248 42.548C54.44 42.032 54.74 41.588 55.148 41.216C55.568 40.832 56.06 40.532 56.624 40.316C57.188 40.1 57.8 39.992 58.46 39.992C59.264 39.992 59.972 40.142 60.584 40.442C61.196 40.73 61.67 41.138 62.006 41.666C62.354 42.182 62.528 42.788 62.528 43.484V50H60.296V48.326L60.8 48.29C60.548 48.71 60.248 49.064 59.9 49.352C59.552 49.628 59.156 49.844 58.712 50C58.268 50.144 57.776 50.216 57.236 50.216ZM68.4334 50.216C67.3894 50.216 66.4774 49.97 65.6974 49.478C64.9294 48.974 64.4014 48.296 64.1134 47.444L65.8774 46.598C66.1294 47.15 66.4774 47.582 66.9214 47.894C67.3774 48.206 67.8814 48.362 68.4334 48.362C68.8654 48.362 69.2074 48.266 69.4594 48.074C69.7114 47.882 69.8374 47.63 69.8374 47.318C69.8374 47.126 69.7834 46.97 69.6754 46.85C69.5794 46.718 69.4414 46.61 69.2614 46.526C69.0934 46.43 68.9074 46.352 68.7034 46.292L67.1014 45.842C66.2734 45.602 65.6434 45.236 65.2114 44.744C64.7914 44.252 64.5814 43.67 64.5814 42.998C64.5814 42.398 64.7314 41.876 65.0314 41.432C65.3434 40.976 65.7694 40.622 66.3094 40.37C66.8614 40.118 67.4914 39.992 68.1994 39.992C69.1234 39.992 69.9394 40.214 70.6474 40.658C71.3554 41.102 71.8594 41.726 72.1594 42.53L70.3594 43.376C70.1914 42.932 69.9094 42.578 69.5134 42.314C69.1174 42.05 68.6734 41.918 68.1814 41.918C67.7854 41.918 67.4734 42.008 67.2454 42.188C67.0174 42.368 66.9034 42.602 66.9034 42.89C66.9034 43.07 66.9514 43.226 67.0474 43.358C67.1434 43.49 67.2754 43.598 67.4434 43.682C67.6234 43.766 67.8274 43.844 68.0554 43.916L69.6214 44.384C70.4254 44.624 71.0434 44.984 71.4754 45.464C71.9194 45.944 72.1414 46.532 72.1414 47.228C72.1414 47.816 71.9854 48.338 71.6734 48.794C71.3614 49.238 70.9294 49.586 70.3774 49.838C69.8254 50.09 69.1774 50.216 68.4334 50.216ZM78.5975 50.216C77.5895 50.216 76.7075 49.988 75.9515 49.532C75.1955 49.076 74.6075 48.458 74.1875 47.678C73.7675 46.898 73.5575 46.034 73.5575 45.086C73.5575 44.102 73.7675 43.232 74.1875 42.476C74.6195 41.708 75.2015 41.102 75.9335 40.658C76.6775 40.214 77.5055 39.992 78.4175 39.992C79.1855 39.992 79.8575 40.118 80.4335 40.37C81.0215 40.622 81.5195 40.97 81.9275 41.414C82.3355 41.858 82.6475 42.368 82.8635 42.944C83.0795 43.508 83.1875 44.12 83.1875 44.78C83.1875 44.948 83.1755 45.122 83.1515 45.302C83.1395 45.482 83.1095 45.638 83.0615 45.77H75.5015V43.97H81.7295L80.6135 44.816C80.7215 44.264 80.6915 43.772 80.5235 43.34C80.3675 42.908 80.1035 42.566 79.7315 42.314C79.3715 42.062 78.9335 41.936 78.4175 41.936C77.9255 41.936 77.4875 42.062 77.1035 42.314C76.7195 42.554 76.4255 42.914 76.2215 43.394C76.0295 43.862 75.9575 44.432 76.0055 45.104C75.9575 45.704 76.0355 46.238 76.2395 46.706C76.4555 47.162 76.7675 47.516 77.1755 47.768C77.5955 48.02 78.0755 48.146 78.6155 48.146C79.1555 48.146 79.6115 48.032 79.9835 47.804C80.3675 47.576 80.6675 47.27 80.8835 46.886L82.7915 47.822C82.5995 48.29 82.2995 48.704 81.8915 49.064C81.4835 49.424 80.9975 49.706 80.4335 49.91C79.8815 50.114 79.2695 50.216 78.5975 50.216ZM92.8182 50.216C91.8102 50.216 90.9282 49.988 90.1722 49.532C89.4162 49.076 88.8282 48.458 88.4082 47.678C87.9882 46.898 87.7782 46.034 87.7782 45.086C87.7782 44.102 87.9882 43.232 88.4082 42.476C88.8402 41.708 89.4222 41.102 90.1542 40.658C90.8982 40.214 91.7262 39.992 92.6382 39.992C93.4062 39.992 94.0782 40.118 94.6542 40.37C95.2422 40.622 95.7402 40.97 96.1482 41.414C96.5562 41.858 96.8682 42.368 97.0842 42.944C97.3002 43.508 97.4082 44.12 97.4082 44.78C97.4082 44.948 97.3962 45.122 97.3722 45.302C97.3602 45.482 97.3302 45.638 97.2822 45.77H89.7222V43.97H95.9502L94.8342 44.816C94.9422 44.264 94.9122 43.772 94.7442 43.34C94.5882 42.908 94.3242 42.566 93.9522 42.314C93.5922 42.062 93.1542 41.936 92.6382 41.936C92.1462 41.936 91.7082 42.062 91.3242 42.314C90.9402 42.554 90.6462 42.914 90.4422 43.394C90.2502 43.862 90.1782 44.432 90.2262 45.104C90.1782 45.704 90.2562 46.238 90.4602 46.706C90.6762 47.162 90.9882 47.516 91.3962 47.768C91.8162 48.02 92.2962 48.146 92.8362 48.146C93.3762 48.146 93.8322 48.032 94.2042 47.804C94.5882 47.576 94.8882 47.27 95.1042 46.886L97.0122 47.822C96.8202 48.29 96.5202 48.704 96.1122 49.064C95.7042 49.424 95.2182 49.706 94.6542 49.91C94.1022 50.114 93.4902 50.216 92.8182 50.216ZM101.972 50L98.1199 40.208H100.694L103.484 47.912H102.53L105.338 40.208H107.912L104.06 50H101.972ZM113.683 50.216C112.675 50.216 111.793 49.988 111.037 49.532C110.281 49.076 109.693 48.458 109.273 47.678C108.853 46.898 108.643 46.034 108.643 45.086C108.643 44.102 108.853 43.232 109.273 42.476C109.705 41.708 110.287 41.102 111.019 40.658C111.763 40.214 112.591 39.992 113.503 39.992C114.271 39.992 114.943 40.118 115.519 40.37C116.107 40.622 116.605 40.97 117.013 41.414C117.421 41.858 117.733 42.368 117.949 42.944C118.165 43.508 118.273 44.12 118.273 44.78C118.273 44.948 118.261 45.122 118.237 45.302C118.225 45.482 118.195 45.638 118.147 45.77H110.587V43.97H116.815L115.699 44.816C115.807 44.264 115.777 43.772 115.609 43.34C115.453 42.908 115.189 42.566 114.817 42.314C114.457 42.062 114.019 41.936 113.503 41.936C113.011 41.936 112.573 42.062 112.189 42.314C111.805 42.554 111.511 42.914 111.307 43.394C111.115 43.862 111.043 44.432 111.091 45.104C111.043 45.704 111.121 46.238 111.325 46.706C111.541 47.162 111.853 47.516 112.261 47.768C112.681 48.02 113.161 48.146 113.701 48.146C114.241 48.146 114.697 48.032 115.069 47.804C115.453 47.576 115.753 47.27 115.969 46.886L117.877 47.822C117.685 48.29 117.385 48.704 116.977 49.064C116.569 49.424 116.083 49.706 115.519 49.91C114.967 50.114 114.355 50.216 113.683 50.216ZM120.061 50V40.208H122.275V42.386L122.095 42.062C122.323 41.33 122.677 40.82 123.157 40.532C123.649 40.244 124.237 40.1 124.921 40.1H125.497V42.188H124.651C123.979 42.188 123.439 42.398 123.031 42.818C122.623 43.226 122.419 43.802 122.419 44.546V50H120.061ZM127.981 53.96C127.717 53.96 127.459 53.936 127.207 53.888C126.955 53.852 126.727 53.78 126.523 53.672V51.71C126.679 51.746 126.865 51.782 127.081 51.818C127.309 51.854 127.519 51.872 127.711 51.872C128.251 51.872 128.641 51.746 128.881 51.494C129.133 51.254 129.355 50.93 129.547 50.522L130.195 49.01L130.159 50.99L125.893 40.208H128.431L131.419 48.164H130.519L133.489 40.208H136.045L131.779 50.99C131.527 51.614 131.221 52.148 130.861 52.592C130.501 53.036 130.081 53.372 129.601 53.6C129.133 53.84 128.593 53.96 127.981 53.96ZM145.093 50.216C144.145 50.216 143.299 49.994 142.555 49.55C141.811 49.094 141.223 48.476 140.791 47.696C140.359 46.916 140.143 46.052 140.143 45.104C140.143 44.144 140.359 43.28 140.791 42.512C141.223 41.744 141.811 41.132 142.555 40.676C143.311 40.22 144.151 39.992 145.075 39.992C145.819 39.992 146.479 40.142 147.055 40.442C147.643 40.73 148.105 41.138 148.441 41.666L148.081 42.152V36.374H150.439V50H148.207V48.11L148.459 48.578C148.123 49.106 147.655 49.514 147.055 49.802C146.455 50.078 145.801 50.216 145.093 50.216ZM145.345 48.056C145.885 48.056 146.359 47.93 146.767 47.678C147.175 47.426 147.493 47.078 147.721 46.634C147.961 46.19 148.081 45.68 148.081 45.104C148.081 44.54 147.961 44.036 147.721 43.592C147.493 43.136 147.175 42.782 146.767 42.53C146.359 42.278 145.885 42.152 145.345 42.152C144.817 42.152 144.343 42.284 143.923 42.548C143.503 42.8 143.173 43.148 142.933 43.592C142.705 44.024 142.591 44.528 142.591 45.104C142.591 45.68 142.705 46.19 142.933 46.634C143.173 47.078 143.503 47.426 143.923 47.678C144.343 47.93 144.817 48.056 145.345 48.056ZM155.603 50.216C154.919 50.216 154.325 50.102 153.821 49.874C153.317 49.646 152.927 49.322 152.651 48.902C152.375 48.47 152.237 47.972 152.237 47.408C152.237 46.868 152.357 46.388 152.597 45.968C152.837 45.536 153.209 45.176 153.713 44.888C154.217 44.6 154.853 44.396 155.621 44.276L158.825 43.754V45.554L156.071 46.022C155.603 46.106 155.255 46.256 155.027 46.472C154.799 46.688 154.685 46.97 154.685 47.318C154.685 47.654 154.811 47.924 155.063 48.128C155.327 48.32 155.651 48.416 156.035 48.416C156.527 48.416 156.959 48.314 157.331 48.11C157.715 47.894 158.009 47.6 158.213 47.228C158.429 46.856 158.537 46.448 158.537 46.004V43.484C158.537 43.064 158.369 42.716 158.033 42.44C157.709 42.152 157.277 42.008 156.737 42.008C156.233 42.008 155.783 42.146 155.387 42.422C155.003 42.686 154.721 43.04 154.541 43.484L152.615 42.548C152.807 42.032 153.107 41.588 153.515 41.216C153.935 40.832 154.427 40.532 154.991 40.316C155.555 40.1 156.167 39.992 156.827 39.992C157.631 39.992 158.339 40.142 158.951 40.442C159.563 40.73 160.037 41.138 160.373 41.666C160.721 42.182 160.895 42.788 160.895 43.484V50H158.663V48.326L159.167 48.29C158.915 48.71 158.615 49.064 158.267 49.352C157.919 49.628 157.523 49.844 157.079 50C156.635 50.144 156.143 50.216 155.603 50.216ZM164.263 53.96C163.999 53.96 163.741 53.936 163.489 53.888C163.237 53.852 163.009 53.78 162.805 53.672V51.71C162.961 51.746 163.147 51.782 163.363 51.818C163.591 51.854 163.801 51.872 163.993 51.872C164.533 51.872 164.923 51.746 165.163 51.494C165.415 51.254 165.637 50.93 165.829 50.522L166.477 49.01L166.441 50.99L162.175 40.208H164.713L167.701 48.164H166.801L169.771 40.208H172.327L168.061 50.99C167.809 51.614 167.503 52.148 167.143 52.592C166.783 53.036 166.363 53.372 165.883 53.6C165.415 53.84 164.875 53.96 164.263 53.96ZM173.657 52.808V51.638C174.053 51.542 174.371 51.356 174.611 51.08C174.863 50.816 175.019 50.456 175.079 50H174.017V47.48H176.393V49.028C176.393 50.084 176.159 50.93 175.691 51.566C175.235 52.202 174.557 52.616 173.657 52.808ZM186.71 50.216C185.978 50.216 185.282 50.084 184.622 49.82C183.974 49.544 183.416 49.16 182.948 48.668C182.492 48.164 182.18 47.57 182.012 46.886L184.154 46.13C184.37 46.742 184.7 47.21 185.144 47.534C185.588 47.846 186.11 48.002 186.71 48.002C187.19 48.002 187.604 47.912 187.952 47.732C188.312 47.552 188.594 47.294 188.798 46.958C189.002 46.61 189.104 46.202 189.104 45.734C189.104 45.266 189.002 44.87 188.798 44.546C188.606 44.21 188.33 43.952 187.97 43.772C187.61 43.592 187.184 43.502 186.692 43.502C186.464 43.502 186.224 43.526 185.972 43.574C185.732 43.622 185.516 43.694 185.324 43.79L184.766 42.62L188.24 38.66H182.768V36.59H190.994V38.516L187.502 42.602L187.538 41.684C188.342 41.696 189.044 41.87 189.644 42.206C190.244 42.542 190.712 43.004 191.048 43.592C191.384 44.18 191.552 44.87 191.552 45.662C191.552 46.526 191.342 47.306 190.922 48.002C190.502 48.686 189.926 49.226 189.194 49.622C188.462 50.018 187.634 50.216 186.71 50.216ZM197.875 50.216C196.963 50.216 196.153 50.024 195.445 49.64C194.749 49.244 194.203 48.716 193.807 48.056C193.411 47.384 193.213 46.622 193.213 45.77C193.213 45.338 193.255 44.906 193.339 44.474C193.435 44.042 193.603 43.58 193.843 43.088C194.095 42.596 194.455 42.05 194.923 41.45L198.667 36.59H201.583L197.029 42.44L196.633 42.008C196.801 41.876 196.975 41.774 197.155 41.702C197.335 41.618 197.515 41.558 197.695 41.522C197.887 41.486 198.085 41.468 198.289 41.468C199.105 41.468 199.831 41.654 200.467 42.026C201.103 42.398 201.601 42.908 201.961 43.556C202.333 44.192 202.519 44.912 202.519 45.716C202.519 46.58 202.321 47.354 201.925 48.038C201.529 48.71 200.977 49.244 200.269 49.64C199.573 50.024 198.775 50.216 197.875 50.216ZM197.875 48.002C198.283 48.002 198.649 47.912 198.973 47.732C199.309 47.54 199.573 47.27 199.765 46.922C199.969 46.574 200.071 46.184 200.071 45.752C200.071 45.296 199.969 44.906 199.765 44.582C199.573 44.246 199.315 43.982 198.991 43.79C198.667 43.598 198.295 43.502 197.875 43.502C197.467 43.502 197.095 43.598 196.759 43.79C196.423 43.982 196.153 44.246 195.949 44.582C195.757 44.906 195.661 45.296 195.661 45.752C195.661 46.184 195.757 46.574 195.949 46.922C196.153 47.27 196.423 47.54 196.759 47.732C197.095 47.912 197.467 48.002 197.875 48.002ZM208.614 50.216C207.906 50.216 207.228 50.084 206.58 49.82C205.944 49.556 205.392 49.184 204.924 48.704C204.468 48.212 204.156 47.63 203.988 46.958L206.112 46.202C206.316 46.814 206.646 47.27 207.102 47.57C207.558 47.858 208.062 48.002 208.614 48.002C209.07 48.002 209.472 47.906 209.82 47.714C210.18 47.51 210.456 47.234 210.648 46.886C210.84 46.526 210.936 46.112 210.936 45.644C210.936 45.176 210.834 44.768 210.63 44.42C210.438 44.072 210.168 43.802 209.82 43.61C209.472 43.406 209.07 43.304 208.614 43.304C208.146 43.304 207.72 43.406 207.336 43.61C206.964 43.814 206.694 44.108 206.526 44.492L204.528 44.042L205.59 36.59H212.898V38.66H206.562L207.48 37.598L206.724 43.214L206.022 42.638C206.358 42.146 206.766 41.786 207.246 41.558C207.738 41.33 208.332 41.216 209.028 41.216C209.916 41.216 210.684 41.408 211.332 41.792C211.992 42.176 212.502 42.698 212.862 43.358C213.222 44.018 213.402 44.78 213.402 45.644C213.402 46.508 213.192 47.288 212.772 47.984C212.352 48.68 211.782 49.226 211.062 49.622C210.342 50.018 209.526 50.216 208.614 50.216ZM223.193 50.216C222.245 50.216 221.399 49.994 220.655 49.55C219.911 49.094 219.323 48.476 218.891 47.696C218.459 46.916 218.243 46.052 218.243 45.104C218.243 44.144 218.459 43.28 218.891 42.512C219.323 41.744 219.911 41.132 220.655 40.676C221.411 40.22 222.251 39.992 223.175 39.992C223.919 39.992 224.579 40.142 225.155 40.442C225.743 40.73 226.205 41.138 226.541 41.666L226.181 42.152V36.374H228.539V50H226.307V48.11L226.559 48.578C226.223 49.106 225.755 49.514 225.155 49.802C224.555 50.078 223.901 50.216 223.193 50.216ZM223.445 48.056C223.985 48.056 224.459 47.93 224.867 47.678C225.275 47.426 225.593 47.078 225.821 46.634C226.061 46.19 226.181 45.68 226.181 45.104C226.181 44.54 226.061 44.036 225.821 43.592C225.593 43.136 225.275 42.782 224.867 42.53C224.459 42.278 223.985 42.152 223.445 42.152C222.917 42.152 222.443 42.284 222.023 42.548C221.603 42.8 221.273 43.148 221.033 43.592C220.805 44.024 220.691 44.528 220.691 45.104C220.691 45.68 220.805 46.19 221.033 46.634C221.273 47.078 221.603 47.426 222.023 47.678C222.443 47.93 222.917 48.056 223.445 48.056ZM233.703 50.216C233.019 50.216 232.425 50.102 231.921 49.874C231.417 49.646 231.027 49.322 230.751 48.902C230.475 48.47 230.337 47.972 230.337 47.408C230.337 46.868 230.457 46.388 230.697 45.968C230.937 45.536 231.309 45.176 231.813 44.888C232.317 44.6 232.953 44.396 233.721 44.276L236.925 43.754V45.554L234.171 46.022C233.703 46.106 233.355 46.256 233.127 46.472C232.899 46.688 232.785 46.97 232.785 47.318C232.785 47.654 232.911 47.924 233.163 48.128C233.427 48.32 233.751 48.416 234.135 48.416C234.627 48.416 235.059 48.314 235.431 48.11C235.815 47.894 236.109 47.6 236.313 47.228C236.529 46.856 236.637 46.448 236.637 46.004V43.484C236.637 43.064 236.469 42.716 236.133 42.44C235.809 42.152 235.377 42.008 234.837 42.008C234.333 42.008 233.883 42.146 233.487 42.422C233.103 42.686 232.821 43.04 232.641 43.484L230.715 42.548C230.907 42.032 231.207 41.588 231.615 41.216C232.035 40.832 232.527 40.532 233.091 40.316C233.655 40.1 234.267 39.992 234.927 39.992C235.731 39.992 236.439 40.142 237.051 40.442C237.663 40.73 238.137 41.138 238.473 41.666C238.821 42.182 238.995 42.788 238.995 43.484V50H236.763V48.326L237.267 48.29C237.015 48.71 236.715 49.064 236.367 49.352C236.019 49.628 235.623 49.844 235.179 50C234.735 50.144 234.243 50.216 233.703 50.216ZM242.362 53.96C242.098 53.96 241.84 53.936 241.588 53.888C241.336 53.852 241.108 53.78 240.904 53.672V51.71C241.06 51.746 241.246 51.782 241.462 51.818C241.69 51.854 241.9 51.872 242.092 51.872C242.632 51.872 243.022 51.746 243.262 51.494C243.514 51.254 243.736 50.93 243.928 50.522L244.576 49.01L244.54 50.99L240.274 40.208H242.812L245.8 48.164H244.9L247.87 40.208H250.426L246.16 50.99C245.908 51.614 245.602 52.148 245.242 52.592C244.882 53.036 244.462 53.372 243.982 53.6C243.514 53.84 242.974 53.96 242.362 53.96ZM255.447 50.216C254.403 50.216 253.491 49.97 252.711 49.478C251.943 48.974 251.415 48.296 251.127 47.444L252.891 46.598C253.143 47.15 253.491 47.582 253.935 47.894C254.391 48.206 254.895 48.362 255.447 48.362C255.879 48.362 256.221 48.266 256.473 48.074C256.725 47.882 256.851 47.63 256.851 47.318C256.851 47.126 256.797 46.97 256.689 46.85C256.593 46.718 256.455 46.61 256.275 46.526C256.107 46.43 255.921 46.352 255.717 46.292L254.115 45.842C253.287 45.602 252.657 45.236 252.225 44.744C251.805 44.252 251.595 43.67 251.595 42.998C251.595 42.398 251.745 41.876 252.045 41.432C252.357 40.976 252.783 40.622 253.323 40.37C253.875 40.118 254.505 39.992 255.213 39.992C256.137 39.992 256.953 40.214 257.661 40.658C258.369 41.102 258.873 41.726 259.173 42.53L257.373 43.376C257.205 42.932 256.923 42.578 256.527 42.314C256.131 42.05 255.687 41.918 255.195 41.918C254.799 41.918 254.487 42.008 254.259 42.188C254.031 42.368 253.917 42.602 253.917 42.89C253.917 43.07 253.965 43.226 254.061 43.358C254.157 43.49 254.289 43.598 254.457 43.682C254.637 43.766 254.841 43.844 255.069 43.916L256.635 44.384C257.439 44.624 258.057 44.984 258.489 45.464C258.933 45.944 259.155 46.532 259.155 47.228C259.155 47.816 258.999 48.338 258.687 48.794C258.375 49.238 257.943 49.586 257.391 49.838C256.839 50.09 256.191 50.216 255.447 50.216ZM267.136 50.216C266.452 50.216 265.858 50.102 265.354 49.874C264.85 49.646 264.46 49.322 264.184 48.902C263.908 48.47 263.77 47.972 263.77 47.408C263.77 46.868 263.89 46.388 264.13 45.968C264.37 45.536 264.742 45.176 265.246 44.888C265.75 44.6 266.386 44.396 267.154 44.276L270.358 43.754V45.554L267.604 46.022C267.136 46.106 266.788 46.256 266.56 46.472C266.332 46.688 266.218 46.97 266.218 47.318C266.218 47.654 266.344 47.924 266.596 48.128C266.86 48.32 267.184 48.416 267.568 48.416C268.06 48.416 268.492 48.314 268.864 48.11C269.248 47.894 269.542 47.6 269.746 47.228C269.962 46.856 270.07 46.448 270.07 46.004V43.484C270.07 43.064 269.902 42.716 269.566 42.44C269.242 42.152 268.81 42.008 268.27 42.008C267.766 42.008 267.316 42.146 266.92 42.422C266.536 42.686 266.254 43.04 266.074 43.484L264.148 42.548C264.34 42.032 264.64 41.588 265.048 41.216C265.468 40.832 265.96 40.532 266.524 40.316C267.088 40.1 267.7 39.992 268.36 39.992C269.164 39.992 269.872 40.142 270.484 40.442C271.096 40.73 271.57 41.138 271.906 41.666C272.254 42.182 272.428 42.788 272.428 43.484V50H270.196V48.326L270.7 48.29C270.448 48.71 270.148 49.064 269.8 49.352C269.452 49.628 269.056 49.844 268.612 50C268.168 50.144 267.676 50.216 267.136 50.216ZM278.995 53.96C278.731 53.96 278.473 53.936 278.221 53.888C277.969 53.852 277.741 53.78 277.537 53.672V51.71C277.693 51.746 277.879 51.782 278.095 51.818C278.323 51.854 278.533 51.872 278.725 51.872C279.265 51.872 279.655 51.746 279.895 51.494C280.147 51.254 280.369 50.93 280.561 50.522L281.209 49.01L281.173 50.99L276.907 40.208H279.445L282.433 48.164H281.533L284.503 40.208H287.059L282.793 50.99C282.541 51.614 282.235 52.148 281.875 52.592C281.515 53.036 281.095 53.372 280.615 53.6C280.147 53.84 279.607 53.96 278.995 53.96ZM292.822 50.216C291.814 50.216 290.932 49.988 290.176 49.532C289.42 49.076 288.832 48.458 288.412 47.678C287.992 46.898 287.782 46.034 287.782 45.086C287.782 44.102 287.992 43.232 288.412 42.476C288.844 41.708 289.426 41.102 290.158 40.658C290.902 40.214 291.73 39.992 292.642 39.992C293.41 39.992 294.082 40.118 294.658 40.37C295.246 40.622 295.744 40.97 296.152 41.414C296.56 41.858 296.872 42.368 297.088 42.944C297.304 43.508 297.412 44.12 297.412 44.78C297.412 44.948 297.4 45.122 297.376 45.302C297.364 45.482 297.334 45.638 297.286 45.77H289.726V43.97H295.954L294.838 44.816C294.946 44.264 294.916 43.772 294.748 43.34C294.592 42.908 294.328 42.566 293.956 42.314C293.596 42.062 293.158 41.936 292.642 41.936C292.15 41.936 291.712 42.062 291.328 42.314C290.944 42.554 290.65 42.914 290.446 43.394C290.254 43.862 290.182 44.432 290.23 45.104C290.182 45.704 290.26 46.238 290.464 46.706C290.68 47.162 290.992 47.516 291.4 47.768C291.82 48.02 292.3 48.146 292.84 48.146C293.38 48.146 293.836 48.032 294.208 47.804C294.592 47.576 294.892 47.27 295.108 46.886L297.016 47.822C296.824 48.29 296.524 48.704 296.116 49.064C295.708 49.424 295.222 49.706 294.658 49.91C294.106 50.114 293.494 50.216 292.822 50.216ZM302.134 50.216C301.45 50.216 300.856 50.102 300.352 49.874C299.848 49.646 299.458 49.322 299.182 48.902C298.906 48.47 298.768 47.972 298.768 47.408C298.768 46.868 298.888 46.388 299.128 45.968C299.368 45.536 299.74 45.176 300.244 44.888C300.748 44.6 301.384 44.396 302.152 44.276L305.356 43.754V45.554L302.602 46.022C302.134 46.106 301.786 46.256 301.558 46.472C301.33 46.688 301.216 46.97 301.216 47.318C301.216 47.654 301.342 47.924 301.594 48.128C301.858 48.32 302.182 48.416 302.566 48.416C303.058 48.416 303.49 48.314 303.862 48.11C304.246 47.894 304.54 47.6 304.744 47.228C304.96 46.856 305.068 46.448 305.068 46.004V43.484C305.068 43.064 304.9 42.716 304.564 42.44C304.24 42.152 303.808 42.008 303.268 42.008C302.764 42.008 302.314 42.146 301.918 42.422C301.534 42.686 301.252 43.04 301.072 43.484L299.146 42.548C299.338 42.032 299.638 41.588 300.046 41.216C300.466 40.832 300.958 40.532 301.522 40.316C302.086 40.1 302.698 39.992 303.358 39.992C304.162 39.992 304.87 40.142 305.482 40.442C306.094 40.73 306.568 41.138 306.904 41.666C307.252 42.182 307.426 42.788 307.426 43.484V50H305.194V48.326L305.698 48.29C305.446 48.71 305.146 49.064 304.798 49.352C304.45 49.628 304.054 49.844 303.61 50C303.166 50.144 302.674 50.216 302.134 50.216ZM309.606 50V40.208H311.82V42.386L311.64 42.062C311.868 41.33 312.222 40.82 312.702 40.532C313.194 40.244 313.782 40.1 314.466 40.1H315.042V42.188H314.196C313.524 42.188 312.984 42.398 312.576 42.818C312.168 43.226 311.964 43.802 311.964 44.546V50H309.606ZM316.734 50V47.48H319.11V50H316.734Z" fill="#000822"/>
</svg>
