<svg width="135" height="127" viewBox="0 0 135 127" fill="none" xmlns="http://www.w3.org/2000/svg">
<rect x="0.708984" y="0.578613" width="78.5753" height="97.1043" fill="url(#paint0_linear_1_837)" fill-opacity="0.48"/>
<path d="M63.4358 63.4102C80.3607 63.4102 94.0809 67.3608 94.0813 72.2344C94.0813 72.3091 94.0779 72.3837 94.0715 72.458H94.0823V88.7734H94.0774C94.0783 88.8019 94.0813 88.8308 94.0813 88.8594C94.0805 93.7329 80.3604 97.6836 63.4358 97.6836C46.5113 97.6836 32.7911 93.7329 32.7903 88.8594C32.7903 88.7831 32.7934 88.7066 32.8 88.6309V72.458C32.7936 72.3838 32.7903 72.3091 32.7903 72.2344C32.7907 67.3608 46.511 63.4102 63.4358 63.4102Z" fill="#000822"/>
<ellipse cx="63.4359" cy="71.8661" rx="30.6456" ry="8.45589" fill="#0388FF"/>
<path d="M63.4358 37.5925C80.3607 37.5925 94.081 41.5431 94.0813 46.4167C94.0813 46.4911 94.0779 46.5654 94.0715 46.6394H94.0823V62.9558H94.0774C94.0783 62.9841 94.0813 63.0124 94.0813 63.0408C94.0813 67.9145 80.3609 71.866 63.4358 71.866C46.5108 71.8659 32.7903 67.9145 32.7903 63.0408C32.7903 62.9647 32.7934 62.8888 32.8 62.8132V46.6394C32.7937 46.5655 32.7903 46.4911 32.7903 46.4167C32.7906 41.5431 46.511 37.5926 63.4358 37.5925Z" fill="#000822"/>
<ellipse cx="63.4359" cy="46.0484" rx="30.6456" ry="8.45589" fill="#0388FF"/>
<path d="M82.6977 16.8287C98.4605 22.9907 109.801 31.6655 108.027 36.2048C108 36.2743 107.97 36.3428 107.937 36.4096L107.945 36.4128L102.005 51.6084L102.001 51.607C101.991 51.6339 101.984 51.6618 101.973 51.6884C100.199 56.2275 85.9817 54.9116 70.2184 48.7495C54.4552 42.5875 43.1148 33.9127 44.8889 29.3735C44.9111 29.3166 44.9366 29.2612 44.9627 29.2062L50.8677 14.1006L50.8704 14.1017C50.8914 14.0303 50.9155 13.9593 50.9427 13.8898C52.7179 9.35114 66.9347 10.6668 82.6977 16.8287Z" fill="#000822"/>
<ellipse cx="79.6192" cy="24.7042" rx="30.6456" ry="8.45589" transform="rotate(21.3511 79.6192 24.7042)" fill="#0388FF"/>
<ellipse cx="105.625" cy="97.6834" rx="28.9219" ry="28.8587" fill="url(#paint1_linear_1_837)"/>
<ellipse cx="105.625" cy="97.6834" rx="28.9219" ry="28.8587" fill="url(#paint2_linear_1_837)"/>
<path d="M98.646 104.667L112.605 90.7002" stroke="#000822" stroke-width="4.17079" stroke-linecap="round"/>
<path d="M112.604 104.667L98.646 90.6997" stroke="#000822" stroke-width="4.17079" stroke-linecap="round"/>
<defs>
<linearGradient id="paint0_linear_1_837" x1="39.9966" y1="0.578613" x2="39.9966" y2="97.6829" gradientUnits="userSpaceOnUse">
<stop stop-color="#0388FF" stop-opacity="0"/>
<stop offset="1" stop-color="#0388FF"/>
</linearGradient>
<linearGradient id="paint1_linear_1_837" x1="56.8039" y1="118.537" x2="114.202" y2="89.4566" gradientUnits="userSpaceOnUse">
<stop stop-color="white" stop-opacity="0.3"/>
<stop offset="1" stop-color="#0388FF"/>
</linearGradient>
<linearGradient id="paint2_linear_1_837" x1="56.8039" y1="118.537" x2="114.202" y2="89.4566" gradientUnits="userSpaceOnUse">
<stop stop-color="white" stop-opacity="0.3"/>
<stop offset="1" stop-color="#0388FF"/>
</linearGradient>
</defs>
</svg>
