<svg width="169" height="136" viewBox="0 0 169 136" fill="none" xmlns="http://www.w3.org/2000/svg">
<rect y="0.448242" width="83.1313" height="90.2897" fill="url(#paint0_linear_359_239)" fill-opacity="0.48"/>
<path d="M41.5664 35.9443H99.0055L122.73 55.4098V130.05H41.5664V35.9443Z" fill="#000822"/>
<path d="M55.0703 76.5157C55.3742 72.6016 58.1485 64.7734 66.8143 64.7734C75.4802 64.7734 78.1191 72.6016 78.3553 76.5157" stroke="#0388FF" stroke-width="3.38832" stroke-linecap="round"/>
<path d="M66.7012 47.6357C70.9274 47.6357 74.3535 51.0611 74.3535 55.2861C74.3535 59.5111 70.9274 62.9365 66.7012 62.9365C62.4751 62.9363 59.0498 59.511 59.0498 55.2861C59.0498 51.0612 62.4751 47.6359 66.7012 47.6357Z" stroke="#0388FF" stroke-width="3.38832"/>
<path d="M98.9775 55.3972L98.9766 35.7881L122.764 55.3972H98.9775Z" fill="#0388FF"/>
<path d="M52.0156 109.42H79.6839" stroke="#0388FF" stroke-width="4" stroke-linecap="round"/>
<path d="M52.0156 119.227H96.5129" stroke="#0388FF" stroke-width="4" stroke-linecap="round"/>
<ellipse cx="134.288" cy="101.914" rx="33.7805" ry="33.7562" fill="url(#paint1_linear_359_239)"/>
<ellipse cx="134.288" cy="101.914" rx="33.7805" ry="33.7562" fill="url(#paint2_linear_359_239)"/>
<path d="M121.148 103.004L127.059 111.091C128.376 112.894 131.079 112.856 132.346 111.017L144.814 92.9111" stroke="#000822" stroke-width="5.32372" stroke-linecap="round"/>
<defs>
<linearGradient id="paint0_linear_359_239" x1="41.5657" y1="0.448242" x2="41.5657" y2="90.7379" gradientUnits="userSpaceOnUse">
<stop stop-color="#0388FF" stop-opacity="0"/>
<stop offset="1" stop-color="#0388FF"/>
</linearGradient>
<linearGradient id="paint1_linear_359_239" x1="77.2653" y1="126.308" x2="144.346" y2="92.3708" gradientUnits="userSpaceOnUse">
<stop stop-color="white" stop-opacity="0.3"/>
<stop offset="1" stop-color="#0388FF"/>
</linearGradient>
<linearGradient id="paint2_linear_359_239" x1="77.2653" y1="126.308" x2="144.346" y2="92.3708" gradientUnits="userSpaceOnUse">
<stop stop-color="white" stop-opacity="0.3"/>
<stop offset="1" stop-color="#0388FF"/>
</linearGradient>
</defs>
</svg>
