<svg width="142" height="109" viewBox="0 0 142 109" fill="none" xmlns="http://www.w3.org/2000/svg">
<rect x="0.358398" y="8.68286" width="69.9835" height="86.4864" fill="url(#paint0_linear_1_864)" fill-opacity="0.48"/>
<path d="M53.5899 57.4573L37.3742 57.4573L31.0512 67.6434C30.3509 68.7717 29.9797 70.0733 29.9797 71.4012V91.6066C29.9797 93.5742 31.5748 95.1692 33.5424 95.1692L134.126 95.1692C136.094 95.1692 137.689 93.5742 137.689 91.6066V71.3865C137.689 70.0678 137.323 68.7749 136.632 67.6518L130.357 57.4573L116.477 57.4573H53.5899Z" fill="#000822"/>
<rect x="35.3506" y="81.7195" width="24.1451" height="26.9" rx="5.34393" fill="#000822"/>
<rect x="108.299" y="81.7195" width="24.1451" height="26.9" rx="5.34393" fill="#000822"/>
<path d="M47.642 34.3267C48.931 31.4375 51.7987 29.5767 54.9624 29.5767H112.287C115.402 29.5767 118.235 31.3811 119.552 34.2039L130.399 57.4575H37.3228L47.642 34.3267Z" fill="#000822"/>
<path d="M66.3318 84.5117H101.336" stroke="#0388FF" stroke-width="2.67196" stroke-linecap="round"/>
<ellipse cx="113.48" cy="29.5765" rx="28.0161" ry="27.9549" fill="url(#paint1_linear_1_864)"/>
<ellipse cx="113.48" cy="29.5765" rx="28.0161" ry="27.9549" fill="url(#paint2_linear_1_864)"/>
<path d="M106.089 44.0829V18.6331H115.586C117.317 18.6331 118.843 18.9519 120.164 19.5896C121.507 20.2045 122.555 21.1154 123.306 22.3224C124.058 23.5067 124.434 24.9528 124.434 26.6609C124.434 28.3461 124.047 29.7923 123.272 30.9993C122.521 32.1835 121.485 33.0945 120.164 33.7322C118.843 34.3698 117.317 34.6887 115.586 34.6887H110.735V44.0829H106.089ZM110.735 30.5894H115.654C116.497 30.5894 117.226 30.4299 117.841 30.1111C118.456 29.7695 118.934 29.3026 119.275 28.7105C119.617 28.1184 119.788 27.4352 119.788 26.6609C119.788 25.8638 119.617 25.1806 119.275 24.6112C118.934 24.0191 118.456 23.5636 117.841 23.2448C117.226 22.9032 116.497 22.7324 115.654 22.7324H110.735V30.5894Z" fill="#000822"/>
<path d="M125.257 14.9034L137.689 2.46338" stroke="#000822" stroke-width="3.71473" stroke-linecap="round"/>
<path d="M137.689 14.9033L125.257 2.46284" stroke="#000822" stroke-width="3.71473" stroke-linecap="round"/>
<rect x="40.5332" y="71.0122" width="13.7799" height="6.84876" rx="1" fill="#0388FF"/>
<rect x="113.48" y="71.0122" width="13.7799" height="6.84876" rx="1" fill="#0388FF"/>
<defs>
<linearGradient id="paint0_linear_1_864" x1="35.3501" y1="8.68286" x2="35.3501" y2="95.1693" gradientUnits="userSpaceOnUse">
<stop stop-color="#0388FF" stop-opacity="0"/>
<stop offset="1" stop-color="#0388FF"/>
</linearGradient>
<linearGradient id="paint1_linear_1_864" x1="66.1875" y1="49.7775" x2="121.788" y2="21.6074" gradientUnits="userSpaceOnUse">
<stop stop-color="white" stop-opacity="0.3"/>
<stop offset="1" stop-color="#0388FF"/>
</linearGradient>
<linearGradient id="paint2_linear_1_864" x1="66.1875" y1="49.7775" x2="121.788" y2="21.6074" gradientUnits="userSpaceOnUse">
<stop stop-color="white" stop-opacity="0.3"/>
<stop offset="1" stop-color="#0388FF"/>
</linearGradient>
</defs>
</svg>
