<svg width="24" height="25" viewBox="0 0 24 25" fill="none" xmlns="http://www.w3.org/2000/svg">
<g clip-path="url(#clip0_93_506)">
<mask id="mask0_93_506" style="mask-type:luminance" maskUnits="userSpaceOnUse" x="0" y="0" width="24" height="25">
<path d="M24 0.570557H0V24.5706H24V0.570557Z" fill="white"/>
</mask>
<g mask="url(#mask0_93_506)">
<path d="M19.7896 15.5009C17.7296 17.5509 14.7796 18.1809 12.1896 17.3709L7.47966 22.0709C7.13966 22.4209 6.46966 22.6309 5.98966 22.5609L3.80966 22.2609C3.08966 22.1609 2.41966 21.4809 2.30966 20.7609L2.00966 18.5809C1.93966 18.1009 2.16966 17.4309 2.49966 17.0909L7.19966 12.3909C6.39966 9.79087 7.01966 6.84087 9.07966 4.79087C12.0296 1.84087 16.8196 1.84087 19.7796 4.79087C22.7396 7.74087 22.7396 12.5509 19.7896 15.5009Z" stroke="#000822" stroke-width="1.5" stroke-miterlimit="10" stroke-linecap="round" stroke-linejoin="round"/>
<path d="M6.88965 18.0608L9.18965 20.3608" stroke="#000822" stroke-width="1.5" stroke-miterlimit="10" stroke-linecap="round" stroke-linejoin="round"/>
<path d="M14.5 11.5706C15.3284 11.5706 16 10.899 16 10.0706C16 9.24213 15.3284 8.57056 14.5 8.57056C13.6716 8.57056 13 9.24213 13 10.0706C13 10.899 13.6716 11.5706 14.5 11.5706Z" stroke="#000822" stroke-width="1.5" stroke-linecap="round" stroke-linejoin="round"/>
</g>
</g>
<defs>
<clipPath id="clip0_93_506">
<rect width="24" height="24" fill="white" transform="translate(0 0.570557)"/>
</clipPath>
</defs>
</svg>
