<svg width="136" height="151" viewBox="0 0 136 151" fill="none" xmlns="http://www.w3.org/2000/svg">
<rect width="68" height="151" fill="url(#paint0_linear_1_8484)" fill-opacity="0.48"/>
<rect x="68" y="64" width="68" height="87" fill="url(#paint1_linear_1_8484)" fill-opacity="0.48"/>
<path d="M68 30L78.6016 46.8943L96.654 38.4136L96.4389 58.3576L116.21 60.983L105.247 77.6447L120.461 90.5427L102.229 98.6321L108.055 117.708L88.3443 114.656L82.9318 133.853L68 120.63L53.0682 133.853L47.6557 114.656L27.9453 117.708L33.7705 98.6321L15.5395 90.5427L30.753 77.6447L19.7895 60.983L39.5611 58.3576L39.346 38.4136L57.3984 46.8943L68 30Z" fill="#049CFF"/>
<path d="M55.7656 82.1774L63.2367 92.432C64.6421 94.3611 67.5329 94.3205 68.8837 92.3528L84.2282 70" stroke="#000822" stroke-width="5.68047" stroke-linecap="round"/>
<path d="M79 8.08504H113.158L127.266 19.6607V61.1608H79L79 8.08504Z" fill="white"/>
<path d="M79 8.08504H113.158L127.266 19.6607V61.1608H79L79 8.08504Z" fill="url(#paint2_linear_1_8484)"/>
<path d="M79 8.08504H113.158L127.266 19.6607V61.1608H79L79 8.08504Z" fill="url(#paint3_linear_1_8484)"/>
<path d="M113.139 19.6611L113.139 7.99998L127.284 19.6611H113.139Z" fill="#000822"/>
<path d="M86 26H102" stroke="#000822" stroke-width="3.49907" stroke-linecap="round" stroke-linejoin="round"/>
<path d="M86 33H113" stroke="#000822" stroke-width="3.49907" stroke-linecap="round" stroke-linejoin="round"/>
<defs>
<linearGradient id="paint0_linear_1_8484" x1="34" y1="0" x2="34" y2="151" gradientUnits="userSpaceOnUse">
<stop stop-color="#0388FF" stop-opacity="0"/>
<stop offset="1" stop-color="#0388FF"/>
</linearGradient>
<linearGradient id="paint1_linear_1_8484" x1="102" y1="64" x2="102" y2="151" gradientUnits="userSpaceOnUse">
<stop stop-color="#0388FF" stop-opacity="0"/>
<stop offset="1" stop-color="#0388FF"/>
</linearGradient>
<linearGradient id="paint2_linear_1_8484" x1="62.3954" y1="54.4668" x2="110.332" y2="30.2326" gradientUnits="userSpaceOnUse">
<stop stop-color="white" stop-opacity="0.3"/>
<stop offset="1" stop-color="#0388FF"/>
</linearGradient>
<linearGradient id="paint3_linear_1_8484" x1="62.3954" y1="54.4668" x2="110.332" y2="30.2326" gradientUnits="userSpaceOnUse">
<stop stop-color="white" stop-opacity="0.3"/>
<stop offset="1" stop-color="#0388FF"/>
</linearGradient>
</defs>
</svg>
