<svg width="575" height="379" viewBox="0 0 575 379" fill="none" xmlns="http://www.w3.org/2000/svg">
<path d="M466.399 359.771L234.478 255.19V115.749L211.383 138.953L138.767 211.91L98.7013 252.164L234.483 313.464L330.518 356.745L528.497 446.106C578.772 468.878 590.909 535.146 551.916 574.322L375.523 751.55C323.53 803.788 234.478 766.77 234.478 692.944V581.348L-9.37118 471.262L-9.37118 365.603L86.6639 408.883L304.086 506.881L331.157 519.074V624.95L330.513 624.629V660.352L466.399 523.827L406.135 496.629L406.245 496.413L149.186 380.175L148.971 380.607L36.6089 329.879C34.6761 329.016 32.8479 328.153 31.1298 327.179C7.71028 314.444 -6.35907 291.777 -9.36568 267.605C-12.2677 244.507 -5.28529 220.12 13.0847 201.664L189.577 24.4465C241.57 -27.7914 330.513 9.2265 330.513 83.1573V192.812L466.399 254.112L575 303.002V408.878L466.399 359.771Z" fill="url(#paint0_linear_1_8482)"/>
<defs>
<linearGradient id="paint0_linear_1_8482" x1="282.5" y1="776" x2="282.5" y2="0" gradientUnits="userSpaceOnUse">
<stop stop-color="#0168FF"/>
<stop offset="1" stop-color="#05AFFF" stop-opacity="0"/>
</linearGradient>
</defs>
</svg>
