<svg width="30" height="30" viewBox="0 0 30 30" fill="none" xmlns="http://www.w3.org/2000/svg">
<rect width="30" height="30" rx="15" fill="#0388FF" fill-opacity="0.16"/>
<g clip-path="url(#clip0_93_1003)">
<mask id="mask0_93_1003" style="mask-type:luminance" maskUnits="userSpaceOnUse" x="6" y="6" width="18" height="18">
<path d="M24 6H6V24H24V6Z" fill="white"/>
</mask>
<g mask="url(#mask0_93_1003)">
<path d="M22.5 13.5V17.25C22.5 21 21 22.5 17.25 22.5H12.75C9 22.5 7.5 21 7.5 17.25V12.75C7.5 9 9 7.5 12.75 7.5H16.5" stroke="#0388FF" stroke-width="1.125" stroke-linecap="round" stroke-linejoin="round"/>
<path d="M22.5 13.5H19.5C17.25 13.5 16.5 12.75 16.5 10.5V7.5L22.5 13.5Z" stroke="#0388FF" stroke-width="1.125" stroke-linecap="round" stroke-linejoin="round"/>
<path d="M11.25 15.75H15.75" stroke="#0388FF" stroke-width="1.125" stroke-linecap="round" stroke-linejoin="round"/>
<path d="M11.25 18.75H14.25" stroke="#0388FF" stroke-width="1.125" stroke-linecap="round" stroke-linejoin="round"/>
</g>
</g>
<defs>
<clipPath id="clip0_93_1003">
<rect width="18" height="18" fill="white" transform="translate(6 6)"/>
</clipPath>
</defs>
</svg>
