<svg width="59" height="59" viewBox="0 0 59 59" fill="none" xmlns="http://www.w3.org/2000/svg">
<circle cx="29.5" cy="29.5" r="29.1079" stroke="white" stroke-opacity="0.24" stroke-width="0.784173"/>
<g clip-path="url(#clip0_1_5120)">
<mask id="mask0_1_5120" style="mask-type:luminance" maskUnits="userSpaceOnUse" x="16" y="15" width="28" height="29">
<path d="M44 15.5H16V43.5H44V15.5Z" fill="white"/>
</mask>
<g mask="url(#mask0_1_5120)">
<path d="M41.6323 36.885C41.6323 37.305 41.539 37.7367 41.3407 38.1567C41.1423 38.5767 40.8857 38.9734 40.5473 39.3467C39.9757 39.9767 39.3457 40.4317 38.634 40.7234C37.934 41.015 37.1757 41.1667 36.359 41.1667C35.169 41.1667 33.8973 40.8867 32.5557 40.315C31.214 39.7434 29.8723 38.9734 28.5423 38.005C27.2007 37.025 25.929 35.94 24.7157 34.7384C23.514 33.525 22.429 32.2534 21.4607 30.9234C20.504 29.5934 19.734 28.2634 19.174 26.945C18.614 25.615 18.334 24.3434 18.334 23.13C18.334 22.3367 18.474 21.5784 18.754 20.8784C19.034 20.1667 19.4773 19.5134 20.0957 18.93C20.8423 18.195 21.659 17.8334 22.5223 17.8334C22.849 17.8334 23.1757 17.9034 23.4673 18.0434C23.7707 18.1834 24.039 18.3934 24.249 18.6967L26.9557 22.5117C27.1657 22.8034 27.3173 23.0717 27.4223 23.3284C27.5273 23.5734 27.5857 23.8184 27.5857 24.04C27.5857 24.32 27.504 24.6 27.3407 24.8684C27.189 25.1367 26.9673 25.4167 26.6873 25.6967L25.8007 26.6184C25.6723 26.7467 25.614 26.8984 25.614 27.085C25.614 27.1784 25.6257 27.26 25.649 27.3534C25.684 27.4467 25.719 27.5167 25.7423 27.5867C25.9523 27.9717 26.314 28.4734 26.8273 29.08C27.3523 29.6867 27.9123 30.305 28.519 30.9234C29.149 31.5417 29.7557 32.1134 30.374 32.6384C30.9807 33.1517 31.4823 33.5017 31.879 33.7117C31.9373 33.735 32.0073 33.77 32.089 33.805C32.1823 33.84 32.2757 33.8517 32.3807 33.8517C32.579 33.8517 32.7307 33.7817 32.859 33.6534L33.7457 32.7784C34.0373 32.4867 34.3173 32.265 34.5857 32.125C34.854 31.9617 35.1223 31.88 35.414 31.88C35.6357 31.88 35.869 31.9267 36.1257 32.0317C36.3823 32.1367 36.6507 32.2884 36.9423 32.4867L40.804 35.2284C41.1073 35.4384 41.3173 35.6834 41.4457 35.975C41.5623 36.2667 41.6323 36.5584 41.6323 36.885Z" stroke="#0388FF" stroke-width="1.4" stroke-miterlimit="10"/>
</g>
</g>
<defs>
<clipPath id="clip0_1_5120">
<rect width="28" height="28" fill="white" transform="translate(16 15.5)"/>
</clipPath>
</defs>
</svg>
