<svg width="24" height="25" viewBox="0 0 24 25" fill="none" xmlns="http://www.w3.org/2000/svg">
<g clip-path="url(#clip0_93_1048)">
<mask id="mask0_93_1048" style="mask-type:luminance" maskUnits="userSpaceOnUse" x="0" y="0" width="24" height="25">
<path d="M24 0.570312H0V24.5703H24V0.570312Z" fill="white"/>
</mask>
<g mask="url(#mask0_93_1048)">
<path d="M12.3701 9.45117H17.6201" stroke="#000822" stroke-opacity="0.44" stroke-width="1.5" stroke-linecap="round" stroke-linejoin="round"/>
<path d="M6.37988 9.45117L7.12988 10.2012L9.37988 7.95117" stroke="#000822" stroke-opacity="0.44" stroke-width="1.5" stroke-linecap="round" stroke-linejoin="round"/>
<path d="M12.3701 16.4512H17.6201" stroke="#000822" stroke-opacity="0.44" stroke-width="1.5" stroke-linecap="round" stroke-linejoin="round"/>
<path d="M6.37988 16.4512L7.12988 17.2012L9.37988 14.9512" stroke="#000822" stroke-opacity="0.44" stroke-width="1.5" stroke-linecap="round" stroke-linejoin="round"/>
<path d="M9 22.5703H15C20 22.5703 22 20.5703 22 15.5703V9.57031C22 4.57031 20 2.57031 15 2.57031H9C4 2.57031 2 4.57031 2 9.57031V15.5703C2 20.5703 4 22.5703 9 22.5703Z" stroke="#000822" stroke-opacity="0.44" stroke-width="1.5" stroke-linecap="round" stroke-linejoin="round"/>
</g>
</g>
<defs>
<clipPath id="clip0_93_1048">
<rect width="24" height="24" fill="white" transform="translate(0 0.570312)"/>
</clipPath>
</defs>
</svg>
