<svg width="76" height="79" viewBox="0 0 76 79" fill="none" xmlns="http://www.w3.org/2000/svg">
<rect y="16.1406" width="38" height="62" fill="url(#paint0_linear_93_1619)" fill-opacity="0.74"/>
<rect x="38" y="0.140625" width="38" height="78" fill="url(#paint1_linear_93_1619)" fill-opacity="0.74"/>
<path d="M23.0069 52.3208L14.7604 52.3208L11.5449 57.501C11.1887 58.0747 11 58.7366 11 59.412V69.6874C11 70.688 11.8112 71.4992 12.8118 71.4992L63.9636 71.4991C64.9642 71.4991 65.7754 70.688 65.7754 69.6874V59.4045C65.7754 58.7339 65.5893 58.0764 65.2377 57.5052L62.0468 52.3208L54.9879 52.3208H23.0069Z" fill="#000822"/>
<rect x="13.7314" y="64.6587" width="12.2789" height="13.68" rx="2.71765" fill="#000822"/>
<rect x="50.8301" y="64.6587" width="12.2789" height="13.68" rx="2.71765" fill="#000822"/>
<path d="M19.9822 40.5567C20.6377 39.0874 22.0961 38.1411 23.705 38.1411H52.8575C54.4416 38.1411 55.8822 39.0588 56.5518 40.4943L62.068 52.3198H14.7344L19.9822 40.5567Z" fill="#000822"/>
<path d="M29.4873 66.0791H47.2887" stroke="#0388FF" stroke-width="1.35882" stroke-linecap="round"/>
<rect x="16.3672" y="59.2129" width="7.00776" height="3.48292" rx="0.508548" fill="#0388FF"/>
<rect x="53.4639" y="59.2129" width="7.00776" height="3.48292" rx="0.508548" fill="#0388FF"/>
<path d="M51.2737 24.1406L64.5464 47.1933H38.001L51.2737 24.1406Z" fill="white"/>
<path d="M51.2737 24.1406L64.5464 47.1933H38.001L51.2737 24.1406Z" fill="url(#paint2_linear_93_1619)"/>
<path d="M51.2737 24.1406L64.5464 47.1933H38.001L51.2737 24.1406Z" fill="url(#paint3_linear_93_1619)"/>
<path d="M51.2227 33.5703V39.4858" stroke="black" stroke-width="1.64721" stroke-linecap="round"/>
<circle cx="51.2223" cy="42.474" r="0.997685" fill="black"/>
<defs>
<linearGradient id="paint0_linear_93_1619" x1="19" y1="16.1406" x2="19" y2="78.1406" gradientUnits="userSpaceOnUse">
<stop stop-color="#0388FF" stop-opacity="0"/>
<stop offset="1" stop-color="#0388FF"/>
</linearGradient>
<linearGradient id="paint1_linear_93_1619" x1="57" y1="0.140625" x2="57" y2="78.1406" gradientUnits="userSpaceOnUse">
<stop stop-color="#0388FF" stop-opacity="0"/>
<stop offset="1" stop-color="#0388FF"/>
</linearGradient>
<linearGradient id="paint2_linear_93_1619" x1="28.8688" y1="43.9961" x2="53.5927" y2="29.6033" gradientUnits="userSpaceOnUse">
<stop stop-color="white" stop-opacity="0.3"/>
<stop offset="1" stop-color="#0388FF"/>
</linearGradient>
<linearGradient id="paint3_linear_93_1619" x1="28.8688" y1="43.9961" x2="53.5927" y2="29.6033" gradientUnits="userSpaceOnUse">
<stop stop-color="white" stop-opacity="0.3"/>
<stop offset="1" stop-color="#0388FF"/>
</linearGradient>
</defs>
</svg>
