<svg width="163" height="138" viewBox="0 0 163 138" fill="none" xmlns="http://www.w3.org/2000/svg">
<path d="M51.841 100.424L111.159 100.424L163 137.424H0L51.841 100.424Z" fill="url(#paint0_linear_359_277)" fill-opacity="0.48"/>
<path d="M51.5867 72.8809L35.371 72.8809L29.048 83.067C28.3477 84.1953 27.9766 85.4969 27.9766 86.8248V107.03C27.9766 108.998 29.5716 110.593 31.5392 110.593L132.123 110.593C134.091 110.593 135.686 108.998 135.686 107.03V86.8101C135.686 85.4914 135.32 84.1985 134.629 83.0754L128.354 72.8809L114.473 72.8809H51.5867Z" fill="#000822"/>
<rect x="33.3477" y="97.1426" width="24.1451" height="26.9" rx="5.34393" fill="#000822"/>
<rect x="106.297" y="97.1426" width="24.1451" height="26.9" rx="5.34393" fill="#000822"/>
<path d="M45.6396 49.75C46.9285 46.8608 49.7963 45 52.96 45H110.285C113.4 45 116.233 46.8044 117.549 49.6273L128.396 72.8808H35.3203L45.6396 49.75Z" fill="#000822"/>
<path d="M64.3281 99.9355H99.3324" stroke="#0388FF" stroke-width="2.67196" stroke-linecap="round"/>
<rect x="38.5312" y="86.4355" width="13.7799" height="6.84876" rx="1" fill="#0388FF"/>
<rect x="111.477" y="86.4355" width="13.7799" height="6.84876" rx="1" fill="#0388FF"/>
<path d="M107.195 3.17891L90.319 11.0465C84.6342 13.6967 81 19.4007 81 25.6729V48.3671C81 53.4057 83.3534 58.1552 87.3624 61.2073L103.499 73.4921C109.131 77.7797 116.899 77.8969 122.658 73.7811L140.274 61.1908C144.512 58.1613 147.028 53.2717 147.028 48.0617V25.6729C147.028 19.4007 143.393 13.6967 137.709 11.0465L120.833 3.17891C116.51 1.16376 111.518 1.16376 107.195 3.17891Z" fill="url(#paint1_linear_359_277)"/>
<path d="M107.195 3.17891L90.319 11.0465C84.6342 13.6967 81 19.4007 81 25.6729V48.3671C81 53.4057 83.3534 58.1552 87.3624 61.2073L103.499 73.4921C109.131 77.7797 116.899 77.8969 122.658 73.7811L140.274 61.1908C144.512 58.1613 147.028 53.2717 147.028 48.0617V25.6729C147.028 19.4007 143.393 13.6967 137.709 11.0465L120.833 3.17891C116.51 1.16376 111.518 1.16376 107.195 3.17891Z" fill="url(#paint2_linear_359_277)"/>
<path d="M102.91 38.9011L108.29 46.2617C109.593 48.0448 112.266 48.0073 113.519 46.1883L125.036 29.4648" stroke="#000822" stroke-width="5.26583" stroke-linecap="round"/>
<path d="M81 121L81 114" stroke="#000822" stroke-width="3" stroke-linecap="round"/>
<defs>
<linearGradient id="paint0_linear_359_277" x1="86.7258" y1="100.424" x2="86.7258" y2="137.424" gradientUnits="userSpaceOnUse">
<stop stop-color="#0388FF" stop-opacity="0"/>
<stop offset="1" stop-color="#0388FF"/>
</linearGradient>
<linearGradient id="paint1_linear_359_277" x1="58.2851" y1="69.5113" x2="128.595" y2="40.4307" gradientUnits="userSpaceOnUse">
<stop stop-color="white" stop-opacity="0.3"/>
<stop offset="1" stop-color="#0388FF"/>
</linearGradient>
<linearGradient id="paint2_linear_359_277" x1="58.2851" y1="69.5113" x2="128.595" y2="40.4307" gradientUnits="userSpaceOnUse">
<stop stop-color="white" stop-opacity="0.3"/>
<stop offset="1" stop-color="#0388FF"/>
</linearGradient>
</defs>
</svg>
