<svg width="59" height="59" viewBox="0 0 59 59" fill="none" xmlns="http://www.w3.org/2000/svg">
<rect x="0.981262" width="57.037" height="58.481" rx="9.66757" fill="#0388FF"/>
<path d="M38.4644 31.648L27.5733 36.5536V43.0944L26.4887 42.006L23.0787 38.5838L21.1972 36.6955L27.5735 33.8201L32.0834 31.7899L41.3805 27.5982C43.7414 26.5301 44.3114 23.4216 42.4803 21.584L34.1968 13.2707C31.7552 10.8203 27.5733 12.5567 27.5733 16.0197V21.2544L16.1221 26.4182V31.3744L20.6319 29.3442L30.8421 24.7475L32.1134 24.1755V19.2091L32.0831 19.2242V17.5485L38.4644 23.9526L35.6343 25.2283L35.6395 25.2385L23.5679 30.6909L23.5579 30.6706L18.2813 33.0501C18.1905 33.0906 18.1047 33.1311 18.024 33.1768C16.9242 33.7742 16.2635 34.8374 16.1223 35.9712C15.986 37.0547 16.3139 38.1986 17.1766 39.0644L25.4647 47.3772C27.9063 49.8275 32.0831 48.0911 32.0831 44.6232V39.4796L38.4644 36.6042L43.5643 34.3108V29.3445L38.4644 31.648Z" fill="#FEFEFE"/>
</svg>
