<svg width="24" height="25" viewBox="0 0 24 25" fill="none" xmlns="http://www.w3.org/2000/svg">
<g clip-path="url(#clip0_93_1083)">
<mask id="mask0_93_1083" style="mask-type:luminance" maskUnits="userSpaceOnUse" x="0" y="0" width="24" height="25">
<path d="M24 0.570312H0V24.5703H24V0.570312Z" fill="white"/>
</mask>
<g mask="url(#mask0_93_1083)">
<path d="M15 23.3203H9C4.59 23.3203 3.25 21.9803 3.25 17.5703V7.57031C3.25 3.16031 4.59 1.82031 9 1.82031H15C19.41 1.82031 20.75 3.16031 20.75 7.57031V17.5703C20.75 21.9803 19.41 23.3203 15 23.3203ZM9 3.32031C5.42 3.32031 4.75 4.00031 4.75 7.57031V17.5703C4.75 21.1403 5.42 21.8203 9 21.8203H15C18.58 21.8203 19.25 21.1403 19.25 17.5703V7.57031C19.25 4.00031 18.58 3.32031 15 3.32031H9Z" fill="#8F929E"/>
<path d="M14 6.82031H10C9.59 6.82031 9.25 6.48031 9.25 6.07031C9.25 5.66031 9.59 5.32031 10 5.32031H14C14.41 5.32031 14.75 5.66031 14.75 6.07031C14.75 6.48031 14.41 6.82031 14 6.82031Z" fill="#8F929E"/>
<path d="M12.0002 20.4301C10.7302 20.4301 9.7002 19.4001 9.7002 18.1301C9.7002 16.8601 10.7302 15.8301 12.0002 15.8301C13.2702 15.8301 14.3002 16.8601 14.3002 18.1301C14.3002 19.4001 13.2702 20.4301 12.0002 20.4301ZM12.0002 17.3201C11.5602 17.3201 11.2002 17.6801 11.2002 18.1201C11.2002 18.5601 11.5602 18.9201 12.0002 18.9201C12.4402 18.9201 12.8002 18.5601 12.8002 18.1201C12.8002 17.6801 12.4402 17.3201 12.0002 17.3201Z" fill="#8F929E"/>
</g>
</g>
<defs>
<clipPath id="clip0_93_1083">
<rect width="24" height="24" fill="white" transform="translate(0 0.570312)"/>
</clipPath>
</defs>
</svg>
