<svg width="78" height="49" viewBox="0 0 78 49" fill="none" xmlns="http://www.w3.org/2000/svg">
<path d="M78 22.8965C78 27.4604 76.7986 31.944 74.5167 35.8965C72.2347 39.849 68.9525 43.1312 65 45.4131C61.0475 47.6951 56.564 48.8965 52 48.8965C47.436 48.8965 42.9525 47.6951 39 45.4131L52 22.8965H78Z" fill="white"/>
<path d="M78 22.8965C78 27.4604 76.7986 31.944 74.5167 35.8965C72.2347 39.849 68.9525 43.1312 65 45.4131C61.0475 47.6951 56.564 48.8965 52 48.8965C47.436 48.8965 42.9525 47.6951 39 45.4131L52 22.8965H78Z" fill="url(#paint0_linear_359_77)"/>
<path d="M61.1718 13.3659C58.8256 17.2806 55.4903 20.5088 51.5011 22.7259C47.5118 24.9431 43.0093 26.0711 38.4459 25.9965C33.8826 25.922 29.4193 24.6476 25.5045 22.3014C21.5898 19.9552 18.3617 16.6199 16.1445 12.6306L38.8704 0L61.1718 13.3659Z" fill="white"/>
<path d="M61.1718 13.3659C58.8256 17.2806 55.4903 20.5088 51.5011 22.7259C47.5118 24.9431 43.0093 26.0711 38.4459 25.9965C33.8826 25.922 29.4193 24.6476 25.5045 22.3014C21.5898 19.9552 18.3617 16.6199 16.1445 12.6306L38.8704 0L61.1718 13.3659Z" fill="url(#paint1_linear_359_77)"/>
<path d="M0 22.8965C0 27.4604 1.20136 31.944 3.48334 35.8965C5.76532 39.849 9.0475 43.1312 13 45.4131C16.9525 47.6951 21.436 48.8965 26 48.8965C30.564 48.8965 35.0475 47.6951 39 45.4131L26 22.8965H0Z" fill="white"/>
<path d="M0 22.8965C0 27.4604 1.20136 31.944 3.48334 35.8965C5.76532 39.849 9.0475 43.1312 13 45.4131C16.9525 47.6951 21.436 48.8965 26 48.8965C30.564 48.8965 35.0475 47.6951 39 45.4131L26 22.8965H0Z" fill="url(#paint2_linear_359_77)"/>
<defs>
<linearGradient id="paint0_linear_359_77" x1="5.8835" y1="38.9216" x2="66.0375" y2="39.1236" gradientUnits="userSpaceOnUse">
<stop stop-color="white" stop-opacity="0"/>
<stop offset="1" stop-color="#0388FF"/>
</linearGradient>
<linearGradient id="paint1_linear_359_77" x1="-22.09" y1="16.0251" x2="47.3603" y2="16.2943" gradientUnits="userSpaceOnUse">
<stop stop-color="white" stop-opacity="0"/>
<stop offset="1" stop-color="#0388FF"/>
</linearGradient>
<linearGradient id="paint2_linear_359_77" x1="-33.1165" y1="38.9216" x2="27.0375" y2="39.1236" gradientUnits="userSpaceOnUse">
<stop stop-color="white" stop-opacity="0"/>
<stop offset="1" stop-color="#0388FF"/>
</linearGradient>
</defs>
</svg>
