<svg width="677" height="586" viewBox="0 0 677 586" fill="none" xmlns="http://www.w3.org/2000/svg">
<rect x="333.5" width="343" height="585" fill="url(#paint0_linear_359_359)" fill-opacity="0.48"/>
<path d="M523.988 94.3262V126.285" stroke="#0388FF" stroke-width="8.77134" stroke-linecap="round"/>
<path d="M489.672 88H558.302" stroke="#0388FF" stroke-width="8.77134" stroke-linecap="round"/>
<ellipse cx="520.182" cy="207.735" rx="95.3191" ry="93.4127" fill="#000822"/>
<path d="M523.987 160.075V212.691L489.672 247.769" stroke="#0388FF" stroke-width="8.77134" stroke-linecap="round"/>
<ellipse cx="481.586" cy="246.4" rx="88.0861" ry="86.3244" fill="url(#paint1_linear_359_359)"/>
<rect x="0.5" y="184" width="333" height="401" fill="url(#paint2_linear_359_359)" fill-opacity="0.48"/>
<path d="M233.773 404.932L176.58 404.932L154.279 440.858C151.809 444.837 150.5 449.428 150.5 454.112V525.376C150.5 532.315 156.126 537.941 163.065 537.941L517.823 537.941C524.763 537.941 530.388 532.315 530.388 525.376V454.06C530.388 449.409 529.098 444.849 526.66 440.888L504.529 404.932L455.573 404.932H233.773Z" fill="#000822"/>
<rect x="169.445" y="490.502" width="85.1592" height="94.8757" rx="18.8479" fill="#000822"/>
<rect x="426.73" y="490.502" width="85.1592" height="94.8757" rx="18.8479" fill="#000822"/>
<path d="M212.794 323.35C217.34 313.16 227.455 306.597 238.613 306.597H440.797C451.783 306.597 461.774 312.961 466.419 322.917L504.676 404.932H176.398L212.794 323.35Z" fill="#000822"/>
<path d="M278.715 500.352H402.174" stroke="#0388FF" stroke-width="9.42396" stroke-linecap="round"/>
<rect x="187.723" y="452.739" width="48.6015" height="24.1554" rx="3.52698" fill="#0388FF"/>
<rect x="445.008" y="452.739" width="48.6015" height="24.1554" rx="3.52698" fill="#0388FF"/>
<path d="M137.5 214.271H237.096L278.233 248.023V355.004H137.5V214.271Z" fill="#000822"/>
<path d="M137.5 214.271H237.096L278.233 248.023V355.004H137.5V214.271Z" fill="url(#paint3_linear_359_359)"/>
<path d="M137.5 214.271H237.096L278.233 248.023V355.004H137.5V214.271Z" fill="url(#paint4_linear_359_359)"/>
<path d="M237.045 248.001L237.043 214L278.289 248.001H237.045Z" fill="#000822"/>
<path d="M155.613 255.635H203.589" stroke="#000822" stroke-width="7.89839" stroke-linecap="round"/>
<path d="M155.613 276.309H232.769" stroke="#000822" stroke-width="7.89839" stroke-linecap="round"/>
<defs>
<linearGradient id="paint0_linear_359_359" x1="505" y1="0" x2="505" y2="585" gradientUnits="userSpaceOnUse">
<stop stop-color="#0388FF" stop-opacity="0"/>
<stop offset="1" stop-color="#0388FF"/>
</linearGradient>
<linearGradient id="paint1_linear_359_359" x1="481.586" y1="160.075" x2="481.586" y2="332.724" gradientUnits="userSpaceOnUse">
<stop stop-color="#0388FF" stop-opacity="0"/>
<stop offset="1" stop-color="#0388FF"/>
</linearGradient>
<linearGradient id="paint2_linear_359_359" x1="167" y1="184" x2="167" y2="585" gradientUnits="userSpaceOnUse">
<stop stop-color="#0388FF" stop-opacity="0"/>
<stop offset="1" stop-color="#0388FF"/>
</linearGradient>
<linearGradient id="paint3_linear_359_359" x1="89.0849" y1="335.486" x2="228.858" y2="264.825" gradientUnits="userSpaceOnUse">
<stop stop-color="white" stop-opacity="0.3"/>
<stop offset="1" stop-color="#0388FF"/>
</linearGradient>
<linearGradient id="paint4_linear_359_359" x1="89.0849" y1="335.486" x2="228.858" y2="264.825" gradientUnits="userSpaceOnUse">
<stop stop-color="white" stop-opacity="0.3"/>
<stop offset="1" stop-color="#0388FF"/>
</linearGradient>
</defs>
</svg>
