<svg width="90" height="128" viewBox="0 0 90 128" fill="none" xmlns="http://www.w3.org/2000/svg">
<rect y="41" width="30" height="62" fill="url(#paint0_linear_1_3557)"/>
<rect x="30" y="17" width="30" height="86" fill="url(#paint1_linear_1_3557)"/>
<rect x="60" width="30" height="103" fill="url(#paint2_linear_1_3557)"/>
<path d="M41.211 48.7729L17.1972 59.9681C14.0268 61.4461 12 64.6272 12 68.1252V98.9039C12 101.714 13.3125 104.363 15.5483 106.065L38.6888 123.682C41.8297 126.073 46.1621 126.138 49.3737 123.843L74.2609 106.056C76.6248 104.366 78.0276 101.639 78.0276 98.7336V68.1252C78.0276 64.6272 76.0008 61.4461 72.8305 59.9681L48.8167 48.7729C46.406 47.649 43.6217 47.649 41.211 48.7729Z" fill="url(#paint3_linear_1_3557)"/>
<path d="M41.211 48.7729L17.1972 59.9681C14.0268 61.4461 12 64.6272 12 68.1252V98.9039C12 101.714 13.3125 104.363 15.5483 106.065L38.6888 123.682C41.8297 126.073 46.1621 126.138 49.3737 123.843L74.2609 106.056C76.6248 104.366 78.0276 101.639 78.0276 98.7336V68.1252C78.0276 64.6272 76.0008 61.4461 72.8305 59.9681L48.8167 48.7729C46.406 47.649 43.6217 47.649 41.211 48.7729Z" fill="#000822"/>
<path d="M34 84.1497L39.358 91.4808C40.5523 93.1149 43.0026 93.0805 44.1506 91.4135L55.4536 75" stroke="#0388FF" stroke-width="4.82612" stroke-linecap="round"/>
<defs>
<linearGradient id="paint0_linear_1_3557" x1="15" y1="41" x2="15" y2="103" gradientUnits="userSpaceOnUse">
<stop stop-color="#0388FF" stop-opacity="0"/>
<stop offset="0.6" stop-color="#0388FF"/>
</linearGradient>
<linearGradient id="paint1_linear_1_3557" x1="45" y1="17" x2="45" y2="103" gradientUnits="userSpaceOnUse">
<stop stop-color="#0388FF" stop-opacity="0"/>
<stop offset="0.6" stop-color="#0388FF"/>
</linearGradient>
<linearGradient id="paint2_linear_1_3557" x1="75" y1="0" x2="75" y2="103" gradientUnits="userSpaceOnUse">
<stop stop-color="#0388FF" stop-opacity="0"/>
<stop offset="0.6" stop-color="#0388FF"/>
</linearGradient>
<linearGradient id="paint3_linear_1_3557" x1="-10.7149" y1="116.511" x2="59.5945" y2="87.4307" gradientUnits="userSpaceOnUse">
<stop stop-color="white" stop-opacity="0.3"/>
<stop offset="1" stop-color="#0388FF"/>
</linearGradient>
</defs>
</svg>
