<svg width="90" height="103" viewBox="0 0 90 103" fill="none" xmlns="http://www.w3.org/2000/svg">
<rect y="41" width="30" height="62" fill="url(#paint0_linear_458_1359)"/>
<rect x="30" y="17" width="30" height="86" fill="url(#paint1_linear_458_1359)"/>
<rect x="60" width="30" height="103" fill="url(#paint2_linear_458_1359)"/>
<path d="M51.8076 35.3097C51.8076 37.5715 53.3708 39.4994 55.4727 40.3347C55.6982 40.4243 55.9223 40.5167 56.1449 40.6119C58.3351 41.5484 60.9459 41.2318 62.5646 39.4842L63.3819 38.6017C65.2583 36.5758 68.4216 36.4545 70.4476 38.3308L73.1009 40.788C75.127 42.6644 75.2483 45.828 73.3718 47.854L71.9128 49.4294C70.4044 51.0579 70.194 53.4698 71.0706 55.509C71.1647 55.7279 71.2561 55.9481 71.3448 56.1698C72.1995 58.3059 74.1599 59.8965 76.4607 59.8965H77.4453C80.2067 59.8965 82.4453 62.1351 82.4453 64.8965V68.5127C82.4453 71.2741 80.2067 73.5127 77.4453 73.5127H76.4607C74.16 73.5127 72.1995 75.1033 71.3445 77.2393C71.2651 77.4377 71.1835 77.6351 71.0997 77.8312C70.2305 79.8673 70.4438 82.2714 71.948 83.8958L73.3725 85.4341C75.2487 87.4601 75.1272 90.6235 73.1012 92.4998L70.4478 94.9571C68.4217 96.8334 65.2582 96.7121 63.3819 94.686L62.6443 93.8895C61.0219 92.1376 58.4032 91.8239 56.2101 92.7683C55.95 92.8803 55.6878 92.9885 55.4236 93.0929C53.349 93.9129 51.8076 95.8149 51.8076 98.0457V98.0457C51.8076 100.723 49.6371 102.894 46.9597 102.894H43.0394C40.3619 102.894 38.1914 100.723 38.1914 98.0456V98.0456C38.1914 95.8148 36.65 93.9129 34.5755 93.0929C34.3114 92.9886 34.0493 92.8804 33.7893 92.7684C31.596 91.8241 28.9771 92.1379 27.3547 93.89L26.6181 94.6855C24.7418 96.7118 21.5781 96.8333 19.552 94.9569L16.8985 92.4995C14.8726 90.6234 14.7511 87.4602 16.627 85.4341L18.0514 83.8957C19.5554 82.2713 19.7686 79.8674 18.8998 77.8314C18.8161 77.6352 18.7345 77.4379 18.6551 77.2394C17.8005 75.1033 15.84 73.5127 13.5393 73.5127H12.5547C9.79326 73.5127 7.55469 71.2741 7.55469 68.5127V64.8965C7.55469 62.1351 9.79326 59.8965 12.5547 59.8965H13.5393C15.8401 59.8965 17.8005 58.3059 18.6548 56.1697C18.7435 55.948 18.8349 55.7278 18.9289 55.5089C19.8052 53.4696 19.5948 51.058 18.0867 49.4294L16.6277 47.854C14.7515 45.828 14.8729 42.6645 16.8989 40.7882L19.5522 38.331C21.5782 36.4547 24.7418 36.5761 26.6181 38.6022L27.4344 39.4837C29.053 41.2315 31.6641 41.5482 33.8545 40.6117C34.077 40.5166 34.301 40.4242 34.5264 40.3347C36.6282 39.4994 38.1914 37.5716 38.1914 35.3098V35.3098C38.1914 32.5952 40.3921 30.3945 43.1067 30.3945H46.8924C49.607 30.3945 51.8076 32.5951 51.8076 35.3097V35.3097Z" fill="#000822"/>
<circle cx="45" cy="67" r="15.5" stroke="#0388FF" stroke-width="5"/>
<defs>
<linearGradient id="paint0_linear_458_1359" x1="15" y1="41" x2="15" y2="103" gradientUnits="userSpaceOnUse">
<stop stop-color="#0388FF" stop-opacity="0"/>
<stop offset="0.6" stop-color="#0388FF"/>
</linearGradient>
<linearGradient id="paint1_linear_458_1359" x1="45" y1="17" x2="45" y2="103" gradientUnits="userSpaceOnUse">
<stop stop-color="#0388FF" stop-opacity="0"/>
<stop offset="0.6" stop-color="#0388FF"/>
</linearGradient>
<linearGradient id="paint2_linear_458_1359" x1="75" y1="0" x2="75" y2="103" gradientUnits="userSpaceOnUse">
<stop stop-color="#0388FF" stop-opacity="0"/>
<stop offset="0.6" stop-color="#0388FF"/>
</linearGradient>
</defs>
</svg>
