<svg width="99" height="50" viewBox="0 0 99 50" fill="none" xmlns="http://www.w3.org/2000/svg">
<path d="M98.5 25.1851C98.5 21.9513 97.8631 18.7491 96.6255 15.7615C95.388 12.7738 93.5741 10.0592 91.2875 7.77255C89.0009 5.48591 86.2862 3.67205 83.2986 2.43452C80.3109 1.197 77.1088 0.560058 73.875 0.560059C70.6412 0.560059 67.4391 1.197 64.4514 2.43453C61.4638 3.67205 58.7491 5.48591 56.4625 7.77256C54.1759 10.0592 52.362 12.7738 51.1245 15.7615C49.8869 18.7491 49.25 21.9513 49.25 25.1851L98.5 25.1851Z" fill="white"/>
<path d="M98.5 25.1851C98.5 21.9513 97.8631 18.7491 96.6255 15.7615C95.388 12.7738 93.5741 10.0592 91.2875 7.77255C89.0009 5.48591 86.2862 3.67205 83.2986 2.43452C80.3109 1.197 77.1088 0.560058 73.875 0.560059C70.6412 0.560059 67.4391 1.197 64.4514 2.43453C61.4638 3.67205 58.7491 5.48591 56.4625 7.77256C54.1759 10.0592 52.362 12.7738 51.1245 15.7615C49.8869 18.7491 49.25 21.9513 49.25 25.1851L98.5 25.1851Z" fill="url(#paint0_linear_1_4568)"/>
<path d="M98.5 49.8101C98.5 46.5763 97.8631 43.3741 96.6255 40.3865C95.388 37.3988 93.5741 34.6842 91.2875 32.3976C89.0009 30.1109 86.2862 28.297 83.2986 27.0595C80.3109 25.822 77.1088 25.1851 73.875 25.1851C70.6412 25.1851 67.4391 25.822 64.4514 27.0595C61.4638 28.297 58.7491 30.1109 56.4625 32.3976C54.1759 34.6842 52.362 37.3988 51.1245 40.3865C49.8869 43.3741 49.25 46.5763 49.25 49.8101L98.5 49.8101Z" fill="#D9D9D9"/>
<path d="M98.5 49.8101C98.5 46.5763 97.8631 43.3741 96.6255 40.3865C95.388 37.3988 93.5741 34.6842 91.2875 32.3976C89.0009 30.1109 86.2862 28.297 83.2986 27.0595C80.3109 25.822 77.1088 25.1851 73.875 25.1851C70.6412 25.1851 67.4391 25.822 64.4514 27.0595C61.4638 28.297 58.7491 30.1109 56.4625 32.3976C54.1759 34.6842 52.362 37.3988 51.1245 40.3865C49.8869 43.3741 49.25 46.5763 49.25 49.8101L98.5 49.8101Z" fill="white"/>
<path d="M98.5 49.8101C98.5 46.5763 97.8631 43.3741 96.6255 40.3865C95.388 37.3988 93.5741 34.6842 91.2875 32.3976C89.0009 30.1109 86.2862 28.297 83.2986 27.0595C80.3109 25.822 77.1088 25.1851 73.875 25.1851C70.6412 25.1851 67.4391 25.822 64.4514 27.0595C61.4638 28.297 58.7491 30.1109 56.4625 32.3976C54.1759 34.6842 52.362 37.3988 51.1245 40.3865C49.8869 43.3741 49.25 46.5763 49.25 49.8101L98.5 49.8101Z" fill="url(#paint1_linear_1_4568)"/>
<path d="M49.2485 49.8101C46.0147 49.8101 42.8126 49.1731 39.825 47.9356C36.8373 46.6981 34.1227 44.8842 31.836 42.5976C29.5494 40.3109 27.7355 37.5963 26.498 34.6086C25.2605 31.621 24.6235 28.4189 24.6235 25.1851C24.6235 21.9513 25.2605 18.7491 26.498 15.7615C27.7355 12.7738 29.5494 10.0592 31.836 7.77255C34.1227 5.48591 36.8373 3.67205 39.825 2.43452C42.8126 1.197 46.0147 0.560058 49.2485 0.560059V49.8101Z" fill="white"/>
<path d="M49.2485 49.8101C46.0147 49.8101 42.8126 49.1731 39.825 47.9356C36.8373 46.6981 34.1227 44.8842 31.836 42.5976C29.5494 40.3109 27.7355 37.5963 26.498 34.6086C25.2605 31.621 24.6235 28.4189 24.6235 25.1851C24.6235 21.9513 25.2605 18.7491 26.498 15.7615C27.7355 12.7738 29.5494 10.0592 31.836 7.77255C34.1227 5.48591 36.8373 3.67205 39.825 2.43452C42.8126 1.197 46.0147 0.560058 49.2485 0.560059V49.8101Z" fill="url(#paint2_linear_1_4568)"/>
<path d="M24.625 49.8101C21.3912 49.8101 18.1891 49.1731 15.2014 47.9356C12.2138 46.6981 9.49914 44.8842 7.2125 42.5976C4.92585 40.3109 3.11199 37.5963 1.87447 34.6086C0.636944 31.621 0 28.4189 0 25.1851C0 21.9513 0.636944 18.7491 1.87447 15.7615C3.11199 12.7738 4.92585 10.0592 7.2125 7.77255C9.49914 5.48591 12.2138 3.67205 15.2014 2.43452C18.1891 1.197 21.3912 0.560058 24.625 0.560059V49.8101Z" fill="white"/>
<path d="M24.625 49.8101C21.3912 49.8101 18.1891 49.1731 15.2014 47.9356C12.2138 46.6981 9.49914 44.8842 7.2125 42.5976C4.92585 40.3109 3.11199 37.5963 1.87447 34.6086C0.636944 31.621 0 28.4189 0 25.1851C0 21.9513 0.636944 18.7491 1.87447 15.7615C3.11199 12.7738 4.92585 10.0592 7.2125 7.77255C9.49914 5.48591 12.2138 3.67205 15.2014 2.43452C18.1891 1.197 21.3912 0.560058 24.625 0.560059V49.8101Z" fill="url(#paint3_linear_1_4568)"/>
<defs>
<linearGradient id="paint0_linear_1_4568" x1="7.42981" y1="15.7377" x2="83.3929" y2="16.0777" gradientUnits="userSpaceOnUse">
<stop stop-color="white" stop-opacity="0"/>
<stop offset="1" stop-color="#0388FF"/>
</linearGradient>
<linearGradient id="paint1_linear_1_4568" x1="7.42981" y1="34.6324" x2="83.3929" y2="34.2924" gradientUnits="userSpaceOnUse">
<stop stop-color="white" stop-opacity="0"/>
<stop offset="1" stop-color="#0388FF"/>
</linearGradient>
<linearGradient id="paint2_linear_1_4568" x1="-16.9041" y1="44.4811" x2="55.0883" y2="25.105" gradientUnits="userSpaceOnUse">
<stop stop-color="white" stop-opacity="0"/>
<stop offset="1" stop-color="#0388FF"/>
</linearGradient>
<linearGradient id="paint3_linear_1_4568" x1="66.1526" y1="44.4811" x2="-5.83974" y2="25.105" gradientUnits="userSpaceOnUse">
<stop stop-color="white" stop-opacity="0"/>
<stop offset="1" stop-color="#0388FF"/>
</linearGradient>
</defs>
</svg>
