<svg width="156" height="111" viewBox="0 0 156 111" fill="none" xmlns="http://www.w3.org/2000/svg">
<rect x="0.789062" y="33.8159" width="69.9108" height="72.0244" fill="url(#paint0_linear_1_490)" fill-opacity="0.48"/>
<path d="M41.9727 0.158203H100.028L124.007 19.7629V81.9022H41.9727V0.158203Z" fill="#000822"/>
<path d="M100.009 19.7495L100.008 0L124.05 19.7495H100.009Z" fill="#0388FF"/>
<path d="M67.074 28.3719C67.074 29.4241 66.81 30.4131 66.2821 31.339C65.7752 32.2649 65.015 33.0435 64.0013 33.6748C63.0087 34.3061 61.8261 34.6849 60.4534 34.8112V37.3679H58.3944V34.8112C56.4093 34.6218 54.8043 34.001 53.5795 32.9488C52.3546 31.8967 51.7422 30.5078 51.7422 28.7822H55.6068C55.6702 29.6029 55.9341 30.2868 56.3987 30.834C56.8633 31.36 57.5286 31.6967 58.3944 31.844V24.8997C56.9795 24.542 55.8286 24.1843 54.9416 23.8265C54.0546 23.4477 53.2944 22.8585 52.6608 22.0589C52.0484 21.2592 51.7422 20.165 51.7422 18.7761C51.7422 17.0295 52.3546 15.588 53.5795 14.4517C54.8043 13.2943 56.4093 12.6209 58.3944 12.4315V9.87476H60.4534V12.4315C62.3118 12.5999 63.8007 13.1891 64.9199 14.1992C66.0603 15.1882 66.7044 16.556 66.8522 18.3026H62.9876C62.9243 17.6503 62.6708 17.0716 62.2274 16.5666C61.7839 16.0405 61.1926 15.6827 60.4534 15.4933V22.3114C61.8684 22.6481 63.0193 23.0058 63.9063 23.3846C64.7932 23.7423 65.5429 24.321 66.1553 25.1207C66.7678 25.8993 67.074 26.983 67.074 28.3719ZM55.4168 18.5867C55.4168 19.4495 55.6702 20.1229 56.177 20.6069C56.705 21.0909 57.4441 21.4802 58.3944 21.7748V15.3986C57.4863 15.5039 56.7578 15.83 56.2087 16.3772C55.6807 16.9243 55.4168 17.6608 55.4168 18.5867ZM60.4534 31.844C61.3826 31.6967 62.1112 31.3285 62.6392 30.7393C63.1671 30.129 63.4311 29.403 63.4311 28.5613C63.4311 27.7195 63.1671 27.0672 62.6392 26.6042C62.1323 26.1202 61.4038 25.7309 60.4534 25.4363V31.844Z" fill="#0388FF"/>
<path d="M148.221 109.212C150.083 110.869 152.936 110.704 154.593 108.842C156.251 106.981 156.085 104.128 154.224 102.47L151.223 105.841L148.221 109.212ZM114.68 73.3035L111.678 76.6742L148.221 109.212L151.223 105.841L154.224 102.47L117.681 69.9328L114.68 73.3035Z" fill="#000822"/>
<path d="M129.741 47.9726C121.024 32.8924 101.69 27.7425 86.5558 36.47C71.422 45.1974 66.2199 64.4973 74.9365 79.5774C83.653 94.6576 102.988 99.8075 118.121 91.0801C133.255 82.3527 138.457 63.0528 129.741 47.9726Z" fill="url(#paint1_linear_1_490)"/>
<path d="M129.741 47.9726C121.024 32.8924 101.69 27.7425 86.5558 36.47C71.422 45.1974 66.2199 64.4973 74.9365 79.5774C83.653 94.6576 102.988 99.8075 118.121 91.0801C133.255 82.3527 138.457 63.0528 129.741 47.9726Z" fill="url(#paint2_linear_1_490)"/>
<defs>
<linearGradient id="paint0_linear_1_490" x1="35.7445" y1="33.8159" x2="35.7445" y2="105.84" gradientUnits="userSpaceOnUse">
<stop stop-color="#0388FF" stop-opacity="0"/>
<stop offset="1" stop-color="#0388FF"/>
</linearGradient>
<linearGradient id="paint1_linear_1_490" x1="48.9497" y1="86.5763" x2="111.714" y2="54.7717" gradientUnits="userSpaceOnUse">
<stop stop-color="white" stop-opacity="0.3"/>
<stop offset="1" stop-color="#0388FF"/>
</linearGradient>
<linearGradient id="paint2_linear_1_490" x1="48.9497" y1="86.5763" x2="111.714" y2="54.7717" gradientUnits="userSpaceOnUse">
<stop stop-color="white" stop-opacity="0.3"/>
<stop offset="1" stop-color="#0388FF"/>
</linearGradient>
</defs>
</svg>
