<svg width="89" height="95" viewBox="0 0 89 95" fill="none" xmlns="http://www.w3.org/2000/svg">
<rect width="27.5091" height="25.0818" transform="matrix(1 0 0 -1 7.28174 25.2759)" fill="url(#paint0_linear_1_1069)" fill-opacity="0.48"/>
<rect width="26.7" height="36.4091" transform="matrix(1 0 0 -1 34.791 36.6035)" fill="url(#paint1_linear_1_1069)" fill-opacity="0.48"/>
<rect width="27.5091" height="87.3818" transform="matrix(1 0 0 -1 61.491 87.3818)" fill="url(#paint2_linear_1_1069)" fill-opacity="0.48"/>
<path d="M0 87.4561H43.9265L62.0695 72.5699V25.3866H0V87.4561Z" fill="#000822"/>
<ellipse cx="21.4864" cy="21.471" rx="21.4864" ry="21.471" transform="matrix(1 0 0 -1 26.6995 94.8579)" fill="url(#paint3_linear_1_1069)"/>
<ellipse cx="21.4864" cy="21.471" rx="21.4864" ry="21.471" transform="matrix(1 0 0 -1 26.6995 94.8579)" fill="url(#paint4_linear_1_1069)"/>
<path d="M40.9993 80.9677L54.958 67.0005" stroke="#000822" stroke-width="4.17079" stroke-linecap="round"/>
<path d="M54.9575 80.9678L40.9993 67" stroke="#000822" stroke-width="4.17079" stroke-linecap="round"/>
<defs>
<linearGradient id="paint0_linear_1_1069" x1="13.7545" y1="0" x2="13.7545" y2="25.0818" gradientUnits="userSpaceOnUse">
<stop stop-color="#0388FF" stop-opacity="0"/>
<stop offset="1" stop-color="#0388FF"/>
</linearGradient>
<linearGradient id="paint1_linear_1_1069" x1="13.35" y1="0" x2="13.35" y2="36.4091" gradientUnits="userSpaceOnUse">
<stop stop-color="#0388FF" stop-opacity="0"/>
<stop offset="1" stop-color="#0388FF"/>
</linearGradient>
<linearGradient id="paint2_linear_1_1069" x1="13.7545" y1="0" x2="13.7545" y2="87.3818" gradientUnits="userSpaceOnUse">
<stop stop-color="#0388FF" stop-opacity="0"/>
<stop offset="1" stop-color="#0388FF"/>
</linearGradient>
<linearGradient id="paint3_linear_1_1069" x1="-14.7836" y1="36.9865" x2="27.8838" y2="15.4007" gradientUnits="userSpaceOnUse">
<stop stop-color="white" stop-opacity="0.3"/>
<stop offset="1" stop-color="#0388FF"/>
</linearGradient>
<linearGradient id="paint4_linear_1_1069" x1="-14.7836" y1="36.9865" x2="27.8838" y2="15.4007" gradientUnits="userSpaceOnUse">
<stop stop-color="white" stop-opacity="0.3"/>
<stop offset="1" stop-color="#0388FF"/>
</linearGradient>
</defs>
</svg>
