<svg width="89" height="95" viewBox="0 0 89 95" fill="none" xmlns="http://www.w3.org/2000/svg">
<rect width="27.5091" height="25.0818" transform="matrix(1 0 0 -1 7.28125 25.2773)" fill="url(#paint0_linear_458_1228)" fill-opacity="0.48"/>
<rect width="26.7" height="36.4091" transform="matrix(1 0 0 -1 34.7891 36.6055)" fill="url(#paint1_linear_458_1228)" fill-opacity="0.48"/>
<rect width="27.5091" height="87.3818" transform="matrix(1 0 0 -1 61.4922 87.3828)" fill="url(#paint2_linear_458_1228)" fill-opacity="0.48"/>
<path d="M0 87.457H43.9265L62.0695 72.5709V25.3876H0V87.457Z" fill="#000822"/>
<ellipse cx="21.4864" cy="21.471" rx="21.4864" ry="21.471" transform="matrix(1 0 0 -1 26.6992 94.8594)" fill="url(#paint3_linear_458_1228)"/>
<ellipse cx="21.4864" cy="21.471" rx="21.4864" ry="21.471" transform="matrix(1 0 0 -1 26.6992 94.8594)" fill="url(#paint4_linear_458_1228)"/>
<path d="M41 80.9672L54.9587 67" stroke="#000822" stroke-width="4.17079" stroke-linecap="round"/>
<path d="M54.9582 80.9687L41 67.001" stroke="#000822" stroke-width="4.17079" stroke-linecap="round"/>
<defs>
<linearGradient id="paint0_linear_458_1228" x1="13.7545" y1="0" x2="13.7545" y2="25.0818" gradientUnits="userSpaceOnUse">
<stop stop-color="#0388FF" stop-opacity="0"/>
<stop offset="1" stop-color="#0388FF"/>
</linearGradient>
<linearGradient id="paint1_linear_458_1228" x1="13.35" y1="0" x2="13.35" y2="36.4091" gradientUnits="userSpaceOnUse">
<stop stop-color="#0388FF" stop-opacity="0"/>
<stop offset="1" stop-color="#0388FF"/>
</linearGradient>
<linearGradient id="paint2_linear_458_1228" x1="13.7545" y1="0" x2="13.7545" y2="87.3818" gradientUnits="userSpaceOnUse">
<stop stop-color="#0388FF" stop-opacity="0"/>
<stop offset="1" stop-color="#0388FF"/>
</linearGradient>
<linearGradient id="paint3_linear_458_1228" x1="-14.7836" y1="36.9865" x2="27.8838" y2="15.4007" gradientUnits="userSpaceOnUse">
<stop stop-color="white" stop-opacity="0.3"/>
<stop offset="1" stop-color="#0388FF"/>
</linearGradient>
<linearGradient id="paint4_linear_458_1228" x1="-14.7836" y1="36.9865" x2="27.8838" y2="15.4007" gradientUnits="userSpaceOnUse">
<stop stop-color="white" stop-opacity="0.3"/>
<stop offset="1" stop-color="#0388FF"/>
</linearGradient>
</defs>
</svg>
