<svg width="152" height="113" viewBox="0 0 152 113" fill="none" xmlns="http://www.w3.org/2000/svg">
<rect x="0.358398" y="26" width="69.9835" height="86.4864" fill="url(#paint0_linear_1_900)" fill-opacity="0.48"/>
<path d="M0.0478516 70.3108V81.2526C0.0478516 83.1239 1.56486 84.6409 3.43618 84.6409H138.213C140.085 84.6409 141.602 83.1239 141.602 81.2526V66.8912C141.602 64.0838 139.633 61.6611 136.885 61.0869L120.145 57.5894C118.922 57.3338 117.836 56.6367 117.094 55.6311L105.614 40.0657C104.656 38.7667 103.138 38 101.524 38H50.3964C48.9814 38 47.6304 38.5899 46.6686 39.6278L31.3578 56.1489C30.7252 56.8316 29.9173 57.3274 29.0222 57.5823L4.35327 64.608C1.80529 65.3336 0.0478516 67.6615 0.0478516 70.3108Z" fill="#000822"/>
<ellipse cx="38.611" cy="84.6407" rx="12.5592" ry="13.349" fill="#000822"/>
<ellipse cx="109.365" cy="84.6407" rx="12.5592" ry="13.349" fill="#000822"/>
<path d="M151.298 5.63459L149.769 9.02402C147.324 14.4466 147.01 20.5908 148.888 26.2349C152.752 37.851 147.417 50.5332 136.411 55.8939L131.7 58.1885C128.685 59.6571 125.787 61.3547 123.033 63.2662L122.483 63.6514C119.565 61.5821 116.483 59.7551 113.267 58.1885L108.556 55.8939C97.5503 50.5332 92.2152 37.851 96.0794 26.2349C97.957 20.5908 97.6427 14.4466 95.198 9.02402L93.6694 5.63459L98.9995 0C106.062 3.56092 114.36 3.71818 121.552 0.426824L122.483 0L123.415 0.426824C130.607 3.71818 138.905 3.56092 145.967 0L151.298 5.63459Z" fill="url(#paint1_linear_1_900)"/>
<path d="M151.298 5.63459L149.769 9.02402C147.324 14.4466 147.01 20.5908 148.888 26.2349C152.752 37.851 147.417 50.5332 136.411 55.8939L131.7 58.1885C128.685 59.6571 125.787 61.3547 123.033 63.2662L122.483 63.6514C119.565 61.5821 116.483 59.7551 113.267 58.1885L108.556 55.8939C97.5503 50.5332 92.2152 37.851 96.0794 26.2349C97.957 20.5908 97.6427 14.4466 95.198 9.02402L93.6694 5.63459L98.9995 0C106.062 3.56092 114.36 3.71818 121.552 0.426824L122.483 0L123.415 0.426824C130.607 3.71818 138.905 3.56092 145.967 0L151.298 5.63459Z" fill="url(#paint2_linear_1_900)"/>
<path d="M122.054 17.7668L124.846 26.3605H133.882L126.572 31.6717L129.364 40.2654L122.054 34.9542L114.744 40.2654L117.536 31.6717L110.226 26.3605H119.262L122.054 17.7668Z" fill="#000822"/>
<defs>
<linearGradient id="paint0_linear_1_900" x1="35.3501" y1="26" x2="35.3501" y2="112.486" gradientUnits="userSpaceOnUse">
<stop stop-color="#0388FF" stop-opacity="0"/>
<stop offset="1" stop-color="#0388FF"/>
</linearGradient>
<linearGradient id="paint1_linear_1_900" x1="73.5537" y1="60.7249" x2="135.195" y2="35.1007" gradientUnits="userSpaceOnUse">
<stop stop-color="white" stop-opacity="0.3"/>
<stop offset="1" stop-color="#0388FF"/>
</linearGradient>
<linearGradient id="paint2_linear_1_900" x1="73.8441" y1="54.8237" x2="133.26" y2="27.6288" gradientUnits="userSpaceOnUse">
<stop stop-color="white" stop-opacity="0.3"/>
<stop offset="1" stop-color="#0388FF"/>
</linearGradient>
</defs>
</svg>
