<svg width="38" height="47" viewBox="0 0 38 47" fill="none" xmlns="http://www.w3.org/2000/svg">
<rect width="24" height="46" fill="url(#paint0_linear_1_8546)" fill-opacity="0.74"/>
<path d="M12.0659 31.0175L7.23711 31.0175L5.35423 34.0507C5.14567 34.3867 5.03516 34.7743 5.03516 35.1698V41.1866C5.03516 41.7725 5.51013 42.2475 6.09605 42.2475L36.0485 42.2475C36.6344 42.2475 37.1094 41.7725 37.1094 41.1866V35.1654C37.1094 34.7727 37.0004 34.3877 36.7945 34.0532L34.9261 31.0175L30.7926 31.0175H12.0659Z" fill="#000822"/>
<rect x="6.63281" y="38.2422" width="7.19005" height="8.01042" rx="1.59134" fill="#000822"/>
<rect x="28.3555" y="38.2422" width="7.19005" height="8.01042" rx="1.59134" fill="#000822"/>
<path d="M10.2956 24.1293C10.6794 23.269 11.5334 22.7148 12.4755 22.7148H29.546C30.4736 22.7148 31.3171 23.2522 31.7092 24.0928L34.9393 31.0173H7.22266L10.2956 24.1293Z" fill="#000822"/>
<path d="M16 38.9996H26" stroke="#0388FF" stroke-width="0.795671" stroke-linecap="round"/>
<path d="M17 36.9996H25" stroke="#0388FF" stroke-width="0.795671" stroke-linecap="round"/>
<path d="M8.17969 34.4205C8.17969 34.2151 8.38283 34.0713 8.57657 34.1397L13.8013 35.9836C13.9204 36.0256 14 36.1381 14 36.2644V37.7954C14 37.9598 13.8667 38.0932 13.7022 38.0932H8.47747C8.31301 38.0932 8.17969 37.9598 8.17969 37.7954V34.4205Z" fill="#0388FF"/>
<path d="M33.8203 34.4205C33.8203 34.2151 33.6172 34.0713 33.4234 34.1397L28.1987 35.9836C28.0796 36.0256 28 36.1381 28 36.2644V37.7954C28 37.9598 28.1333 38.0932 28.2978 38.0932H33.5225C33.687 38.0932 33.8203 37.9598 33.8203 37.7954V34.4205Z" fill="#0388FF"/>
<defs>
<linearGradient id="paint0_linear_1_8546" x1="12" y1="0" x2="12" y2="46" gradientUnits="userSpaceOnUse">
<stop stop-color="#0388FF" stop-opacity="0"/>
<stop offset="1" stop-color="#0388FF"/>
</linearGradient>
</defs>
</svg>
