<svg xmlns="http://www.w3.org/2000/svg" version="1.1" viewBox="0 0 96 96">
  <g>
    <!-- Left mirror -->
    <rect x="8" y="28" width="6" height="14" rx="3" fill="#0388ff" stroke="#0270cc" stroke-width="0.5"/>
    
    <!-- Main car body -->
    <path d="M 16 24 C 12 24 10 26 10 30 L 10 62 C 10 70 14 76 20 76 L 76 76 C 82 76 86 70 86 62 L 86 30 C 86 26 84 24 80 24 Z" fill="#0388ff" stroke="#0270cc" stroke-width="0.5"/>
    
    <!-- Roof/top section -->
    <path d="M 20 24 C 20 18 22 14 26 14 L 70 14 C 74 14 76 18 76 24 Z" fill="#0388ff"/>
    
    <!-- Windshield area -->
    <path d="M 24 24 L 26 14 L 70 14 L 72 24 Z" fill="#0388ff" opacity="0.9"/>
    
    <!-- Left headlight -->
    <circle cx="19" cy="53" r="5" fill="#ffffff"/>
    <circle cx="19" cy="53" r="3" fill="#0270cc" opacity="0.2"/>
    
    <!-- Right headlight -->
    <circle cx="77" cy="53" r="5" fill="#ffffff"/>
    <circle cx="77" cy="53" r="3" fill="#0270cc" opacity="0.2"/>
    
    <!-- Left bumper -->
    <rect x="12" y="42" width="8" height="10" rx="1" fill="#0388ff" opacity="0.9"/>
    
    <!-- Right bumper -->
    <rect x="76" y="42" width="8" height="10" rx="1" fill="#0388ff" opacity="0.9"/>
    
    <!-- Center grille -->
    <rect x="40" y="46" width="16" height="5" rx="1" fill="#ffffff" opacity="0.15"/>
    
    <!-- Left wheel -->
    <circle cx="22" cy="70" r="7" fill="#0388ff" stroke="#ffffff" stroke-width="1"/>
    <circle cx="22" cy="70" r="3.5" fill="#ffffff" opacity="0.3"/>
    
    <!-- Right wheel -->
    <circle cx="74" cy="70" r="7" fill="#0388ff" stroke="#ffffff" stroke-width="1"/>
    <circle cx="74" cy="70" r="3.5" fill="#ffffff" opacity="0.3"/>
    
    <!-- Right mirror -->
    <rect x="82" y="28" width="6" height="14" rx="3" fill="#0388ff" stroke="#0270cc" stroke-width="0.5"/>
  </g>
</svg>
