<svg width="207" height="114" viewBox="0 0 207 114" fill="none" xmlns="http://www.w3.org/2000/svg">
<rect x="0.5" y="0.5" width="206" height="113" rx="17.5" fill="white"/>
<rect x="0.5" y="0.5" width="206" height="113" rx="17.5" stroke="#CAD0DF"/>
<path d="M58.014 25C55.7976 25 54 26.7971 54 29.014V84.0053C54 86.2222 55.7985 88.0193 58.014 88.0193H150.335C152.552 88.0193 154.349 86.2223 154.349 84.0053V29.014C154.349 26.7972 152.551 25 150.335 25H58.014ZM113.934 43.781C116.376 43.781 118.333 44.3204 119.581 44.8221L118.728 50.1877L118.164 49.9023C117.001 49.4006 115.508 48.9178 113.447 48.9521C110.981 48.9521 109.841 50.0522 109.841 51.0815C109.827 52.2412 111.173 53.0061 113.375 54.1514C117.01 55.9186 118.689 58.0613 118.666 60.878C118.617 66.0175 114.318 69.3387 107.696 69.3387C104.871 69.3076 102.149 68.7095 100.678 68.0184L101.562 62.4741L102.375 62.8693C104.444 63.7937 105.783 64.1676 108.305 64.1676C110.115 64.1676 112.059 63.4095 112.074 61.7498C112.086 60.666 111.262 59.8933 108.809 58.6797C106.42 57.4952 103.252 55.511 103.287 51.9532C103.325 47.1403 107.709 43.781 113.934 43.781ZM62.8746 44.5681H73.0444C74.4138 44.6199 75.5195 45.0608 75.9012 46.5469L78.0932 57.8613V57.8675L78.7517 61.2575L84.9263 44.5681H91.6059L81.6775 68.9969L75.0043 69.0031L69.6921 49.2907C72.8529 50.9653 75.5439 52.9027 77.1023 55.5689C76.7005 54.7252 76.1711 53.7729 75.4936 52.8344C74.7047 51.7414 73.0008 50.3302 72.2886 49.7298C69.807 47.6378 66.4368 45.9482 62.7962 45.0542L62.8746 44.5681ZM94.262 44.5963H100.794L96.7079 68.9875H90.1759L94.262 44.5963ZM131.156 44.5963H136.105L141.285 68.9875H135.346C135.346 68.9875 134.756 66.1853 134.565 65.331C133.631 65.331 127.102 65.3216 126.367 65.3216C126.119 65.9819 125.019 68.9874 125.019 68.9874H118.299L127.804 46.6221C128.477 45.0328 129.624 44.5963 131.156 44.5963ZM131.642 51.1566C131.321 52.0639 130.761 53.529 130.798 53.4647C130.798 53.4647 128.788 58.8273 128.262 60.2195L133.546 60.2163C133.055 57.8904 132.563 55.5647 132.072 53.2391L131.642 51.1566Z" fill="#A8ABB4"/>
</svg>
