<svg width="82" height="82" viewBox="0 0 82 82" fill="none" xmlns="http://www.w3.org/2000/svg">
<path d="M38.8527 37.485L34.916 0.79834H47.0378L42.7684 37.485H38.8527Z" fill="white"/>
<path d="M38.8527 37.485L34.916 0.79834H47.0378L42.7684 37.485H38.8527Z" fill="url(#paint0_linear_1_4629)"/>
<path d="M38.8527 45.3134L34.916 82H47.0378L42.7684 45.3134H38.8527Z" fill="white"/>
<path d="M38.8527 45.3134L34.916 82H47.0378L42.7684 45.3134H38.8527Z" fill="url(#paint1_linear_1_4629)"/>
<path d="M37.0592 43.5233L0.372559 47.46L0.372559 35.3382L37.0592 39.6076L37.0592 43.5233Z" fill="white"/>
<path d="M37.0592 43.5233L0.372559 47.46L0.372559 35.3382L37.0592 39.6076L37.0592 43.5233Z" fill="url(#paint2_linear_1_4629)"/>
<path d="M44.891 43.5233L81.5776 47.46L81.5776 35.3382L44.891 39.6076L44.891 43.5233Z" fill="white"/>
<path d="M44.891 43.5233L81.5776 47.46L81.5776 35.3382L44.891 39.6076L44.891 43.5233Z" fill="url(#paint3_linear_1_4629)"/>
<path d="M39.708 45.6693L16.5503 74.3943L7.97893 65.8229L36.9392 42.9005L39.708 45.6693Z" fill="white"/>
<path d="M39.708 45.6693L16.5503 74.3943L7.97893 65.8229L36.9392 42.9005L39.708 45.6693Z" fill="url(#paint4_linear_1_4629)"/>
<path d="M45.2452 40.1331L73.9702 16.9753L65.3988 8.40398L42.4764 37.3643L45.2452 40.1331Z" fill="white"/>
<path d="M45.2452 40.1331L73.9702 16.9753L65.3988 8.40398L42.4764 37.3643L45.2452 40.1331Z" fill="url(#paint5_linear_1_4629)"/>
<path d="M45.2452 42.665L73.9702 65.8228L65.3988 74.3941L42.4764 45.4339L45.2452 42.665Z" fill="white"/>
<path d="M45.2452 42.665L73.9702 65.8228L65.3988 74.3941L42.4764 45.4339L45.2452 42.665Z" fill="url(#paint6_linear_1_4629)"/>
<path d="M39.708 37.1293L16.5503 8.4043L7.97893 16.9757L36.9392 39.8981L39.708 37.1293Z" fill="white"/>
<path d="M39.708 37.1293L16.5503 8.4043L7.97893 16.9757L36.9392 39.8981L39.708 37.1293Z" fill="url(#paint7_linear_1_4629)"/>
<defs>
<linearGradient id="paint0_linear_1_4629" x1="30.34" y1="50.9591" x2="44.7659" y2="3.22011" gradientUnits="userSpaceOnUse">
<stop stop-color="white" stop-opacity="0"/>
<stop offset="1" stop-color="#0388FF"/>
</linearGradient>
<linearGradient id="paint1_linear_1_4629" x1="30.34" y1="31.8392" x2="44.7659" y2="79.5782" gradientUnits="userSpaceOnUse">
<stop stop-color="white" stop-opacity="0"/>
<stop offset="1" stop-color="#0388FF"/>
</linearGradient>
<linearGradient id="paint2_linear_1_4629" x1="50.5334" y1="52.036" x2="2.79432" y2="37.6101" gradientUnits="userSpaceOnUse">
<stop stop-color="white" stop-opacity="0"/>
<stop offset="1" stop-color="#0388FF"/>
</linearGradient>
<linearGradient id="paint3_linear_1_4629" x1="31.4168" y1="52.036" x2="79.1559" y2="37.6101" gradientUnits="userSpaceOnUse">
<stop stop-color="white" stop-opacity="0"/>
<stop offset="1" stop-color="#0388FF"/>
</linearGradient>
<linearGradient id="paint4_linear_1_4629" x1="55.2551" y1="42.161" x2="11.2978" y2="65.7169" gradientUnits="userSpaceOnUse">
<stop stop-color="white" stop-opacity="0"/>
<stop offset="1" stop-color="#0388FF"/>
</linearGradient>
<linearGradient id="paint5_linear_1_4629" x1="41.7369" y1="55.6801" x2="65.2929" y2="11.7229" gradientUnits="userSpaceOnUse">
<stop stop-color="white" stop-opacity="0"/>
<stop offset="1" stop-color="#0388FF"/>
</linearGradient>
<linearGradient id="paint6_linear_1_4629" x1="41.7369" y1="27.118" x2="65.2929" y2="71.0752" gradientUnits="userSpaceOnUse">
<stop stop-color="white" stop-opacity="0"/>
<stop offset="1" stop-color="#0388FF"/>
</linearGradient>
<linearGradient id="paint7_linear_1_4629" x1="55.2551" y1="40.6376" x2="11.2978" y2="17.0817" gradientUnits="userSpaceOnUse">
<stop stop-color="white" stop-opacity="0"/>
<stop offset="1" stop-color="#0388FF"/>
</linearGradient>
</defs>
</svg>
